<?xml version="1.0" encoding="UTF-8" standalone="no"?>
<!DOCTYPE svg PUBLIC "-//W3C//DTD SVG 1.1//EN"
 "http://www.w3.org/Graphics/SVG/1.1/DTD/svg11.dtd">
<!-- Generated by graphviz version 2.43.0 (0)
 -->
<!-- Title: null_ptr_check Pages: 1 -->
<svg width="715pt" height="255pt"
 viewBox="0.00 0.00 715.00 255.00" xmlns="http://www.w3.org/2000/svg" xmlns:xlink="http://www.w3.org/1999/xlink">
<g id="graph0" class="graph" transform="scale(1 1) rotate(0) translate(4 251)">
<title>null_ptr_check</title>
<!-- Node1 -->
<g id="Node000001" class="node">
<title>Node1</title>
<g id="a_Node000001"><a xlink:title=": This internal function* is used to validate the device structure pointer for null conditions.">
<polygon fill="#999999" stroke="#666666" points="707,-133 620,-133 620,-114 707,-114 707,-133"/>
<text text-anchor="middle" x="663.5" y="-121" font-family="Helvetica,sans-Serif" font-size="10.00">null_ptr_check</text>
</a>
</g>
</g>
<!-- Node2 -->
<g id="Node000002" class="node">
<title>Node2</title>
<g id="a_Node000002"><a xlink:href="BMM350_8c.html#a72d6f07d31b60e050c8aa62086737aab" target="_top" xlink:title="This function is used to read a register from the BMM350 sensor.">
<polygon fill="white" stroke="#666666" points="582.5,-247 474.5,-247 474.5,-228 582.5,-228 582.5,-247"/>
<text text-anchor="middle" x="528.5" y="-235" font-family="Helvetica,sans-Serif" font-size="10.00">bmm350_I2C_read</text>
</a>
</g>
</g>
<!-- Node1&#45;&gt;Node2 -->
<g id="edge1_Node000001_Node000002" class="edge">
<title>Node1&#45;&gt;Node2</title>
<g id="a_edge1_Node000001_Node000002"><a xlink:title=" ">
<path fill="none" stroke="#63b8ff" d="M650.43,-141.58C636.43,-161.41 611.68,-193.14 584,-213.5 576,-219.38 566.34,-224.23 557.39,-227.99"/>
<polygon fill="#63b8ff" stroke="#63b8ff" points="653.45,-143.36 656.25,-133.14 647.69,-139.39 653.45,-143.36"/>
</a>
</g>
</g>
<!-- Node3 -->
<g id="Node000003" class="node">
<title>Node3</title>
<g id="a_Node000003"><a xlink:href="BMM350_8c.html#af0d2cb8fdf5e0a70d975e96f2366726e" target="_top" xlink:title="This function initialize the BMM350 device structure and the adaptive filter.">
<polygon fill="white" stroke="#666666" points="422.5,-190 308.5,-190 308.5,-171 422.5,-171 422.5,-190"/>
<text text-anchor="middle" x="365.5" y="-178" font-family="Helvetica,sans-Serif" font-size="10.00">bmm350_init_struct</text>
</a>
</g>
</g>
<!-- Node1&#45;&gt;Node3 -->
<g id="edge7_Node000001_Node000003" class="edge">
<title>Node1&#45;&gt;Node3</title>
<g id="a_edge7_Node000001_Node000003"><a xlink:title=" ">
<path fill="none" stroke="#63b8ff" d="M646.18,-140.2C631.42,-154.01 608.33,-172.6 584,-180.5 531.21,-197.65 467.33,-195.1 422.5,-189.82"/>
<polygon fill="#63b8ff" stroke="#63b8ff" points="648.74,-142.59 653.48,-133.11 643.86,-137.57 648.74,-142.59"/>
</a>
</g>
</g>
<!-- Node4 -->
<g id="Node000004" class="node">
<title>Node4</title>
<g id="a_Node000004"><a xlink:href="BMM350_8c.html#adc0b3dcb4a399bb38273981b2d47e697" target="_top" xlink:title="This function to initialize the BMM350 registers and enable Normal Mode.">
<polygon fill="white" stroke="#666666" points="81,-111 0,-111 0,-92 81,-92 81,-111"/>
<text text-anchor="middle" x="40.5" y="-99" font-family="Helvetica,sans-Serif" font-size="10.00">bmm350_init</text>
</a>
</g>
</g>
<!-- Node1&#45;&gt;Node4 -->
<g id="edge6_Node000001_Node000004" class="edge">
<title>Node1&#45;&gt;Node4</title>
<g id="a_edge6_Node000001_Node000004"><a xlink:title=" ">
<path fill="none" stroke="#63b8ff" d="M609.53,-121.74C512.05,-118.49 297.68,-111.24 117,-104.5 105.33,-104.07 92.65,-103.57 81.07,-103.11"/>
<polygon fill="#63b8ff" stroke="#63b8ff" points="609.6,-125.25 619.71,-122.08 609.83,-118.25 609.6,-125.25"/>
</a>
</g>
</g>
<!-- Node5 -->
<g id="Node000005" class="node">
<title>Node5</title>
<g id="a_Node000005"><a xlink:href="BMM350_8c.html#a1de7d1421454a2345f94c9c05846496c" target="_top" xlink:title="This function is used to write data to a register in the BMM350 sensor.">
<polygon fill="white" stroke="#666666" points="584,-171 473,-171 473,-152 584,-152 584,-171"/>
<text text-anchor="middle" x="528.5" y="-159" font-family="Helvetica,sans-Serif" font-size="10.00">bmm350_I2C_write</text>
</a>
</g>
</g>
<!-- Node1&#45;&gt;Node5 -->
<g id="edge4_Node000001_Node000005" class="edge">
<title>Node1&#45;&gt;Node5</title>
<g id="a_edge4_Node000001_Node000005"><a xlink:title=" ">
<path fill="none" stroke="#63b8ff" d="M619.13,-135.89C600.92,-141.09 580.06,-147.05 563.05,-151.91"/>
<polygon fill="#63b8ff" stroke="#63b8ff" points="620.28,-139.2 628.94,-133.09 618.36,-132.47 620.28,-139.2"/>
</a>
</g>
</g>
<!-- Node6 -->
<g id="Node000006" class="node">
<title>Node6</title>
<g id="a_Node000006"><a xlink:href="BMM350_8c.html#ad144c7b4fcd5e9f22b261b1d3ee9b1fa" target="_top" xlink:title="This function is used to perform the magnetic reset of the sensor which is necessary after a field sh...">
<polygon fill="white" stroke="#666666" points="258,-95.5 117,-95.5 117,-65.5 258,-65.5 258,-95.5"/>
<text text-anchor="start" x="125" y="-83.5" font-family="Helvetica,sans-Serif" font-size="10.00">bmm350_magnetic_reset</text>
<text text-anchor="middle" x="187.5" y="-72.5" font-family="Helvetica,sans-Serif" font-size="10.00">_and_wait</text>
</a>
</g>
</g>
<!-- Node1&#45;&gt;Node6 -->
<g id="edge8_Node000001_Node000006" class="edge">
<title>Node1&#45;&gt;Node6</title>
<g id="a_edge8_Node000001_Node000006"><a xlink:title=" ">
<path fill="none" stroke="#63b8ff" d="M609.87,-113.34C601.25,-111.9 592.39,-110.55 584,-109.5 470.26,-95.23 337.17,-87.25 258.02,-83.42"/>
<polygon fill="#63b8ff" stroke="#63b8ff" points="609.39,-116.81 619.84,-115.07 610.59,-109.91 609.39,-116.81"/>
</a>
</g>
</g>
<!-- Node7 -->
<g id="Node000007" class="node">
<title>Node7</title>
<g id="a_Node000007"><a xlink:href="BMM350_8c.html#a29af58551105e397e6a05e91f3e05aa1" target="_top" xlink:title="This function is used to set the power mode of the sensor.">
<polygon fill="white" stroke="#666666" points="437,-52 294,-52 294,-33 437,-33 437,-52"/>
<text text-anchor="middle" x="365.5" y="-40" font-family="Helvetica,sans-Serif" font-size="10.00">bmm350_set_powermode</text>
</a>
</g>
</g>
<!-- Node1&#45;&gt;Node7 -->
<g id="edge10_Node000001_Node000007" class="edge">
<title>Node1&#45;&gt;Node7</title>
<g id="a_edge10_Node000001_Node000007"><a xlink:title=" ">
<path fill="none" stroke="#63b8ff" d="M643.68,-107.46C628.57,-95.5 606.26,-79.85 584,-71.5 536.92,-53.84 480.56,-46.68 437.01,-43.89"/>
<polygon fill="#63b8ff" stroke="#63b8ff" points="641.73,-110.38 651.69,-113.99 646.16,-104.96 641.73,-110.38"/>
</a>
</g>
</g>
<!-- Node8 -->
<g id="Node000008" class="node">
<title>Node8</title>
<g id="a_Node000008"><a xlink:href="BMM350_8c.html#a26a3e3d11b80083b5f72c060d931728b" target="_top" xlink:title="This function is used to switch from suspend mode to normal mode or forced mode.">
<polygon fill="white" stroke="#666666" points="576,-19 481,-19 481,0 576,0 576,-19"/>
<text text-anchor="middle" x="528.5" y="-7" font-family="Helvetica,sans-Serif" font-size="10.00">set_powermode</text>
</a>
</g>
</g>
<!-- Node1&#45;&gt;Node8 -->
<g id="edge13_Node000001_Node000008" class="edge">
<title>Node1&#45;&gt;Node8</title>
<g id="a_edge13_Node000001_Node000008"><a xlink:title=" ">
<path fill="none" stroke="#63b8ff" d="M650.43,-105.42C636.43,-85.59 611.68,-53.86 584,-33.5 576,-27.62 566.34,-22.77 557.39,-19.01"/>
<polygon fill="#63b8ff" stroke="#63b8ff" points="647.69,-107.61 656.25,-113.86 653.45,-103.64 647.69,-107.61"/>
</a>
</g>
</g>
<!-- Node2&#45;&gt;Node3 -->
<g id="edge2_Node000002_Node000003" class="edge">
<title>Node2&#45;&gt;Node3</title>
<g id="a_edge2_Node000002_Node000003"><a xlink:title=" ">
<path fill="none" stroke="#63b8ff" d="M490.98,-224.57C461.36,-214.08 420.27,-199.54 393.54,-190.07"/>
<polygon fill="#63b8ff" stroke="#63b8ff" points="489.96,-227.92 500.55,-227.96 492.29,-221.32 489.96,-227.92"/>
</a>
</g>
</g>
<!-- Node3&#45;&gt;Node4 -->
<g id="edge3_Node000003_Node000004" class="edge">
<title>Node3&#45;&gt;Node4</title>
<g id="a_edge3_Node000003_Node000004"><a xlink:title=" ">
<path fill="none" stroke="#63b8ff" d="M298.27,-173.97C247.74,-167.8 176.87,-156.58 117,-137.5 95.83,-130.75 73,-119.21 58.05,-111.02"/>
<polygon fill="#63b8ff" stroke="#63b8ff" points="298.07,-177.47 308.41,-175.17 298.9,-170.52 298.07,-177.47"/>
</a>
</g>
</g>
<!-- Node5&#45;&gt;Node3 -->
<g id="edge5_Node000005_Node000003" class="edge">
<title>Node5&#45;&gt;Node3</title>
<g id="a_edge5_Node000005_Node000003"><a xlink:title=" ">
<path fill="none" stroke="#63b8ff" d="M462.93,-169.12C449.58,-170.7 435.62,-172.34 422.6,-173.88"/>
<polygon fill="#63b8ff" stroke="#63b8ff" points="463.47,-172.58 472.99,-167.93 462.65,-165.63 463.47,-172.58"/>
</a>
</g>
</g>
<!-- Node6&#45;&gt;Node4 -->
<g id="edge9_Node000006_Node000004" class="edge">
<title>Node6&#45;&gt;Node4</title>
<g id="a_edge9_Node000006_Node000004"><a xlink:title=" ">
<path fill="none" stroke="#63b8ff" d="M106.96,-92.02C98.12,-93.3 89.42,-94.56 81.39,-95.72"/>
<polygon fill="#63b8ff" stroke="#63b8ff" points="107.58,-95.47 116.97,-90.57 106.57,-88.54 107.58,-95.47"/>
</a>
</g>
</g>
<!-- Node7&#45;&gt;Node4 -->
<g id="edge11_Node000007_Node000004" class="edge">
<title>Node7&#45;&gt;Node4</title>
<g id="a_edge11_Node000007_Node000004"><a xlink:title=" ">
<path fill="none" stroke="#63b8ff" d="M283.59,-37.45C234.39,-36.72 170.88,-40.01 117,-56.5 92.49,-64 67.63,-81.04 53.44,-91.86"/>
<polygon fill="#63b8ff" stroke="#63b8ff" points="283.79,-40.96 293.86,-37.66 283.93,-33.96 283.79,-40.96"/>
</a>
</g>
</g>
<!-- Node7&#45;&gt;Node6 -->
<g id="edge12_Node000007_Node000006" class="edge">
<title>Node7&#45;&gt;Node6</title>
<g id="a_edge12_Node000007_Node000006"><a xlink:title=" ">
<path fill="none" stroke="#63b8ff" d="M310.14,-54.24C293.74,-57.78 275.5,-61.71 258.25,-65.44"/>
<polygon fill="#63b8ff" stroke="#63b8ff" points="311.05,-57.62 320.09,-52.09 309.57,-50.78 311.05,-57.62"/>
</a>
</g>
</g>
<!-- Node8&#45;&gt;Node7 -->
<g id="edge14_Node000008_Node000007" class="edge">
<title>Node8&#45;&gt;Node7</title>
<g id="a_edge14_Node000008_Node000007"><a xlink:title=" ">
<path fill="none" stroke="#63b8ff" d="M470.93,-21.1C451.97,-24.98 431.06,-29.27 412.96,-32.98"/>
<polygon fill="#63b8ff" stroke="#63b8ff" points="471.84,-24.48 480.93,-19.04 470.43,-17.62 471.84,-24.48"/>
</a>
</g>
</g>
</g>
</svg>
