<?xml version="1.0" encoding="UTF-8" standalone="no"?>
<!DOCTYPE svg PUBLIC "-//W3C//DTD SVG 1.1//EN"
 "http://www.w3.org/Graphics/SVG/1.1/DTD/svg11.dtd">
<!-- Generated by graphviz version 2.43.0 (0)
 -->
<!-- Title: fix_sign Pages: 1 -->
<svg width="818pt" height="76pt"
 viewBox="0.00 0.00 818.00 75.50" xmlns="http://www.w3.org/2000/svg" xmlns:xlink="http://www.w3.org/1999/xlink">
<g id="graph0" class="graph" transform="scale(1 1) rotate(0) translate(4 71.5)">
<title>fix_sign</title>
<!-- Node1 -->
<g id="Node000001" class="node">
<title>Node1</title>
<g id="a_Node000001"><a xlink:title=": This function converts the ADC data from the BMM350 data registers to 32&#45;bit signed integer.">
<polygon fill="#999999" stroke="#666666" points="810,-40 756,-40 756,-21 810,-21 810,-40"/>
<text text-anchor="middle" x="783" y="-28" font-family="Helvetica,sans-Serif" font-size="10.00">fix_sign</text>
</a>
</g>
</g>
<!-- Node2 -->
<g id="Node000002" class="node">
<title>Node2</title>
<g id="a_Node000002"><a xlink:href="BMM350_8c.html#a90f5ad40d27ae8036b2475fe285901a1" target="_top" xlink:title="This function is used to read (ADC) mag and temperature data.">
<polygon fill="white" stroke="#666666" points="720,-67.5 589,-67.5 589,-37.5 720,-37.5 720,-67.5"/>
<text text-anchor="start" x="597" y="-55.5" font-family="Helvetica,sans-Serif" font-size="10.00">bmm350_read_uncomp</text>
<text text-anchor="middle" x="654.5" y="-44.5" font-family="Helvetica,sans-Serif" font-size="10.00">_mag_temp_data</text>
</a>
</g>
</g>
<!-- Node1&#45;&gt;Node2 -->
<g id="edge1_Node000001_Node000002" class="edge">
<title>Node1&#45;&gt;Node2</title>
<g id="a_edge1_Node000001_Node000002"><a xlink:title=" ">
<path fill="none" stroke="#63b8ff" d="M745.67,-36.82C737.62,-38.22 728.84,-39.74 720.04,-41.28"/>
<polygon fill="#63b8ff" stroke="#63b8ff" points="746.54,-40.22 755.79,-35.06 745.34,-33.32 746.54,-40.22"/>
</a>
</g>
</g>
<!-- Node7 -->
<g id="Node000007" class="node">
<title>Node7</title>
<g id="a_Node000007"><a xlink:href="BMM350_8c.html#a9e55a3f509c447e659b6f1c0b1b3a367" target="_top" xlink:title="This internal frunction is used to update magnetometer offset and sensitivity data.">
<polygon fill="white" stroke="#666666" points="716,-19 593,-19 593,0 716,0 716,-19"/>
<text text-anchor="middle" x="654.5" y="-7" font-family="Helvetica,sans-Serif" font-size="10.00">update_mag_off_sens</text>
</a>
</g>
</g>
<!-- Node1&#45;&gt;Node7 -->
<g id="edge6_Node000001_Node000007" class="edge">
<title>Node1&#45;&gt;Node7</title>
<g id="a_edge6_Node000001_Node000007"><a xlink:title=" ">
<path fill="none" stroke="#63b8ff" d="M745.63,-24.46C735.43,-22.77 724.08,-20.88 712.97,-19.04"/>
<polygon fill="#63b8ff" stroke="#63b8ff" points="745.35,-27.96 755.79,-26.15 746.5,-21.06 745.35,-27.96"/>
</a>
</g>
</g>
<!-- Node3 -->
<g id="Node000003" class="node">
<title>Node3</title>
<g id="a_Node000003"><a xlink:href="BMM350_8c.html#a91a3a98a720e9061b94ed3fb0f75a05b" target="_top" xlink:title="This internal function is used to read uncompensated raw magnetic x,y and z axis along with temperatu...">
<polygon fill="white" stroke="#666666" points="548,-62 438,-62 438,-43 548,-43 548,-62"/>
<text text-anchor="middle" x="493" y="-50" font-family="Helvetica,sans-Serif" font-size="10.00">read_out_raw_data</text>
</a>
</g>
</g>
<!-- Node2&#45;&gt;Node3 -->
<g id="edge2_Node000002_Node000003" class="edge">
<title>Node2&#45;&gt;Node3</title>
<g id="a_edge2_Node000002_Node000003"><a xlink:title=" ">
<path fill="none" stroke="#63b8ff" d="M578.45,-52.5C568.21,-52.5 557.88,-52.5 548.11,-52.5"/>
<polygon fill="#63b8ff" stroke="#63b8ff" points="578.63,-56 588.63,-52.5 578.63,-49 578.63,-56"/>
</a>
</g>
</g>
<!-- Node4 -->
<g id="Node000004" class="node">
<title>Node4</title>
<g id="a_Node000004"><a xlink:href="BMM350_8c.html#a072f77061f2d28f8b93181aac9890a87" target="_top" xlink:title="This internal function is used to perform compensation calculations for raw magnetometer and temperat...">
<polygon fill="white" stroke="#666666" points="397,-67.5 245,-67.5 245,-37.5 397,-37.5 397,-67.5"/>
<text text-anchor="start" x="253" y="-55.5" font-family="Helvetica,sans-Serif" font-size="10.00">bmm350_get_compensated</text>
<text text-anchor="middle" x="321" y="-44.5" font-family="Helvetica,sans-Serif" font-size="10.00">_mag_xyz_temp_data</text>
</a>
</g>
</g>
<!-- Node3&#45;&gt;Node4 -->
<g id="edge3_Node000003_Node000004" class="edge">
<title>Node3&#45;&gt;Node4</title>
<g id="a_edge3_Node000003_Node000004"><a xlink:title=" ">
<path fill="none" stroke="#63b8ff" d="M427.55,-52.5C417.61,-52.5 407.27,-52.5 397.13,-52.5"/>
<polygon fill="#63b8ff" stroke="#63b8ff" points="427.74,-56 437.74,-52.5 427.74,-49 427.74,-56"/>
</a>
</g>
</g>
<!-- Node5 -->
<g id="Node000005" class="node">
<title>Node5</title>
<g id="a_Node000005"><a xlink:href="BMM350_8c.html#ae42e76e9e743d998bbdb637a03352b7d" target="_top" xlink:title="this function checks the drdy_data_reg (0x30) data ready interrupt then returns the status of the reg...">
<polygon fill="white" stroke="#666666" points="209,-62 149,-62 149,-43 209,-43 209,-62"/>
<text text-anchor="middle" x="179" y="-50" font-family="Helvetica,sans-Serif" font-size="10.00">read_intr</text>
</a>
</g>
</g>
<!-- Node4&#45;&gt;Node5 -->
<g id="edge4_Node000004_Node000005" class="edge">
<title>Node4&#45;&gt;Node5</title>
<g id="a_edge4_Node000004_Node000005"><a xlink:title=" ">
<path fill="none" stroke="#63b8ff" d="M234.65,-52.5C225.51,-52.5 216.74,-52.5 209,-52.5"/>
<polygon fill="#63b8ff" stroke="#63b8ff" points="234.67,-56 244.67,-52.5 234.67,-49 234.67,-56"/>
</a>
</g>
</g>
<!-- Node6 -->
<g id="Node000006" class="node">
<title>Node6</title>
<g id="a_Node000006"><a xlink:href="BMM350_8c.html#ae1c1a63d4a6fe6c7804473250ac24eee" target="_top" xlink:title="This function is used to get yaw value.">
<polygon fill="white" stroke="#666666" points="113,-62 0,-62 0,-43 113,-43 113,-62"/>
<text text-anchor="middle" x="56.5" y="-50" font-family="Helvetica,sans-Serif" font-size="10.00">bmm350_read_yaw</text>
</a>
</g>
</g>
<!-- Node5&#45;&gt;Node6 -->
<g id="edge5_Node000005_Node000006" class="edge">
<title>Node5&#45;&gt;Node6</title>
<g id="a_edge5_Node000005_Node000006"><a xlink:title=" ">
<path fill="none" stroke="#63b8ff" d="M138.58,-52.5C130.49,-52.5 121.82,-52.5 113.28,-52.5"/>
<polygon fill="#63b8ff" stroke="#63b8ff" points="138.83,-56 148.83,-52.5 138.83,-49 138.83,-56"/>
</a>
</g>
</g>
<!-- Node8 -->
<g id="Node000008" class="node">
<title>Node8</title>
<g id="a_Node000008"><a xlink:href="BMM350_8c.html#a2cf75153d40498769db298ba34a15d0e" target="_top" xlink:title=": This internal function is used to read OTP data after boot in user mode.">
<polygon fill="white" stroke="#666666" points="553,-19 433,-19 433,0 553,0 553,-19"/>
<text text-anchor="middle" x="493" y="-7" font-family="Helvetica,sans-Serif" font-size="10.00">otp_dump_after_boot</text>
</a>
</g>
</g>
<!-- Node7&#45;&gt;Node8 -->
<g id="edge7_Node000007_Node000008" class="edge">
<title>Node7&#45;&gt;Node8</title>
<g id="a_edge7_Node000007_Node000008"><a xlink:title=" ">
<path fill="none" stroke="#63b8ff" d="M582.55,-9.5C572.68,-9.5 562.63,-9.5 553.01,-9.5"/>
<polygon fill="#63b8ff" stroke="#63b8ff" points="582.74,-13 592.74,-9.5 582.74,-6 582.74,-13"/>
</a>
</g>
</g>
<!-- Node9 -->
<g id="Node000009" class="node">
<title>Node9</title>
<g id="a_Node000009"><a xlink:href="BMM350_8c.html#adc0b3dcb4a399bb38273981b2d47e697" target="_top" xlink:title="This function to initialize the BMM350 registers and enable Normal Mode.">
<polygon fill="white" stroke="#666666" points="361.5,-19 280.5,-19 280.5,0 361.5,0 361.5,-19"/>
<text text-anchor="middle" x="321" y="-7" font-family="Helvetica,sans-Serif" font-size="10.00">bmm350_init</text>
</a>
</g>
</g>
<!-- Node8&#45;&gt;Node9 -->
<g id="edge8_Node000008_Node000009" class="edge">
<title>Node8&#45;&gt;Node9</title>
<g id="a_edge8_Node000008_Node000009"><a xlink:title=" ">
<path fill="none" stroke="#63b8ff" d="M422.5,-9.5C401.79,-9.5 379.8,-9.5 361.69,-9.5"/>
<polygon fill="#63b8ff" stroke="#63b8ff" points="422.54,-13 432.54,-9.5 422.54,-6 422.54,-13"/>
</a>
</g>
</g>
</g>
</svg>
