<?xml version="1.0" encoding="UTF-8" standalone="no"?>
<!DOCTYPE svg PUBLIC "-//W3C//DTD SVG 1.1//EN"
 "http://www.w3.org/Graphics/SVG/1.1/DTD/svg11.dtd">
<!-- Generated by graphviz version 2.43.0 (0)
 -->
<!-- Title: bmm350_set_powermode Pages: 1 -->
<svg width="405pt" height="46pt"
 viewBox="0.00 0.00 405.00 46.00" xmlns="http://www.w3.org/2000/svg" xmlns:xlink="http://www.w3.org/1999/xlink">
<g id="graph0" class="graph" transform="scale(1 1) rotate(0) translate(4 42)">
<title>bmm350_set_powermode</title>
<!-- Node1 -->
<g id="Node000001" class="node">
<title>Node1</title>
<g id="a_Node000001"><a xlink:title="This function is used to set the power mode of the sensor.">
<polygon fill="#999999" stroke="#666666" points="143,-38 0,-38 0,-19 143,-19 143,-38"/>
<text text-anchor="middle" x="71.5" y="-26" font-family="Helvetica,sans-Serif" font-size="10.00">bmm350_set_powermode</text>
</a>
</g>
</g>
<!-- Node2 -->
<g id="Node000002" class="node">
<title>Node2</title>
<g id="a_Node000002"><a xlink:href="BMM350_8c.html#a3fa3449c50ffe2d91fd5f1c127892356" target="_top" xlink:title=": This internal function* is used to validate the device structure pointer for null conditions.">
<polygon fill="white" stroke="#666666" points="397,-38 310,-38 310,-19 397,-19 397,-38"/>
<text text-anchor="middle" x="353.5" y="-26" font-family="Helvetica,sans-Serif" font-size="10.00">null_ptr_check</text>
</a>
</g>
</g>
<!-- Node1&#45;&gt;Node2 -->
<g id="edge1_Node000001_Node000002" class="edge">
<title>Node1&#45;&gt;Node2</title>
<g id="a_edge1_Node000001_Node000002"><a xlink:title=" ">
<path fill="none" stroke="#63b8ff" d="M143.16,-28.5C191.75,-28.5 255.26,-28.5 299.53,-28.5"/>
<polygon fill="#63b8ff" stroke="#63b8ff" points="299.78,-32 309.78,-28.5 299.78,-25 299.78,-32"/>
</a>
</g>
</g>
<!-- Node3 -->
<g id="Node000003" class="node">
<title>Node3</title>
<g id="a_Node000003"><a xlink:href="BMM350_8c.html#a26a3e3d11b80083b5f72c060d931728b" target="_top" xlink:title="This function is used to switch from suspend mode to normal mode or forced mode.">
<polygon fill="white" stroke="#666666" points="274,-19 179,-19 179,0 274,0 274,-19"/>
<text text-anchor="middle" x="226.5" y="-7" font-family="Helvetica,sans-Serif" font-size="10.00">set_powermode</text>
</a>
</g>
</g>
<!-- Node1&#45;&gt;Node3 -->
<g id="edge2_Node000001_Node000003" class="edge">
<title>Node1&#45;&gt;Node3</title>
<g id="a_edge2_Node000001_Node000003"><a xlink:title=" ">
<path fill="none" stroke="#63b8ff" d="M143.18,-19.72C151.75,-18.66 160.42,-17.58 168.76,-16.55"/>
<polygon fill="#63b8ff" stroke="#63b8ff" points="169.23,-20.01 178.73,-15.31 168.37,-13.07 169.23,-20.01"/>
</a>
</g>
</g>
<!-- Node3&#45;&gt;Node2 -->
<g id="edge3_Node000003_Node000002" class="edge">
<title>Node3&#45;&gt;Node2</title>
<g id="a_edge3_Node000003_Node000002"><a xlink:title=" ">
<path fill="none" stroke="#63b8ff" d="M274.05,-16.57C282.34,-17.84 291.03,-19.16 299.48,-20.44"/>
<polygon fill="#63b8ff" stroke="#63b8ff" points="299.22,-23.94 309.64,-21.98 300.27,-17.02 299.22,-23.94"/>
</a>
</g>
</g>
</g>
</svg>
