<?xml version="1.0" encoding="UTF-8" standalone="no"?>
<!DOCTYPE svg PUBLIC "-//W3C//DTD SVG 1.1//EN"
 "http://www.w3.org/Graphics/SVG/1.1/DTD/svg11.dtd">
<!-- Generated by graphviz version 2.43.0 (0)
 -->
<!-- Title: set_powermode Pages: 1 -->
<svg width="576pt" height="54pt"
 viewBox="0.00 0.00 576.00 53.50" xmlns="http://www.w3.org/2000/svg" xmlns:xlink="http://www.w3.org/1999/xlink">
<g id="graph0" class="graph" transform="scale(1 1) rotate(0) translate(4 49.5)">
<title>set_powermode</title>
<!-- Node1 -->
<g id="Node000001" class="node">
<title>Node1</title>
<g id="a_Node000001"><a xlink:title="This function is used to switch from suspend mode to normal mode or forced mode.">
<polygon fill="#999999" stroke="#666666" points="568,-45.5 473,-45.5 473,-26.5 568,-26.5 568,-45.5"/>
<text text-anchor="middle" x="520.5" y="-33.5" font-family="Helvetica,sans-Serif" font-size="10.00">set_powermode</text>
</a>
</g>
</g>
<!-- Node2 -->
<g id="Node000002" class="node">
<title>Node2</title>
<g id="a_Node000002"><a xlink:href="BMM350_8c.html#a29af58551105e397e6a05e91f3e05aa1" target="_top" xlink:title="This function is used to set the power mode of the sensor.">
<polygon fill="white" stroke="#666666" points="437,-45.5 294,-45.5 294,-26.5 437,-26.5 437,-45.5"/>
<text text-anchor="middle" x="365.5" y="-33.5" font-family="Helvetica,sans-Serif" font-size="10.00">bmm350_set_powermode</text>
</a>
</g>
</g>
<!-- Node1&#45;&gt;Node2 -->
<g id="edge1_Node000001_Node000002" class="edge">
<title>Node1&#45;&gt;Node2</title>
<g id="a_edge1_Node000001_Node000002"><a xlink:title=" ">
<path fill="none" stroke="#63b8ff" d="M462.51,-36C454.25,-36 445.67,-36 437.18,-36"/>
<polygon fill="#63b8ff" stroke="#63b8ff" points="462.76,-39.5 472.76,-36 462.76,-32.5 462.76,-39.5"/>
</a>
</g>
</g>
<!-- Node3 -->
<g id="Node000003" class="node">
<title>Node3</title>
<g id="a_Node000003"><a xlink:href="BMM350_8c.html#adc0b3dcb4a399bb38273981b2d47e697" target="_top" xlink:title="This function to initialize the BMM350 registers and enable Normal Mode.">
<polygon fill="white" stroke="#666666" points="81,-45.5 0,-45.5 0,-26.5 81,-26.5 81,-45.5"/>
<text text-anchor="middle" x="40.5" y="-33.5" font-family="Helvetica,sans-Serif" font-size="10.00">bmm350_init</text>
</a>
</g>
</g>
<!-- Node2&#45;&gt;Node3 -->
<g id="edge2_Node000002_Node000003" class="edge">
<title>Node2&#45;&gt;Node3</title>
<g id="a_edge2_Node000002_Node000003"><a xlink:title=" ">
<path fill="none" stroke="#63b8ff" d="M283.63,-38.52C274.98,-38.71 266.31,-38.88 258,-39 195.34,-39.88 179.65,-40.24 117,-39 105.33,-38.77 92.65,-38.33 81.07,-37.87"/>
<polygon fill="#63b8ff" stroke="#63b8ff" points="283.84,-42.01 293.76,-38.27 283.67,-35.01 283.84,-42.01"/>
</a>
</g>
</g>
<!-- Node4 -->
<g id="Node000004" class="node">
<title>Node4</title>
<g id="a_Node000004"><a xlink:href="BMM350_8c.html#ad144c7b4fcd5e9f22b261b1d3ee9b1fa" target="_top" xlink:title="This function is used to perform the magnetic reset of the sensor which is necessary after a field sh...">
<polygon fill="white" stroke="#666666" points="258,-30 117,-30 117,0 258,0 258,-30"/>
<text text-anchor="start" x="125" y="-18" font-family="Helvetica,sans-Serif" font-size="10.00">bmm350_magnetic_reset</text>
<text text-anchor="middle" x="187.5" y="-7" font-family="Helvetica,sans-Serif" font-size="10.00">_and_wait</text>
</a>
</g>
</g>
<!-- Node2&#45;&gt;Node4 -->
<g id="edge3_Node000002_Node000004" class="edge">
<title>Node2&#45;&gt;Node4</title>
<g id="a_edge3_Node000002_Node000004"><a xlink:title=" ">
<path fill="none" stroke="#63b8ff" d="M283.92,-26.39C275.34,-25.36 266.67,-24.33 258.23,-23.32"/>
<polygon fill="#63b8ff" stroke="#63b8ff" points="283.58,-29.87 293.93,-27.58 284.41,-22.92 283.58,-29.87"/>
</a>
</g>
</g>
<!-- Node4&#45;&gt;Node3 -->
<g id="edge4_Node000004_Node000003" class="edge">
<title>Node4&#45;&gt;Node3</title>
<g id="a_edge4_Node000004_Node000003"><a xlink:title=" ">
<path fill="none" stroke="#63b8ff" d="M106.96,-26.52C98.12,-27.8 89.42,-29.06 81.39,-30.22"/>
<polygon fill="#63b8ff" stroke="#63b8ff" points="107.58,-29.97 116.97,-25.07 106.57,-23.04 107.58,-29.97"/>
</a>
</g>
</g>
</g>
</svg>
