<?xml version="1.0" encoding="UTF-8" standalone="no"?>
<!DOCTYPE svg PUBLIC "-//W3C//DTD SVG 1.1//EN"
 "http://www.w3.org/Graphics/SVG/1.1/DTD/svg11.dtd">
<!-- Generated by graphviz version 2.43.0 (0)
 -->
<!-- Title: bmm350_get_pmu_cmd_status Pages: 1 -->
<svg width="436pt" height="59pt"
 viewBox="0.00 0.00 436.00 59.00" xmlns="http://www.w3.org/2000/svg" xmlns:xlink="http://www.w3.org/1999/xlink">
<g id="graph0" class="graph" transform="scale(1 1) rotate(0) translate(4 55)">
<title>bmm350_get_pmu_cmd_status</title>
<!-- Node1 -->
<g id="Node000001" class="node">
<title>Node1</title>
<g id="a_Node000001"><a xlink:title="This function gets the PMU command status 0 register (0x07) and PMU command status 1 register (0x08) ...">
<polygon fill="#999999" stroke="#666666" points="428,-51 294,-51 294,-21 428,-21 428,-51"/>
<text text-anchor="start" x="302" y="-39" font-family="Helvetica,sans-Serif" font-size="10.00">bmm350_get_pmu_cmd</text>
<text text-anchor="middle" x="361" y="-28" font-family="Helvetica,sans-Serif" font-size="10.00">_status</text>
</a>
</g>
</g>
<!-- Node2 -->
<g id="Node000002" class="node">
<title>Node2</title>
<g id="a_Node000002"><a xlink:href="BMM350_8c.html#adc0b3dcb4a399bb38273981b2d47e697" target="_top" xlink:title="This function to initialize the BMM350 registers and enable Normal Mode.">
<polygon fill="white" stroke="#666666" points="81,-45.5 0,-45.5 0,-26.5 81,-26.5 81,-45.5"/>
<text text-anchor="middle" x="40.5" y="-33.5" font-family="Helvetica,sans-Serif" font-size="10.00">bmm350_init</text>
</a>
</g>
</g>
<!-- Node1&#45;&gt;Node2 -->
<g id="edge1_Node000001_Node000002" class="edge">
<title>Node1&#45;&gt;Node2</title>
<g id="a_edge1_Node000001_Node000002"><a xlink:title=" ">
<path fill="none" stroke="#63b8ff" d="M283.74,-38.49C275.06,-38.7 266.34,-38.88 258,-39 195.34,-39.92 179.65,-40.24 117,-39 105.33,-38.77 92.65,-38.33 81.07,-37.87"/>
<polygon fill="#63b8ff" stroke="#63b8ff" points="283.98,-41.98 293.89,-38.23 283.8,-34.99 283.98,-41.98"/>
</a>
</g>
</g>
<!-- Node3 -->
<g id="Node000003" class="node">
<title>Node3</title>
<g id="a_Node000003"><a xlink:href="BMM350_8c.html#ad144c7b4fcd5e9f22b261b1d3ee9b1fa" target="_top" xlink:title="This function is used to perform the magnetic reset of the sensor which is necessary after a field sh...">
<polygon fill="white" stroke="#666666" points="258,-30 117,-30 117,0 258,0 258,-30"/>
<text text-anchor="start" x="125" y="-18" font-family="Helvetica,sans-Serif" font-size="10.00">bmm350_magnetic_reset</text>
<text text-anchor="middle" x="187.5" y="-7" font-family="Helvetica,sans-Serif" font-size="10.00">_and_wait</text>
</a>
</g>
</g>
<!-- Node1&#45;&gt;Node3 -->
<g id="edge2_Node000001_Node000003" class="edge">
<title>Node1&#45;&gt;Node3</title>
<g id="a_edge2_Node000001_Node000003"><a xlink:title=" ">
<path fill="none" stroke="#63b8ff" d="M283.73,-26.66C275.18,-25.61 266.5,-24.55 258.04,-23.51"/>
<polygon fill="#63b8ff" stroke="#63b8ff" points="283.34,-30.14 293.69,-27.88 284.19,-23.19 283.34,-30.14"/>
</a>
</g>
</g>
<!-- Node3&#45;&gt;Node2 -->
<g id="edge3_Node000003_Node000002" class="edge">
<title>Node3&#45;&gt;Node2</title>
<g id="a_edge3_Node000003_Node000002"><a xlink:title=" ">
<path fill="none" stroke="#63b8ff" d="M106.96,-26.52C98.12,-27.8 89.42,-29.06 81.39,-30.22"/>
<polygon fill="#63b8ff" stroke="#63b8ff" points="107.58,-29.97 116.97,-25.07 106.57,-23.04 107.58,-29.97"/>
</a>
</g>
</g>
</g>
</svg>
