<?xml version="1.0" encoding="UTF-8" standalone="no"?>
<!DOCTYPE svg PUBLIC "-//W3C//DTD SVG 1.1//EN"
 "http://www.w3.org/Graphics/SVG/1.1/DTD/svg11.dtd">
<!-- Generated by graphviz version 2.43.0 (0)
 -->
<!-- Title: fix_sign Pages: 1 -->
<svg width="1014pt" height="76pt"
 viewBox="0.00 0.00 1014.00 75.50" xmlns="http://www.w3.org/2000/svg" xmlns:xlink="http://www.w3.org/1999/xlink">
<g id="graph0" class="graph" transform="scale(1 1) rotate(0) translate(4 71.5)">
<title>fix_sign</title>
<!-- Node1 -->
<g id="Node000001" class="node">
<title>Node1</title>
<g id="a_Node000001"><a xlink:title=": This function converts the ADC data from the BMM350 data registers to 32&#45;bit signed integer.">
<polygon fill="#999999" stroke="#666666" points="1006,-40 952,-40 952,-21 1006,-21 1006,-40"/>
<text text-anchor="middle" x="979" y="-28" font-family="Helvetica,sans-Serif" font-size="10.00">fix_sign</text>
</a>
</g>
</g>
<!-- Node2 -->
<g id="Node000002" class="node">
<title>Node2</title>
<g id="a_Node000002"><a xlink:href="group__sensor__api.html#ga90f5ad40d27ae8036b2475fe285901a1" target="_top" xlink:title="This function is used to read (ADC) mag and temperature data.">
<polygon fill="white" stroke="#666666" points="916,-67.5 785,-67.5 785,-37.5 916,-37.5 916,-67.5"/>
<text text-anchor="start" x="793" y="-55.5" font-family="Helvetica,sans-Serif" font-size="10.00">bmm350_read_uncomp</text>
<text text-anchor="middle" x="850.5" y="-44.5" font-family="Helvetica,sans-Serif" font-size="10.00">_mag_temp_data</text>
</a>
</g>
</g>
<!-- Node1&#45;&gt;Node2 -->
<g id="edge1_Node000001_Node000002" class="edge">
<title>Node1&#45;&gt;Node2</title>
<g id="a_edge1_Node000001_Node000002"><a xlink:title=" ">
<path fill="none" stroke="#63b8ff" d="M941.67,-36.82C933.62,-38.22 924.84,-39.74 916.04,-41.28"/>
<polygon fill="#63b8ff" stroke="#63b8ff" points="942.54,-40.22 951.79,-35.06 941.34,-33.32 942.54,-40.22"/>
</a>
</g>
</g>
<!-- Node9 -->
<g id="Node000009" class="node">
<title>Node9</title>
<g id="a_Node000009"><a xlink:href="group__sensor__api.html#ga9e55a3f509c447e659b6f1c0b1b3a367" target="_top" xlink:title="This internal frunction is used to update magnetometer offset and sensitivity data.">
<polygon fill="white" stroke="#666666" points="912,-19 789,-19 789,0 912,0 912,-19"/>
<text text-anchor="middle" x="850.5" y="-7" font-family="Helvetica,sans-Serif" font-size="10.00">update_mag_off_sens</text>
</a>
</g>
</g>
<!-- Node1&#45;&gt;Node9 -->
<g id="edge8_Node000001_Node000009" class="edge">
<title>Node1&#45;&gt;Node9</title>
<g id="a_edge8_Node000001_Node000009"><a xlink:title=" ">
<path fill="none" stroke="#63b8ff" d="M941.63,-24.46C931.43,-22.77 920.08,-20.88 908.97,-19.04"/>
<polygon fill="#63b8ff" stroke="#63b8ff" points="941.35,-27.96 951.79,-26.15 942.5,-21.06 941.35,-27.96"/>
</a>
</g>
</g>
<!-- Node3 -->
<g id="Node000003" class="node">
<title>Node3</title>
<g id="a_Node000003"><a xlink:href="group__sensor__api.html#ga91a3a98a720e9061b94ed3fb0f75a05b" target="_top" xlink:title="This internal function is used to read uncompensated raw magnetic x,y and z axis along with temperatu...">
<polygon fill="white" stroke="#666666" points="744,-62 634,-62 634,-43 744,-43 744,-62"/>
<text text-anchor="middle" x="689" y="-50" font-family="Helvetica,sans-Serif" font-size="10.00">read_out_raw_data</text>
</a>
</g>
</g>
<!-- Node2&#45;&gt;Node3 -->
<g id="edge2_Node000002_Node000003" class="edge">
<title>Node2&#45;&gt;Node3</title>
<g id="a_edge2_Node000002_Node000003"><a xlink:title=" ">
<path fill="none" stroke="#63b8ff" d="M774.45,-52.5C764.21,-52.5 753.88,-52.5 744.11,-52.5"/>
<polygon fill="#63b8ff" stroke="#63b8ff" points="774.63,-56 784.63,-52.5 774.63,-49 774.63,-56"/>
</a>
</g>
</g>
<!-- Node4 -->
<g id="Node000004" class="node">
<title>Node4</title>
<g id="a_Node000004"><a xlink:href="group__sensor__api.html#ga072f77061f2d28f8b93181aac9890a87" target="_top" xlink:title="This internal function is used to perform compensation calculations for raw magnetometer and temperat...">
<polygon fill="white" stroke="#666666" points="593,-67.5 441,-67.5 441,-37.5 593,-37.5 593,-67.5"/>
<text text-anchor="start" x="449" y="-55.5" font-family="Helvetica,sans-Serif" font-size="10.00">bmm350_get_compensated</text>
<text text-anchor="middle" x="517" y="-44.5" font-family="Helvetica,sans-Serif" font-size="10.00">_mag_xyz_temp_data</text>
</a>
</g>
</g>
<!-- Node3&#45;&gt;Node4 -->
<g id="edge3_Node000003_Node000004" class="edge">
<title>Node3&#45;&gt;Node4</title>
<g id="a_edge3_Node000003_Node000004"><a xlink:title=" ">
<path fill="none" stroke="#63b8ff" d="M623.55,-52.5C613.61,-52.5 603.27,-52.5 593.13,-52.5"/>
<polygon fill="#63b8ff" stroke="#63b8ff" points="623.74,-56 633.74,-52.5 623.74,-49 623.74,-56"/>
</a>
</g>
</g>
<!-- Node5 -->
<g id="Node000005" class="node">
<title>Node5</title>
<g id="a_Node000005"><a xlink:href="group__sensor__api.html#gae42e76e9e743d998bbdb637a03352b7d" target="_top" xlink:title="this function checks the drdy_data_reg (0x30) data ready interrupt then returns the status of the reg...">
<polygon fill="white" stroke="#666666" points="394.5,-61 334.5,-61 334.5,-42 394.5,-42 394.5,-61"/>
<text text-anchor="middle" x="364.5" y="-49" font-family="Helvetica,sans-Serif" font-size="10.00">read_intr</text>
</a>
</g>
</g>
<!-- Node4&#45;&gt;Node5 -->
<g id="edge4_Node000004_Node000005" class="edge">
<title>Node4&#45;&gt;Node5</title>
<g id="a_edge4_Node000004_Node000005"><a xlink:title=" ">
<path fill="none" stroke="#63b8ff" d="M430.75,-51.93C417.73,-51.85 405.12,-51.76 394.52,-51.69"/>
<polygon fill="#63b8ff" stroke="#63b8ff" points="430.73,-55.43 440.75,-52 430.77,-48.43 430.73,-55.43"/>
</a>
</g>
</g>
<!-- Node6 -->
<g id="Node000006" class="node">
<title>Node6</title>
<g id="a_Node000006"><a xlink:href="group__sensor__api.html#gae1c1a63d4a6fe6c7804473250ac24eee" target="_top" xlink:title="This function is used to get yaw value.">
<polygon fill="white" stroke="#666666" points="288,-61 175,-61 175,-42 288,-42 288,-61"/>
<text text-anchor="middle" x="231.5" y="-49" font-family="Helvetica,sans-Serif" font-size="10.00">bmm350_read_yaw</text>
</a>
</g>
</g>
<!-- Node5&#45;&gt;Node6 -->
<g id="edge5_Node000005_Node000006" class="edge">
<title>Node5&#45;&gt;Node6</title>
<g id="a_edge5_Node000005_Node000006"><a xlink:title=" ">
<path fill="none" stroke="#63b8ff" d="M324.37,-51.5C312.98,-51.5 300.31,-51.5 288.11,-51.5"/>
<polygon fill="#63b8ff" stroke="#63b8ff" points="324.43,-55 334.43,-51.5 324.43,-48 324.43,-55"/>
</a>
</g>
</g>
<!-- Node7 -->
<g id="Node000007" class="node">
<title>Node7</title>
<g id="a_Node000007"><a xlink:href="main_8c.html#a282fee6b81618368a41e8ba4e575f62e" target="_top" xlink:title=" ">
<polygon fill="white" stroke="#666666" points="139,-41 77,-41 77,-22 139,-22 139,-41"/>
<text text-anchor="middle" x="108" y="-29" font-family="Helvetica,sans-Serif" font-size="10.00">MainTask</text>
</a>
</g>
</g>
<!-- Node6&#45;&gt;Node7 -->
<g id="edge6_Node000006_Node000007" class="edge">
<title>Node6&#45;&gt;Node7</title>
<g id="a_edge6_Node000006_Node000007"><a xlink:title=" ">
<path fill="none" stroke="#63b8ff" d="M164.68,-40.67C155.8,-39.2 147.06,-37.76 139.23,-36.48"/>
<polygon fill="#63b8ff" stroke="#63b8ff" points="164.29,-44.15 174.73,-42.32 165.43,-37.24 164.29,-44.15"/>
</a>
</g>
</g>
<!-- Node8 -->
<g id="Node000008" class="node">
<title>Node8</title>
<g id="a_Node000008"><a xlink:href="main_8c.html#a840291bc02cba5474a4cb46a9b9566fe" target="_top" xlink:title=" ">
<polygon fill="white" stroke="#666666" points="41,-41 0,-41 0,-22 41,-22 41,-41"/>
<text text-anchor="middle" x="20.5" y="-29" font-family="Helvetica,sans-Serif" font-size="10.00">main</text>
</a>
</g>
</g>
<!-- Node7&#45;&gt;Node8 -->
<g id="edge7_Node000007_Node000008" class="edge">
<title>Node7&#45;&gt;Node8</title>
<g id="a_edge7_Node000007_Node000008"><a xlink:title=" ">
<path fill="none" stroke="#63b8ff" d="M66.42,-31.5C57.6,-31.5 48.67,-31.5 41.11,-31.5"/>
<polygon fill="#63b8ff" stroke="#63b8ff" points="66.62,-35 76.62,-31.5 66.62,-28 66.62,-35"/>
</a>
</g>
</g>
<!-- Node10 -->
<g id="Node000010" class="node">
<title>Node10</title>
<g id="a_Node000010"><a xlink:href="group__sensor__api.html#ga2cf75153d40498769db298ba34a15d0e" target="_top" xlink:title=": This internal function is used to read OTP data after boot in user mode.">
<polygon fill="white" stroke="#666666" points="749,-19 629,-19 629,0 749,0 749,-19"/>
<text text-anchor="middle" x="689" y="-7" font-family="Helvetica,sans-Serif" font-size="10.00">otp_dump_after_boot</text>
</a>
</g>
</g>
<!-- Node9&#45;&gt;Node10 -->
<g id="edge9_Node000009_Node000010" class="edge">
<title>Node9&#45;&gt;Node10</title>
<g id="a_edge9_Node000009_Node000010"><a xlink:title=" ">
<path fill="none" stroke="#63b8ff" d="M778.55,-9.5C768.68,-9.5 758.63,-9.5 749.01,-9.5"/>
<polygon fill="#63b8ff" stroke="#63b8ff" points="778.74,-13 788.74,-9.5 778.74,-6 778.74,-13"/>
</a>
</g>
</g>
<!-- Node11 -->
<g id="Node000011" class="node">
<title>Node11</title>
<g id="a_Node000011"><a xlink:href="group__sensor__api.html#gadc0b3dcb4a399bb38273981b2d47e697" target="_top" xlink:title="This function to initialize the BMM350 registers and enable Normal Mode.">
<polygon fill="white" stroke="#666666" points="405,-21 324,-21 324,-2 405,-2 405,-21"/>
<text text-anchor="middle" x="364.5" y="-9" font-family="Helvetica,sans-Serif" font-size="10.00">bmm350_init</text>
</a>
</g>
</g>
<!-- Node10&#45;&gt;Node11 -->
<g id="edge10_Node000010_Node000011" class="edge">
<title>Node10&#45;&gt;Node11</title>
<g id="a_edge10_Node000010_Node000011"><a xlink:title=" ">
<path fill="none" stroke="#63b8ff" d="M618.68,-9.93C553.65,-10.33 458.66,-10.92 405.44,-11.25"/>
<polygon fill="#63b8ff" stroke="#63b8ff" points="618.87,-13.43 628.85,-9.87 618.83,-6.43 618.87,-13.43"/>
</a>
</g>
</g>
<!-- Node11&#45;&gt;Node7 -->
<g id="edge11_Node000011_Node000007" class="edge">
<title>Node11&#45;&gt;Node7</title>
<g id="a_edge11_Node000011_Node000007"><a xlink:title=" ">
<path fill="none" stroke="#63b8ff" d="M313.76,-15.41C261.94,-19.48 182.43,-25.73 139.32,-29.12"/>
<polygon fill="#63b8ff" stroke="#63b8ff" points="314.04,-18.9 323.73,-14.62 313.49,-11.92 314.04,-18.9"/>
</a>
</g>
</g>
</g>
</svg>
