<?xml version="1.0" encoding="UTF-8" standalone="no"?>
<!DOCTYPE svg PUBLIC "-//W3C//DTD SVG 1.1//EN"
 "http://www.w3.org/Graphics/SVG/1.1/DTD/svg11.dtd">
<!-- Generated by graphviz version 2.43.0 (0)
 -->
<!-- Title: bmm350_get_compensated_mag_xyz_temp_data Pages: 1 -->
<svg width="583pt" height="76pt"
 viewBox="0.00 0.00 583.00 75.50" xmlns="http://www.w3.org/2000/svg" xmlns:xlink="http://www.w3.org/1999/xlink">
<g id="graph0" class="graph" transform="scale(1 1) rotate(0) translate(4 71.5)">
<title>bmm350_get_compensated_mag_xyz_temp_data</title>
<!-- Node1 -->
<g id="Node000001" class="node">
<title>Node1</title>
<g id="a_Node000001"><a xlink:title="This internal function is used to perform compensation calculations for raw magnetometer and temperat...">
<polygon fill="#999999" stroke="#666666" points="152,-45.5 0,-45.5 0,-15.5 152,-15.5 152,-45.5"/>
<text text-anchor="start" x="8" y="-33.5" font-family="Helvetica,sans-Serif" font-size="10.00">bmm350_get_compensated</text>
<text text-anchor="middle" x="76" y="-22.5" font-family="Helvetica,sans-Serif" font-size="10.00">_mag_xyz_temp_data</text>
</a>
</g>
</g>
<!-- Node2 -->
<g id="Node000002" class="node">
<title>Node2</title>
<g id="a_Node000002"><a xlink:href="group__sensor__api.html#ga91a3a98a720e9061b94ed3fb0f75a05b" target="_top" xlink:title="This internal function is used to read uncompensated raw magnetic x,y and z axis along with temperatu...">
<polygon fill="white" stroke="#666666" points="298,-40 188,-40 188,-21 298,-21 298,-40"/>
<text text-anchor="middle" x="243" y="-28" font-family="Helvetica,sans-Serif" font-size="10.00">read_out_raw_data</text>
</a>
</g>
</g>
<!-- Node1&#45;&gt;Node2 -->
<g id="edge1_Node000001_Node000002" class="edge">
<title>Node1&#45;&gt;Node2</title>
<g id="a_edge1_Node000001_Node000002"><a xlink:title=" ">
<path fill="none" stroke="#63b8ff" d="M152.26,-30.5C160.62,-30.5 169.09,-30.5 177.31,-30.5"/>
<polygon fill="#63b8ff" stroke="#63b8ff" points="177.56,-34 187.56,-30.5 177.56,-27 177.56,-34"/>
</a>
</g>
</g>
<!-- Node3 -->
<g id="Node000003" class="node">
<title>Node3</title>
<g id="a_Node000003"><a xlink:href="group__sensor__api.html#ga90f5ad40d27ae8036b2475fe285901a1" target="_top" xlink:title="This function is used to read (ADC) mag and temperature data.">
<polygon fill="white" stroke="#666666" points="475,-67.5 344,-67.5 344,-37.5 475,-37.5 475,-67.5"/>
<text text-anchor="start" x="352" y="-55.5" font-family="Helvetica,sans-Serif" font-size="10.00">bmm350_read_uncomp</text>
<text text-anchor="middle" x="409.5" y="-44.5" font-family="Helvetica,sans-Serif" font-size="10.00">_mag_temp_data</text>
</a>
</g>
</g>
<!-- Node2&#45;&gt;Node3 -->
<g id="edge2_Node000002_Node000003" class="edge">
<title>Node2&#45;&gt;Node3</title>
<g id="a_edge2_Node000002_Node000003"><a xlink:title=" ">
<path fill="none" stroke="#63b8ff" d="M298.32,-37.76C309.72,-39.29 321.94,-40.92 333.94,-42.53"/>
<polygon fill="#63b8ff" stroke="#63b8ff" points="333.57,-46.01 343.95,-43.87 334.5,-39.07 333.57,-46.01"/>
</a>
</g>
</g>
<!-- Node5 -->
<g id="Node000005" class="node">
<title>Node5</title>
<g id="a_Node000005"><a xlink:href="group__sensor__api.html#ga805428fdfd31395afb20fced06b8d680" target="_top" xlink:title="This internal function is used to update uncompensated lsb data to uT and degC.">
<polygon fill="white" stroke="#666666" points="485,-19 334,-19 334,0 485,0 485,-19"/>
<text text-anchor="middle" x="409.5" y="-7" font-family="Helvetica,sans-Serif" font-size="10.00">update_default_coefiecents</text>
</a>
</g>
</g>
<!-- Node2&#45;&gt;Node5 -->
<g id="edge4_Node000002_Node000005" class="edge">
<title>Node2&#45;&gt;Node5</title>
<g id="a_edge4_Node000002_Node000005"><a xlink:title=" ">
<path fill="none" stroke="#63b8ff" d="M298.32,-23.57C306.53,-22.52 315.15,-21.42 323.82,-20.31"/>
<polygon fill="#63b8ff" stroke="#63b8ff" points="324.5,-23.75 333.98,-19.01 323.62,-16.81 324.5,-23.75"/>
</a>
</g>
</g>
<!-- Node4 -->
<g id="Node000004" class="node">
<title>Node4</title>
<g id="a_Node000004"><a xlink:href="group__sensor__api.html#gaa33f4de6a84f0a1c8582626cb6c1a28f" target="_top" xlink:title=": This function converts the ADC data from the BMM350 data registers to 32&#45;bit signed integer.">
<polygon fill="white" stroke="#666666" points="575,-62 521,-62 521,-43 575,-43 575,-62"/>
<text text-anchor="middle" x="548" y="-50" font-family="Helvetica,sans-Serif" font-size="10.00">fix_sign</text>
</a>
</g>
</g>
<!-- Node3&#45;&gt;Node4 -->
<g id="edge3_Node000003_Node000004" class="edge">
<title>Node3&#45;&gt;Node4</title>
<g id="a_edge3_Node000003_Node000004"><a xlink:title=" ">
<path fill="none" stroke="#63b8ff" d="M475.15,-52.5C487.37,-52.5 499.75,-52.5 510.7,-52.5"/>
<polygon fill="#63b8ff" stroke="#63b8ff" points="510.72,-56 520.72,-52.5 510.72,-49 510.72,-56"/>
</a>
</g>
</g>
</g>
</svg>
