<?xml version="1.0" encoding="UTF-8" standalone="no"?>
<!DOCTYPE svg PUBLIC "-//W3C//DTD SVG 1.1//EN"
 "http://www.w3.org/Graphics/SVG/1.1/DTD/svg11.dtd">
<!-- Generated by graphviz version 2.43.0 (0)
 -->
<!-- Title: bmm350_init Pages: 1 -->
<svg width="715pt" height="418pt"
 viewBox="0.00 0.00 715.00 418.00" xmlns="http://www.w3.org/2000/svg" xmlns:xlink="http://www.w3.org/1999/xlink">
<g id="graph0" class="graph" transform="scale(1 1) rotate(0) translate(4 414)">
<title>bmm350_init</title>
<!-- Node1 -->
<g id="Node000001" class="node">
<title>Node1</title>
<g id="a_Node000001"><a xlink:title="This function to initialize the BMM350 registers and enable Normal Mode.">
<polygon fill="#999999" stroke="#666666" points="81,-186 0,-186 0,-167 81,-167 81,-186"/>
<text text-anchor="middle" x="40.5" y="-174" font-family="Helvetica,sans-Serif" font-size="10.00">bmm350_init</text>
</a>
</g>
</g>
<!-- Node2 -->
<g id="Node000002" class="node">
<title>Node2</title>
<g id="a_Node000002"><a xlink:href="group__user__internal.html#ga8b94b8f6dfd15fcb4c38f2ea34c79ae4" target="_top" xlink:title="This function gets the PMU command status 0 register (0x07) and PMU command status 1 register (0x08) ...">
<polygon fill="white" stroke="#666666" points="432.5,-294.5 298.5,-294.5 298.5,-264.5 432.5,-264.5 432.5,-294.5"/>
<text text-anchor="start" x="306.5" y="-282.5" font-family="Helvetica,sans-Serif" font-size="10.00">bmm350_get_pmu_cmd</text>
<text text-anchor="middle" x="365.5" y="-271.5" font-family="Helvetica,sans-Serif" font-size="10.00">_status</text>
</a>
</g>
</g>
<!-- Node1&#45;&gt;Node2 -->
<g id="edge1_Node000001_Node000002" class="edge">
<title>Node1&#45;&gt;Node2</title>
<g id="a_edge1_Node000001_Node000002"><a xlink:title=" ">
<path fill="none" stroke="#63b8ff" d="M56.89,-186.06C71.8,-194.97 95.27,-208.12 117,-216.5 172.83,-238.04 238.57,-254.38 288.27,-265.01"/>
<polygon fill="#63b8ff" stroke="#63b8ff" points="287.79,-268.49 298.3,-267.13 289.24,-261.64 287.79,-268.49"/>
</a>
</g>
</g>
<!-- Node3 -->
<g id="Node000003" class="node">
<title>Node3</title>
<g id="a_Node000003"><a xlink:href="group__internal.html#gaf0d2cb8fdf5e0a70d975e96f2366726e" target="_top" xlink:title="This function initialize the BMM350 device structure and the adaptive filter.">
<polygon fill="white" stroke="#666666" points="422.5,-239 308.5,-239 308.5,-220 422.5,-220 422.5,-239"/>
<text text-anchor="middle" x="365.5" y="-227" font-family="Helvetica,sans-Serif" font-size="10.00">bmm350_init_struct</text>
</a>
</g>
</g>
<!-- Node1&#45;&gt;Node3 -->
<g id="edge2_Node000001_Node000003" class="edge">
<title>Node1&#45;&gt;Node3</title>
<g id="a_edge2_Node000001_Node000003"><a xlink:title=" ">
<path fill="none" stroke="#63b8ff" d="M81.04,-184.04C92.62,-186.19 105.31,-188.49 117,-190.5 178.37,-201.02 248.49,-211.97 298.38,-219.58"/>
<polygon fill="#63b8ff" stroke="#63b8ff" points="297.99,-223.06 308.4,-221.1 299.04,-216.14 297.99,-223.06"/>
</a>
</g>
</g>
<!-- Node5 -->
<g id="Node000005" class="node">
<title>Node5</title>
<g id="a_Node000005"><a xlink:href="group__internal.html#ga3fa3449c50ffe2d91fd5f1c127892356" target="_top" xlink:title=": This internal function* is used to validate the device structure pointer for null conditions.">
<polygon fill="white" stroke="#666666" points="707,-296 620,-296 620,-277 707,-277 707,-296"/>
<text text-anchor="middle" x="663.5" y="-284" font-family="Helvetica,sans-Serif" font-size="10.00">null_ptr_check</text>
</a>
</g>
</g>
<!-- Node1&#45;&gt;Node5 -->
<g id="edge19_Node000001_Node000005" class="edge">
<title>Node1&#45;&gt;Node5</title>
<g id="a_edge19_Node000001_Node000005"><a xlink:title=" ">
<path fill="none" stroke="#63b8ff" d="M81.09,-173.44C190.65,-165.61 495.62,-148.38 584,-191.5 617.16,-207.68 641.27,-245.18 653.48,-267.93"/>
<polygon fill="#63b8ff" stroke="#63b8ff" points="650.42,-269.64 658.1,-276.94 656.65,-266.45 650.42,-269.64"/>
</a>
</g>
</g>
<!-- Node7 -->
<g id="Node000007" class="node">
<title>Node7</title>
<g id="a_Node000007"><a xlink:href="group__user.html#gad144c7b4fcd5e9f22b261b1d3ee9b1fa" target="_top" xlink:title="Performs a magnetic reset of the BMM350 sensor. This is necessary when: The sensor may have been expo...">
<polygon fill="white" stroke="#666666" points="258,-329.5 117,-329.5 117,-299.5 258,-299.5 258,-329.5"/>
<text text-anchor="start" x="125" y="-317.5" font-family="Helvetica,sans-Serif" font-size="10.00">bmm350_magnetic_reset</text>
<text text-anchor="middle" x="187.5" y="-306.5" font-family="Helvetica,sans-Serif" font-size="10.00">_and_wait</text>
</a>
</g>
</g>
<!-- Node1&#45;&gt;Node7 -->
<g id="edge8_Node000001_Node000007" class="edge">
<title>Node1&#45;&gt;Node7</title>
<g id="a_edge8_Node000001_Node000007"><a xlink:title=" ">
<path fill="none" stroke="#63b8ff" d="M45.77,-186.02C55.52,-206.81 81.38,-256.69 117,-285.5 121.26,-288.94 125.98,-292.04 130.9,-294.8"/>
<polygon fill="#63b8ff" stroke="#63b8ff" points="129.43,-297.98 139.93,-299.43 132.63,-291.75 129.43,-297.98"/>
</a>
</g>
</g>
<!-- Node8 -->
<g id="Node000008" class="node">
<title>Node8</title>
<g id="a_Node000008"><a xlink:href="group__user__internal.html#ga29af58551105e397e6a05e91f3e05aa1" target="_top" xlink:title="This function is used to set the power mode of the sensor.">
<polygon fill="white" stroke="#666666" points="437,-372 294,-372 294,-353 437,-353 437,-372"/>
<text text-anchor="middle" x="365.5" y="-360" font-family="Helvetica,sans-Serif" font-size="10.00">bmm350_set_powermode</text>
</a>
</g>
</g>
<!-- Node1&#45;&gt;Node8 -->
<g id="edge16_Node000001_Node000008" class="edge">
<title>Node1&#45;&gt;Node8</title>
<g id="a_edge16_Node000001_Node000008"><a xlink:title=" ">
<path fill="none" stroke="#63b8ff" d="M42.72,-186.25C46.92,-215.15 63.55,-300.69 117,-338.5 169.15,-375.39 243.7,-377.65 297.33,-372.99"/>
<polygon fill="#63b8ff" stroke="#63b8ff" points="297.81,-376.46 307.43,-372.01 297.14,-369.5 297.81,-376.46"/>
</a>
</g>
</g>
<!-- Node10 -->
<g id="Node000010" class="node">
<title>Node10</title>
<g id="a_Node000010"><a xlink:href="group__internal.html#ga2ab089a6f332be8164468ab654caa077" target="_top" xlink:title="This internal function configures the odr (Output Data Rate) and avg (Measurements Averages) in regis...">
<polygon fill="white" stroke="#666666" points="257,-148 118,-148 118,-129 257,-129 257,-148"/>
<text text-anchor="middle" x="187.5" y="-136" font-family="Helvetica,sans-Serif" font-size="10.00">bmm350_odr_avg_config</text>
</a>
</g>
</g>
<!-- Node1&#45;&gt;Node10 -->
<g id="edge15_Node000001_Node000010" class="edge">
<title>Node1&#45;&gt;Node10</title>
<g id="a_edge15_Node000001_Node000010"><a xlink:title=" ">
<path fill="none" stroke="#63b8ff" d="M78.09,-166.91C96.97,-161.96 120.19,-155.88 140.29,-150.61"/>
<polygon fill="#63b8ff" stroke="#63b8ff" points="141.39,-153.94 150.17,-148.02 139.61,-147.17 141.39,-153.94"/>
</a>
</g>
</g>
<!-- Node11 -->
<g id="Node000011" class="node">
<title>Node11</title>
<g id="a_Node000011"><a xlink:href="group__user__internal.html#gadcb32b687a9a607733c245838dc1063e" target="_top" xlink:title="This function checks I2C communication status.">
<polygon fill="white" stroke="#666666" points="229,-111 146,-111 146,-92 229,-92 229,-111"/>
<text text-anchor="middle" x="187.5" y="-99" font-family="Helvetica,sans-Serif" font-size="10.00">check_device</text>
</a>
</g>
</g>
<!-- Node1&#45;&gt;Node11 -->
<g id="edge17_Node000001_Node000011" class="edge">
<title>Node1&#45;&gt;Node11</title>
<g id="a_edge17_Node000001_Node000011"><a xlink:title=" ">
<path fill="none" stroke="#63b8ff" d="M51.39,-166.96C65.05,-154.3 90.97,-132.07 117,-119.5 123.03,-116.59 129.6,-114.1 136.2,-112"/>
<polygon fill="#63b8ff" stroke="#63b8ff" points="137.23,-115.34 145.85,-109.17 135.27,-108.62 137.23,-115.34"/>
</a>
</g>
</g>
<!-- Node12 -->
<g id="Node000012" class="node">
<title>Node12</title>
<g id="a_Node000012"><a xlink:href="group__internal.html#ga2bbcdef34d88b58cf90bcd1b96caf3b5" target="_top" xlink:title="This function initialize the device structure and configures the INT_CTRL register (0x2E)">
<polygon fill="white" stroke="#666666" points="234,-74 141,-74 141,-55 234,-55 234,-74"/>
<text text-anchor="middle" x="187.5" y="-62" font-family="Helvetica,sans-Serif" font-size="10.00">interrupt_config</text>
</a>
</g>
</g>
<!-- Node1&#45;&gt;Node12 -->
<g id="edge18_Node000001_Node000012" class="edge">
<title>Node1&#45;&gt;Node12</title>
<g id="a_edge18_Node000001_Node000012"><a xlink:title=" ">
<path fill="none" stroke="#63b8ff" d="M46.48,-166.81C56.86,-147.6 82.72,-104.66 117,-82.5 121.4,-79.66 126.23,-77.26 131.23,-75.24"/>
<polygon fill="#63b8ff" stroke="#63b8ff" points="132.72,-78.43 140.99,-71.81 130.39,-71.83 132.72,-78.43"/>
</a>
</g>
</g>
<!-- Node13 -->
<g id="Node000013" class="node">
<title>Node13</title>
<g id="a_Node000013"><a xlink:href="group__internal.html#ga2cf75153d40498769db298ba34a15d0e" target="_top" xlink:title=": This internal function is used to read OTP data after boot in user mode.">
<polygon fill="white" stroke="#666666" points="247.5,-37 127.5,-37 127.5,-18 247.5,-18 247.5,-37"/>
<text text-anchor="middle" x="187.5" y="-25" font-family="Helvetica,sans-Serif" font-size="10.00">otp_dump_after_boot</text>
</a>
</g>
</g>
<!-- Node1&#45;&gt;Node13 -->
<g id="edge20_Node000001_Node000013" class="edge">
<title>Node1&#45;&gt;Node13</title>
<g id="a_edge20_Node000001_Node000013"><a xlink:title=" ">
<path fill="none" stroke="#63b8ff" d="M44.2,-166.86C51.53,-142.49 74.18,-78.1 117,-45.5 118.81,-44.12 120.72,-42.84 122.7,-41.67"/>
<polygon fill="#63b8ff" stroke="#63b8ff" points="124.42,-44.72 131.78,-37.1 121.28,-38.47 124.42,-44.72"/>
</a>
</g>
</g>
<!-- Node4 -->
<g id="Node000004" class="node">
<title>Node4</title>
<g id="a_Node000004"><a xlink:href="group__user__internal.html#ga72d6f07d31b60e050c8aa62086737aab" target="_top" xlink:title="This function is used to read a register from the BMM350 sensor.">
<polygon fill="white" stroke="#666666" points="582.5,-296 474.5,-296 474.5,-277 582.5,-277 582.5,-296"/>
<text text-anchor="middle" x="528.5" y="-284" font-family="Helvetica,sans-Serif" font-size="10.00">bmm350_I2C_read</text>
</a>
</g>
</g>
<!-- Node3&#45;&gt;Node4 -->
<g id="edge3_Node000003_Node000004" class="edge">
<title>Node3&#45;&gt;Node4</title>
<g id="a_edge3_Node000003_Node000004"><a xlink:title=" ">
<path fill="none" stroke="#63b8ff" d="M393.45,-239.04C420.15,-248.49 461.24,-263.04 490.89,-273.54"/>
<polygon fill="#63b8ff" stroke="#63b8ff" points="489.87,-276.89 500.46,-276.93 492.21,-270.29 489.87,-276.89"/>
</a>
</g>
</g>
<!-- Node3&#45;&gt;Node5 -->
<g id="edge7_Node000003_Node000005" class="edge">
<title>Node3&#45;&gt;Node5</title>
<g id="a_edge7_Node000003_Node000005"><a xlink:title=" ">
<path fill="none" stroke="#63b8ff" d="M422.52,-238.78C466.53,-246.26 529.31,-257.33 584,-268.5 593.35,-270.41 603.3,-272.58 612.86,-274.74"/>
<polygon fill="#63b8ff" stroke="#63b8ff" points="612.12,-278.16 622.65,-276.97 613.67,-271.33 612.12,-278.16"/>
</a>
</g>
</g>
<!-- Node6 -->
<g id="Node000006" class="node">
<title>Node6</title>
<g id="a_Node000006"><a xlink:href="group__user__internal.html#ga1de7d1421454a2345f94c9c05846496c" target="_top" xlink:title="This function is used to write data to a register in the BMM350 sensor.">
<polygon fill="white" stroke="#666666" points="584,-220 473,-220 473,-201 584,-201 584,-220"/>
<text text-anchor="middle" x="528.5" y="-208" font-family="Helvetica,sans-Serif" font-size="10.00">bmm350_I2C_write</text>
</a>
</g>
</g>
<!-- Node3&#45;&gt;Node6 -->
<g id="edge5_Node000003_Node000006" class="edge">
<title>Node3&#45;&gt;Node6</title>
<g id="a_edge5_Node000003_Node000006"><a xlink:title=" ">
<path fill="none" stroke="#63b8ff" d="M422.81,-222.85C435.74,-221.33 449.6,-219.69 462.85,-218.13"/>
<polygon fill="#63b8ff" stroke="#63b8ff" points="463.33,-221.6 472.85,-216.95 462.51,-214.65 463.33,-221.6"/>
</a>
</g>
</g>
<!-- Node4&#45;&gt;Node5 -->
<g id="edge4_Node000004_Node000005" class="edge">
<title>Node4&#45;&gt;Node5</title>
<g id="a_edge4_Node000004_Node000005"><a xlink:title=" ">
<path fill="none" stroke="#63b8ff" d="M582.83,-286.5C591.66,-286.5 600.81,-286.5 609.63,-286.5"/>
<polygon fill="#63b8ff" stroke="#63b8ff" points="609.79,-290 619.79,-286.5 609.79,-283 609.79,-290"/>
</a>
</g>
</g>
<!-- Node6&#45;&gt;Node5 -->
<g id="edge6_Node000006_Node000005" class="edge">
<title>Node6&#45;&gt;Node5</title>
<g id="a_edge6_Node000006_Node000005"><a xlink:title=" ">
<path fill="none" stroke="#63b8ff" d="M553.53,-220.04C563.18,-224.13 574.29,-229.2 584,-234.5 604.15,-245.51 625.81,-260.09 641.27,-271.01"/>
<polygon fill="#63b8ff" stroke="#63b8ff" points="639.42,-273.99 649.59,-276.96 643.5,-268.29 639.42,-273.99"/>
</a>
</g>
</g>
<!-- Node7&#45;&gt;Node2 -->
<g id="edge9_Node000007_Node000002" class="edge">
<title>Node7&#45;&gt;Node2</title>
<g id="a_edge9_Node000007_Node000002"><a xlink:title=" ">
<path fill="none" stroke="#63b8ff" d="M258.06,-300.67C268,-298.69 278.28,-296.65 288.34,-294.65"/>
<polygon fill="#63b8ff" stroke="#63b8ff" points="289.19,-298.05 298.31,-292.66 287.82,-291.18 289.19,-298.05"/>
</a>
</g>
</g>
<!-- Node7&#45;&gt;Node5 -->
<g id="edge14_Node000007_Node000005" class="edge">
<title>Node7&#45;&gt;Node5</title>
<g id="a_edge14_Node000007_Node000005"><a xlink:title=" ">
<path fill="none" stroke="#63b8ff" d="M258.14,-317.41C337.42,-319.68 470.61,-320.34 584,-305.5 595.83,-303.95 608.47,-301.33 620.07,-298.53"/>
<polygon fill="#63b8ff" stroke="#63b8ff" points="621.11,-301.88 629.95,-296.04 619.4,-295.09 621.11,-301.88"/>
</a>
</g>
</g>
<!-- Node7&#45;&gt;Node8 -->
<g id="edge10_Node000007_Node000008" class="edge">
<title>Node7&#45;&gt;Node8</title>
<g id="a_edge10_Node000007_Node000008"><a xlink:title=" ">
<path fill="none" stroke="#63b8ff" d="M243.7,-329.56C268.12,-336.21 296.46,-343.94 319.55,-350.24"/>
<polygon fill="#63b8ff" stroke="#63b8ff" points="318.86,-353.68 329.43,-352.94 320.7,-346.93 318.86,-353.68"/>
</a>
</g>
</g>
<!-- Node8&#45;&gt;Node5 -->
<g id="edge11_Node000008_Node000005" class="edge">
<title>Node8&#45;&gt;Node5</title>
<g id="a_edge11_Node000008_Node000005"><a xlink:title=" ">
<path fill="none" stroke="#63b8ff" d="M437.46,-363.06C480.92,-361.38 537.03,-355.51 584,-338.5 606.36,-330.4 628.65,-314.72 643.73,-302.69"/>
<polygon fill="#63b8ff" stroke="#63b8ff" points="646.23,-305.16 651.73,-296.11 641.78,-299.76 646.23,-305.16"/>
</a>
</g>
</g>
<!-- Node9 -->
<g id="Node000009" class="node">
<title>Node9</title>
<g id="a_Node000009"><a xlink:href="group__internal.html#ga26a3e3d11b80083b5f72c060d931728b" target="_top" xlink:title="This function is used to switch from suspend mode to normal mode or forced mode.">
<polygon fill="white" stroke="#666666" points="576,-410 481,-410 481,-391 576,-391 576,-410"/>
<text text-anchor="middle" x="528.5" y="-398" font-family="Helvetica,sans-Serif" font-size="10.00">set_powermode</text>
</a>
</g>
</g>
<!-- Node8&#45;&gt;Node9 -->
<g id="edge12_Node000008_Node000009" class="edge">
<title>Node8&#45;&gt;Node9</title>
<g id="a_edge12_Node000008_Node000009"><a xlink:title=" ">
<path fill="none" stroke="#63b8ff" d="M407.13,-372.09C428.47,-377.13 454.81,-383.34 477.41,-388.68"/>
<polygon fill="#63b8ff" stroke="#63b8ff" points="476.63,-392.09 487.17,-390.98 478.24,-385.28 476.63,-392.09"/>
</a>
</g>
</g>
<!-- Node9&#45;&gt;Node5 -->
<g id="edge13_Node000009_Node000005" class="edge">
<title>Node9&#45;&gt;Node5</title>
<g id="a_edge13_Node000009_Node000005"><a xlink:title=" ">
<path fill="none" stroke="#63b8ff" d="M557.39,-390.99C566.34,-387.23 576,-382.38 584,-376.5 611.68,-356.14 636.43,-324.41 650.43,-304.58"/>
<polygon fill="#63b8ff" stroke="#63b8ff" points="653.45,-306.36 656.25,-296.14 647.69,-302.39 653.45,-306.36"/>
</a>
</g>
</g>
<!-- Node14 -->
<g id="Node000014" class="node">
<title>Node14</title>
<g id="a_Node000014"><a xlink:href="group__internal.html#gac4725a1159ab828d155ad9d7a9acb577" target="_top" xlink:title="This internal function is used to read OTP word.">
<polygon fill="white" stroke="#666666" points="410,-19 321,-19 321,0 410,0 410,-19"/>
<text text-anchor="middle" x="365.5" y="-7" font-family="Helvetica,sans-Serif" font-size="10.00">read_otp_word</text>
</a>
</g>
</g>
<!-- Node13&#45;&gt;Node14 -->
<g id="edge21_Node000013_Node000014" class="edge">
<title>Node13&#45;&gt;Node14</title>
<g id="a_edge21_Node000013_Node000014"><a xlink:title=" ">
<path fill="none" stroke="#63b8ff" d="M247.6,-21.46C268,-19.37 290.75,-17.04 310.71,-15"/>
<polygon fill="#63b8ff" stroke="#63b8ff" points="311.28,-18.46 320.87,-13.96 310.56,-11.5 311.28,-18.46"/>
</a>
</g>
</g>
<!-- Node16 -->
<g id="Node000016" class="node">
<title>Node16</title>
<g id="a_Node000016"><a xlink:href="group__internal.html#ga9e55a3f509c447e659b6f1c0b1b3a367" target="_top" xlink:title="This internal function is used to update magnetometer offset and sensitivity data.">
<polygon fill="white" stroke="#666666" points="427,-56 304,-56 304,-37 427,-37 427,-56"/>
<text text-anchor="middle" x="365.5" y="-44" font-family="Helvetica,sans-Serif" font-size="10.00">update_mag_off_sens</text>
</a>
</g>
</g>
<!-- Node13&#45;&gt;Node16 -->
<g id="edge23_Node000013_Node000016" class="edge">
<title>Node13&#45;&gt;Node16</title>
<g id="a_edge23_Node000013_Node000016"><a xlink:title=" ">
<path fill="none" stroke="#63b8ff" d="M247.6,-33.88C262.42,-35.48 278.48,-37.21 293.81,-38.87"/>
<polygon fill="#63b8ff" stroke="#63b8ff" points="293.44,-42.35 303.76,-39.94 294.19,-35.39 293.44,-42.35"/>
</a>
</g>
</g>
<!-- Node15 -->
<g id="Node000015" class="node">
<title>Node15</title>
<g id="a_Node000015"><a xlink:href="group__internal.html#ga20057caad23a28a66e09535ad5fdf9de" target="_top" xlink:title=": This function handles errors when reading OTP register.">
<polygon fill="white" stroke="#666666" points="573,-19 484,-19 484,0 573,0 573,-19"/>
<text text-anchor="middle" x="528.5" y="-7" font-family="Helvetica,sans-Serif" font-size="10.00">OTP_E_handler</text>
</a>
</g>
</g>
<!-- Node14&#45;&gt;Node15 -->
<g id="edge22_Node000014_Node000015" class="edge">
<title>Node14&#45;&gt;Node15</title>
<g id="a_edge22_Node000014_Node000015"><a xlink:title=" ">
<path fill="none" stroke="#63b8ff" d="M410.07,-9.5C429.67,-9.5 452.99,-9.5 473.67,-9.5"/>
<polygon fill="#63b8ff" stroke="#63b8ff" points="473.9,-13 483.9,-9.5 473.9,-6 473.9,-13"/>
</a>
</g>
</g>
<!-- Node17 -->
<g id="Node000017" class="node">
<title>Node17</title>
<g id="a_Node000017"><a xlink:href="group__internal.html#gaa33f4de6a84f0a1c8582626cb6c1a28f" target="_top" xlink:title=": This function converts the ADC data from the BMM350 data registers to 32&#45;bit signed integer.">
<polygon fill="white" stroke="#666666" points="555.5,-56 501.5,-56 501.5,-37 555.5,-37 555.5,-56"/>
<text text-anchor="middle" x="528.5" y="-44" font-family="Helvetica,sans-Serif" font-size="10.00">fix_sign</text>
</a>
</g>
</g>
<!-- Node16&#45;&gt;Node17 -->
<g id="edge24_Node000016_Node000017" class="edge">
<title>Node16&#45;&gt;Node17</title>
<g id="a_edge24_Node000016_Node000017"><a xlink:title=" ">
<path fill="none" stroke="#63b8ff" d="M427.37,-46.5C448.91,-46.5 472.44,-46.5 491.28,-46.5"/>
<polygon fill="#63b8ff" stroke="#63b8ff" points="491.5,-50 501.5,-46.5 491.5,-43 491.5,-50"/>
</a>
</g>
</g>
</g>
</svg>
