<?xml version="1.0" encoding="UTF-8" standalone="no"?>
<!DOCTYPE svg PUBLIC "-//W3C//DTD SVG 1.1//EN"
 "http://www.w3.org/Graphics/SVG/1.1/DTD/svg11.dtd">
<!-- Generated by graphviz version 2.43.0 (0)
 -->
<!-- Title: adaptive_filter Pages: 1 -->
<svg width="216pt" height="64pt"
 viewBox="0.00 0.00 216.00 64.00" xmlns="http://www.w3.org/2000/svg" xmlns:xlink="http://www.w3.org/1999/xlink">
<g id="graph0" class="graph" transform="scale(1 1) rotate(0) translate(4 60)">
<title>adaptive_filter</title>
<!-- Node1 -->
<g id="Node000001" class="node">
<title>Node1</title>
<g id="a_Node000001"><a xlink:title="This function filters the data of angle got from magnetic readings.">
<polygon fill="#999999" stroke="#666666" points="87,-37 0,-37 0,-18 87,-18 87,-37"/>
<text text-anchor="middle" x="43.5" y="-25" font-family="Helvetica,sans-Serif" font-size="10.00">adaptive_filter</text>
</a>
</g>
</g>
<!-- Node2 -->
<g id="Node000002" class="node">
<title>Node2</title>
<g id="a_Node000002"><a xlink:href="group__internal.html#gab4be8745d812ca6e741eb455f64f3bb7" target="_top" xlink:title="This function smooths the operation of interpolation between angles specially for jumps from 0 to 360...">
<polygon fill="white" stroke="#666666" points="208,-56 123,-56 123,-37 208,-37 208,-56"/>
<text text-anchor="middle" x="165.5" y="-44" font-family="Helvetica,sans-Serif" font-size="10.00">unwrap_angle</text>
</a>
</g>
</g>
<!-- Node1&#45;&gt;Node2 -->
<g id="edge1_Node000001_Node000002" class="edge">
<title>Node1&#45;&gt;Node2</title>
<g id="a_edge1_Node000001_Node000002"><a xlink:title=" ">
<path fill="none" stroke="#63b8ff" d="M87.15,-34.25C95.47,-35.57 104.29,-36.97 112.87,-38.33"/>
<polygon fill="#63b8ff" stroke="#63b8ff" points="112.37,-41.79 122.8,-39.9 113.47,-34.88 112.37,-41.79"/>
</a>
</g>
</g>
<!-- Node3 -->
<g id="Node000003" class="node">
<title>Node3</title>
<g id="a_Node000003"><a xlink:href="group__internal.html#ga9a1cd3e3a0329e310eba39d7df534c55" target="_top" xlink:title="This function wrapes the angle input to make sure it is between 0 and 360 degrees.">
<polygon fill="white" stroke="#666666" points="197.5,-19 133.5,-19 133.5,0 197.5,0 197.5,-19"/>
<text text-anchor="middle" x="165.5" y="-7" font-family="Helvetica,sans-Serif" font-size="10.00">wrap_360</text>
</a>
</g>
</g>
<!-- Node1&#45;&gt;Node3 -->
<g id="edge2_Node000001_Node000003" class="edge">
<title>Node1&#45;&gt;Node3</title>
<g id="a_edge2_Node000001_Node000003"><a xlink:title=" ">
<path fill="none" stroke="#63b8ff" d="M87.15,-21.1C98.92,-19.34 111.67,-17.42 123.36,-15.67"/>
<polygon fill="#63b8ff" stroke="#63b8ff" points="123.94,-19.12 133.31,-14.18 122.9,-12.2 123.94,-19.12"/>
</a>
</g>
</g>
</g>
</svg>
