<?xml version="1.0" encoding="UTF-8" standalone="no"?>
<!DOCTYPE svg PUBLIC "-//W3C//DTD SVG 1.1//EN"
 "http://www.w3.org/Graphics/SVG/1.1/DTD/svg11.dtd">
<!-- Generated by graphviz version 2.43.0 (0)
 -->
<!-- Title: update_default_coefiecents Pages: 1 -->
<svg width="913pt" height="38pt"
 viewBox="0.00 0.00 913.00 38.00" xmlns="http://www.w3.org/2000/svg" xmlns:xlink="http://www.w3.org/1999/xlink">
<g id="graph0" class="graph" transform="scale(1 1) rotate(0) translate(4 34)">
<title>update_default_coefiecents</title>
<!-- Node1 -->
<g id="Node000001" class="node">
<title>Node1</title>
<g id="a_Node000001"><a xlink:title="This internal function is used to update uncompensated lsb data to uT and degC.">
<polygon fill="#999999" stroke="#666666" points="905,-24.5 754,-24.5 754,-5.5 905,-5.5 905,-24.5"/>
<text text-anchor="middle" x="829.5" y="-12.5" font-family="Helvetica,sans-Serif" font-size="10.00">update_default_coefiecents</text>
</a>
</g>
</g>
<!-- Node2 -->
<g id="Node000002" class="node">
<title>Node2</title>
<g id="a_Node000002"><a xlink:href="group__sensor__api.html#ga91a3a98a720e9061b94ed3fb0f75a05b" target="_top" xlink:title="This internal function is used to read uncompensated raw magnetic x,y and z axis along with temperatu...">
<polygon fill="white" stroke="#666666" points="718,-24.5 608,-24.5 608,-5.5 718,-5.5 718,-24.5"/>
<text text-anchor="middle" x="663" y="-12.5" font-family="Helvetica,sans-Serif" font-size="10.00">read_out_raw_data</text>
</a>
</g>
</g>
<!-- Node1&#45;&gt;Node2 -->
<g id="edge1_Node000001_Node000002" class="edge">
<title>Node1&#45;&gt;Node2</title>
<g id="a_edge1_Node000001_Node000002"><a xlink:title=" ">
<path fill="none" stroke="#63b8ff" d="M743.74,-15C735.03,-15 726.36,-15 718.12,-15"/>
<polygon fill="#63b8ff" stroke="#63b8ff" points="743.95,-18.5 753.95,-15 743.95,-11.5 743.95,-18.5"/>
</a>
</g>
</g>
<!-- Node3 -->
<g id="Node000003" class="node">
<title>Node3</title>
<g id="a_Node000003"><a xlink:href="group__sensor__api.html#ga072f77061f2d28f8b93181aac9890a87" target="_top" xlink:title="This internal function is used to perform compensation calculations for raw magnetometer and temperat...">
<polygon fill="white" stroke="#666666" points="572,-30 420,-30 420,0 572,0 572,-30"/>
<text text-anchor="start" x="428" y="-18" font-family="Helvetica,sans-Serif" font-size="10.00">bmm350_get_compensated</text>
<text text-anchor="middle" x="496" y="-7" font-family="Helvetica,sans-Serif" font-size="10.00">_mag_xyz_temp_data</text>
</a>
</g>
</g>
<!-- Node2&#45;&gt;Node3 -->
<g id="edge2_Node000002_Node000003" class="edge">
<title>Node2&#45;&gt;Node3</title>
<g id="a_edge2_Node000002_Node000003"><a xlink:title=" ">
<path fill="none" stroke="#63b8ff" d="M597.85,-15C589.41,-15 580.71,-15 572.11,-15"/>
<polygon fill="#63b8ff" stroke="#63b8ff" points="597.97,-18.5 607.97,-15 597.97,-11.5 597.97,-18.5"/>
</a>
</g>
</g>
<!-- Node4 -->
<g id="Node000004" class="node">
<title>Node4</title>
<g id="a_Node000004"><a xlink:href="group__sensor__api.html#gae42e76e9e743d998bbdb637a03352b7d" target="_top" xlink:title="this function checks the drdy_data_reg (0x30) data ready interrupt then returns the status of the reg...">
<polygon fill="white" stroke="#666666" points="384,-24.5 324,-24.5 324,-5.5 384,-5.5 384,-24.5"/>
<text text-anchor="middle" x="354" y="-12.5" font-family="Helvetica,sans-Serif" font-size="10.00">read_intr</text>
</a>
</g>
</g>
<!-- Node3&#45;&gt;Node4 -->
<g id="edge3_Node000003_Node000004" class="edge">
<title>Node3&#45;&gt;Node4</title>
<g id="a_edge3_Node000003_Node000004"><a xlink:title=" ">
<path fill="none" stroke="#63b8ff" d="M409.65,-15C400.51,-15 391.74,-15 384,-15"/>
<polygon fill="#63b8ff" stroke="#63b8ff" points="409.67,-18.5 419.67,-15 409.67,-11.5 409.67,-18.5"/>
</a>
</g>
</g>
<!-- Node5 -->
<g id="Node000005" class="node">
<title>Node5</title>
<g id="a_Node000005"><a xlink:href="group__sensor__api.html#gae1c1a63d4a6fe6c7804473250ac24eee" target="_top" xlink:title="This function is used to get yaw value.">
<polygon fill="white" stroke="#666666" points="288,-24.5 175,-24.5 175,-5.5 288,-5.5 288,-24.5"/>
<text text-anchor="middle" x="231.5" y="-12.5" font-family="Helvetica,sans-Serif" font-size="10.00">bmm350_read_yaw</text>
</a>
</g>
</g>
<!-- Node4&#45;&gt;Node5 -->
<g id="edge4_Node000004_Node000005" class="edge">
<title>Node4&#45;&gt;Node5</title>
<g id="a_edge4_Node000004_Node000005"><a xlink:title=" ">
<path fill="none" stroke="#63b8ff" d="M313.58,-15C305.49,-15 296.82,-15 288.28,-15"/>
<polygon fill="#63b8ff" stroke="#63b8ff" points="313.83,-18.5 323.83,-15 313.83,-11.5 313.83,-18.5"/>
</a>
</g>
</g>
<!-- Node6 -->
<g id="Node000006" class="node">
<title>Node6</title>
<g id="a_Node000006"><a xlink:href="main_8c.html#a282fee6b81618368a41e8ba4e575f62e" target="_top" xlink:title=" ">
<polygon fill="white" stroke="#666666" points="139,-24.5 77,-24.5 77,-5.5 139,-5.5 139,-24.5"/>
<text text-anchor="middle" x="108" y="-12.5" font-family="Helvetica,sans-Serif" font-size="10.00">MainTask</text>
</a>
</g>
</g>
<!-- Node5&#45;&gt;Node6 -->
<g id="edge5_Node000005_Node000006" class="edge">
<title>Node5&#45;&gt;Node6</title>
<g id="a_edge5_Node000005_Node000006"><a xlink:title=" ">
<path fill="none" stroke="#63b8ff" d="M164.68,-15C155.8,-15 147.06,-15 139.23,-15"/>
<polygon fill="#63b8ff" stroke="#63b8ff" points="164.73,-18.5 174.73,-15 164.73,-11.5 164.73,-18.5"/>
</a>
</g>
</g>
<!-- Node7 -->
<g id="Node000007" class="node">
<title>Node7</title>
<g id="a_Node000007"><a xlink:href="main_8c.html#a840291bc02cba5474a4cb46a9b9566fe" target="_top" xlink:title=" ">
<polygon fill="white" stroke="#666666" points="41,-24.5 0,-24.5 0,-5.5 41,-5.5 41,-24.5"/>
<text text-anchor="middle" x="20.5" y="-12.5" font-family="Helvetica,sans-Serif" font-size="10.00">main</text>
</a>
</g>
</g>
<!-- Node6&#45;&gt;Node7 -->
<g id="edge6_Node000006_Node000007" class="edge">
<title>Node6&#45;&gt;Node7</title>
<g id="a_edge6_Node000006_Node000007"><a xlink:title=" ">
<path fill="none" stroke="#63b8ff" d="M66.42,-15C57.6,-15 48.67,-15 41.11,-15"/>
<polygon fill="#63b8ff" stroke="#63b8ff" points="66.62,-18.5 76.62,-15 66.62,-11.5 66.62,-18.5"/>
</a>
</g>
</g>
</g>
</svg>
