<?xml version="1.0" encoding="UTF-8" standalone="no"?>
<!DOCTYPE svg PUBLIC "-//W3C//DTD SVG 1.1//EN"
 "http://www.w3.org/Graphics/SVG/1.1/DTD/svg11.dtd">
<!-- Generated by graphviz version 2.43.0 (0)
 -->
<!-- Title: read_out_raw_data Pages: 1 -->
<svg width="395pt" height="76pt"
 viewBox="0.00 0.00 395.00 75.50" xmlns="http://www.w3.org/2000/svg" xmlns:xlink="http://www.w3.org/1999/xlink">
<g id="graph0" class="graph" transform="scale(1 1) rotate(0) translate(4 71.5)">
<title>read_out_raw_data</title>
<!-- Node1 -->
<g id="Node000001" class="node">
<title>Node1</title>
<g id="a_Node000001"><a xlink:title="This internal function is used to read uncompensated raw magnetic x,y and z axis along with temperatu...">
<polygon fill="#999999" stroke="#666666" points="110,-40 0,-40 0,-21 110,-21 110,-40"/>
<text text-anchor="middle" x="55" y="-28" font-family="Helvetica,sans-Serif" font-size="10.00">read_out_raw_data</text>
</a>
</g>
</g>
<!-- Node2 -->
<g id="Node000002" class="node">
<title>Node2</title>
<g id="a_Node000002"><a xlink:href="group__internal.html#ga90f5ad40d27ae8036b2475fe285901a1" target="_top" xlink:title="This function is used to read (ADC) mag and temperature data.">
<polygon fill="white" stroke="#666666" points="287,-67.5 156,-67.5 156,-37.5 287,-37.5 287,-67.5"/>
<text text-anchor="start" x="164" y="-55.5" font-family="Helvetica,sans-Serif" font-size="10.00">bmm350_read_uncomp</text>
<text text-anchor="middle" x="221.5" y="-44.5" font-family="Helvetica,sans-Serif" font-size="10.00">_mag_temp_data</text>
</a>
</g>
</g>
<!-- Node1&#45;&gt;Node2 -->
<g id="edge1_Node000001_Node000002" class="edge">
<title>Node1&#45;&gt;Node2</title>
<g id="a_edge1_Node000001_Node000002"><a xlink:title=" ">
<path fill="none" stroke="#63b8ff" d="M110.32,-37.76C121.72,-39.29 133.94,-40.92 145.94,-42.53"/>
<polygon fill="#63b8ff" stroke="#63b8ff" points="145.57,-46.01 155.95,-43.87 146.5,-39.07 145.57,-46.01"/>
</a>
</g>
</g>
<!-- Node4 -->
<g id="Node000004" class="node">
<title>Node4</title>
<g id="a_Node000004"><a xlink:href="group__internal.html#ga805428fdfd31395afb20fced06b8d680" target="_top" xlink:title="This internal function is used to update uncompensated lsb data to uT and degC.">
<polygon fill="white" stroke="#666666" points="297,-19 146,-19 146,0 297,0 297,-19"/>
<text text-anchor="middle" x="221.5" y="-7" font-family="Helvetica,sans-Serif" font-size="10.00">update_default_coefiecents</text>
</a>
</g>
</g>
<!-- Node1&#45;&gt;Node4 -->
<g id="edge3_Node000001_Node000004" class="edge">
<title>Node1&#45;&gt;Node4</title>
<g id="a_edge3_Node000001_Node000004"><a xlink:title=" ">
<path fill="none" stroke="#63b8ff" d="M110.32,-23.57C118.53,-22.52 127.15,-21.42 135.82,-20.31"/>
<polygon fill="#63b8ff" stroke="#63b8ff" points="136.5,-23.75 145.98,-19.01 135.62,-16.81 136.5,-23.75"/>
</a>
</g>
</g>
<!-- Node3 -->
<g id="Node000003" class="node">
<title>Node3</title>
<g id="a_Node000003"><a xlink:href="group__internal.html#gaa33f4de6a84f0a1c8582626cb6c1a28f" target="_top" xlink:title=": This function converts the ADC data from the BMM350 data registers to 32&#45;bit signed integer.">
<polygon fill="white" stroke="#666666" points="387,-62 333,-62 333,-43 387,-43 387,-62"/>
<text text-anchor="middle" x="360" y="-50" font-family="Helvetica,sans-Serif" font-size="10.00">fix_sign</text>
</a>
</g>
</g>
<!-- Node2&#45;&gt;Node3 -->
<g id="edge2_Node000002_Node000003" class="edge">
<title>Node2&#45;&gt;Node3</title>
<g id="a_edge2_Node000002_Node000003"><a xlink:title=" ">
<path fill="none" stroke="#63b8ff" d="M287.15,-52.5C299.37,-52.5 311.75,-52.5 322.7,-52.5"/>
<polygon fill="#63b8ff" stroke="#63b8ff" points="322.72,-56 332.72,-52.5 322.72,-49 322.72,-56"/>
</a>
</g>
</g>
</g>
</svg>
