<?xml version="1.0" encoding="UTF-8" standalone="no"?>
<!DOCTYPE svg PUBLIC "-//W3C//DTD SVG 1.1//EN"
 "http://www.w3.org/Graphics/SVG/1.1/DTD/svg11.dtd">
<!-- Generated by graphviz version 2.43.0 (0)
 -->
<!-- Title: bmm350_init_struct Pages: 1 -->
<svg width="392pt" height="103pt"
 viewBox="0.00 0.00 392.00 103.00" xmlns="http://www.w3.org/2000/svg" xmlns:xlink="http://www.w3.org/1999/xlink">
<g id="graph0" class="graph" transform="scale(1 1) rotate(0) translate(4 99)">
<title>bmm350_init_struct</title>
<!-- Node1 -->
<g id="Node000001" class="node">
<title>Node1</title>
<g id="a_Node000001"><a xlink:title="This function initialize the BMM350 device structure and the adaptive filter.">
<polygon fill="#999999" stroke="#666666" points="114,-57 0,-57 0,-38 114,-38 114,-57"/>
<text text-anchor="middle" x="57" y="-45" font-family="Helvetica,sans-Serif" font-size="10.00">bmm350_init_struct</text>
</a>
</g>
</g>
<!-- Node2 -->
<g id="Node000002" class="node">
<title>Node2</title>
<g id="a_Node000002"><a xlink:href="group__user__internal.html#ga72d6f07d31b60e050c8aa62086737aab" target="_top" xlink:title="This function is used to read a register from the BMM350 sensor.">
<polygon fill="white" stroke="#666666" points="259.5,-95 151.5,-95 151.5,-76 259.5,-76 259.5,-95"/>
<text text-anchor="middle" x="205.5" y="-83" font-family="Helvetica,sans-Serif" font-size="10.00">bmm350_I2C_read</text>
</a>
</g>
</g>
<!-- Node1&#45;&gt;Node2 -->
<g id="edge1_Node000001_Node000002" class="edge">
<title>Node1&#45;&gt;Node2</title>
<g id="a_edge1_Node000001_Node000002"><a xlink:title=" ">
<path fill="none" stroke="#63b8ff" d="M94.97,-57.09C114.13,-62.06 137.71,-68.18 158.09,-73.46"/>
<polygon fill="#63b8ff" stroke="#63b8ff" points="157.24,-76.86 167.8,-75.98 159,-70.08 157.24,-76.86"/>
</a>
</g>
</g>
<!-- Node3 -->
<g id="Node000003" class="node">
<title>Node3</title>
<g id="a_Node000003"><a xlink:href="group__internal.html#ga3fa3449c50ffe2d91fd5f1c127892356" target="_top" xlink:title=": This internal function* is used to validate the device structure pointer for null conditions.">
<polygon fill="white" stroke="#666666" points="384,-57 297,-57 297,-38 384,-38 384,-57"/>
<text text-anchor="middle" x="340.5" y="-45" font-family="Helvetica,sans-Serif" font-size="10.00">null_ptr_check</text>
</a>
</g>
</g>
<!-- Node1&#45;&gt;Node3 -->
<g id="edge5_Node000001_Node000003" class="edge">
<title>Node1&#45;&gt;Node3</title>
<g id="a_edge5_Node000001_Node000003"><a xlink:title=" ">
<path fill="none" stroke="#63b8ff" d="M114.29,-47.5C164.47,-47.5 237.38,-47.5 286.53,-47.5"/>
<polygon fill="#63b8ff" stroke="#63b8ff" points="286.64,-51 296.63,-47.5 286.63,-44 286.64,-51"/>
</a>
</g>
</g>
<!-- Node4 -->
<g id="Node000004" class="node">
<title>Node4</title>
<g id="a_Node000004"><a xlink:href="group__user__internal.html#ga1de7d1421454a2345f94c9c05846496c" target="_top" xlink:title="This function is used to write data to a register in the BMM350 sensor.">
<polygon fill="white" stroke="#666666" points="261,-19 150,-19 150,0 261,0 261,-19"/>
<text text-anchor="middle" x="205.5" y="-7" font-family="Helvetica,sans-Serif" font-size="10.00">bmm350_I2C_write</text>
</a>
</g>
</g>
<!-- Node1&#45;&gt;Node4 -->
<g id="edge3_Node000001_Node000004" class="edge">
<title>Node1&#45;&gt;Node4</title>
<g id="a_edge3_Node000001_Node000004"><a xlink:title=" ">
<path fill="none" stroke="#63b8ff" d="M94.97,-37.91C114.13,-32.94 137.71,-26.82 158.09,-21.54"/>
<polygon fill="#63b8ff" stroke="#63b8ff" points="159,-24.92 167.8,-19.02 157.24,-18.14 159,-24.92"/>
</a>
</g>
</g>
<!-- Node2&#45;&gt;Node3 -->
<g id="edge2_Node000002_Node000003" class="edge">
<title>Node2&#45;&gt;Node3</title>
<g id="a_edge2_Node000002_Node000003"><a xlink:title=" ">
<path fill="none" stroke="#63b8ff" d="M240.06,-75.91C257.07,-71.05 277.93,-65.09 296.14,-59.89"/>
<polygon fill="#63b8ff" stroke="#63b8ff" points="297.3,-63.2 305.95,-57.09 295.37,-56.47 297.3,-63.2"/>
</a>
</g>
</g>
<!-- Node4&#45;&gt;Node3 -->
<g id="edge4_Node000004_Node000003" class="edge">
<title>Node4&#45;&gt;Node3</title>
<g id="a_edge4_Node000004_Node000003"><a xlink:title=" ">
<path fill="none" stroke="#63b8ff" d="M240.06,-19.09C257.07,-23.95 277.93,-29.91 296.14,-35.11"/>
<polygon fill="#63b8ff" stroke="#63b8ff" points="295.37,-38.53 305.95,-37.91 297.3,-31.8 295.37,-38.53"/>
</a>
</g>
</g>
</g>
</svg>
