<?xml version="1.0" encoding="UTF-8" standalone="no"?>
<!DOCTYPE svg PUBLIC "-//W3C//DTD SVG 1.1//EN"
 "http://www.w3.org/Graphics/SVG/1.1/DTD/svg11.dtd">
<!-- Generated by graphviz version 2.43.0 (0)
 -->
<!-- Title: bmm350_read_yaw Pages: 1 -->
<svg width="855pt" height="128pt"
 viewBox="0.00 0.00 855.00 128.00" xmlns="http://www.w3.org/2000/svg" xmlns:xlink="http://www.w3.org/1999/xlink">
<g id="graph0" class="graph" transform="scale(1 1) rotate(0) translate(4 124)">
<title>bmm350_read_yaw</title>
<!-- Node1 -->
<g id="Node000001" class="node">
<title>Node1</title>
<g id="a_Node000001"><a xlink:title="This function is used to get yaw value.">
<polygon fill="#999999" stroke="#666666" points="113,-61 0,-61 0,-42 113,-42 113,-61"/>
<text text-anchor="middle" x="56.5" y="-49" font-family="Helvetica,sans-Serif" font-size="10.00">bmm350_read_yaw</text>
</a>
</g>
</g>
<!-- Node2 -->
<g id="Node000002" class="node">
<title>Node2</title>
<g id="a_Node000002"><a xlink:href="group__sensor__api.html#ga349bf3c57fbed6694ac73f4cbebcf990" target="_top" xlink:title="This function filters the data of angle got from magnetic readings.">
<polygon fill="white" stroke="#666666" points="236,-83 149,-83 149,-64 236,-64 236,-83"/>
<text text-anchor="middle" x="192.5" y="-71" font-family="Helvetica,sans-Serif" font-size="10.00">adaptive_filter</text>
</a>
</g>
</g>
<!-- Node1&#45;&gt;Node2 -->
<g id="edge1_Node000001_Node000002" class="edge">
<title>Node1&#45;&gt;Node2</title>
<g id="a_edge1_Node000001_Node000002"><a xlink:title=" ">
<path fill="none" stroke="#63b8ff" d="M113.16,-60.64C121.65,-62.03 130.39,-63.47 138.81,-64.85"/>
<polygon fill="#63b8ff" stroke="#63b8ff" points="138.45,-68.34 148.88,-66.5 139.58,-61.43 138.45,-68.34"/>
</a>
</g>
</g>
<!-- Node5 -->
<g id="Node000005" class="node">
<title>Node5</title>
<g id="a_Node000005"><a xlink:href="group__sensor__api.html#gae42e76e9e743d998bbdb637a03352b7d" target="_top" xlink:title="this function checks the drdy_data_reg (0x30) data ready interrupt then returns the status of the reg...">
<polygon fill="white" stroke="#666666" points="222.5,-43 162.5,-43 162.5,-24 222.5,-24 222.5,-43"/>
<text text-anchor="middle" x="192.5" y="-31" font-family="Helvetica,sans-Serif" font-size="10.00">read_intr</text>
</a>
</g>
</g>
<!-- Node1&#45;&gt;Node5 -->
<g id="edge4_Node000001_Node000005" class="edge">
<title>Node1&#45;&gt;Node5</title>
<g id="a_edge4_Node000001_Node000005"><a xlink:title=" ">
<path fill="none" stroke="#63b8ff" d="M113.16,-44.02C126.18,-42.27 139.78,-40.45 151.93,-38.82"/>
<polygon fill="#63b8ff" stroke="#63b8ff" points="152.73,-42.24 162.18,-37.44 151.8,-35.3 152.73,-42.24"/>
</a>
</g>
</g>
<!-- Node3 -->
<g id="Node000003" class="node">
<title>Node3</title>
<g id="a_Node000003"><a xlink:href="group__sensor__api.html#gab4be8745d812ca6e741eb455f64f3bb7" target="_top" xlink:title="This function smooths the operation of interpolation between angles specially for jumps from 0 to 360...">
<polygon fill="white" stroke="#666666" points="390.5,-120 305.5,-120 305.5,-101 390.5,-101 390.5,-120"/>
<text text-anchor="middle" x="348" y="-108" font-family="Helvetica,sans-Serif" font-size="10.00">unwrap_angle</text>
</a>
</g>
</g>
<!-- Node2&#45;&gt;Node3 -->
<g id="edge2_Node000002_Node000003" class="edge">
<title>Node2&#45;&gt;Node3</title>
<g id="a_edge2_Node000002_Node000003"><a xlink:title=" ">
<path fill="none" stroke="#63b8ff" d="M233.03,-83.08C245.5,-86.1 259.32,-89.44 272,-92.5 280.23,-94.48 288.98,-96.59 297.48,-98.63"/>
<polygon fill="#63b8ff" stroke="#63b8ff" points="296.75,-102.05 307.29,-100.99 298.39,-95.25 296.75,-102.05"/>
</a>
</g>
</g>
<!-- Node4 -->
<g id="Node000004" class="node">
<title>Node4</title>
<g id="a_Node000004"><a xlink:href="group__sensor__api.html#ga9a1cd3e3a0329e310eba39d7df534c55" target="_top" xlink:title="This function wrapes the angle input to make sure it is between 0 and 360 degrees.">
<polygon fill="white" stroke="#666666" points="380,-83 316,-83 316,-64 380,-64 380,-83"/>
<text text-anchor="middle" x="348" y="-71" font-family="Helvetica,sans-Serif" font-size="10.00">wrap_360</text>
</a>
</g>
</g>
<!-- Node2&#45;&gt;Node4 -->
<g id="edge3_Node000002_Node000004" class="edge">
<title>Node2&#45;&gt;Node4</title>
<g id="a_edge3_Node000002_Node000004"><a xlink:title=" ">
<path fill="none" stroke="#63b8ff" d="M236.26,-73.5C257.91,-73.5 284.08,-73.5 305.55,-73.5"/>
<polygon fill="#63b8ff" stroke="#63b8ff" points="305.67,-77 315.67,-73.5 305.67,-70 305.67,-77"/>
</a>
</g>
</g>
<!-- Node6 -->
<g id="Node000006" class="node">
<title>Node6</title>
<g id="a_Node000006"><a xlink:href="group__sensor__api.html#ga072f77061f2d28f8b93181aac9890a87" target="_top" xlink:title="This internal function is used to perform compensation calculations for raw magnetometer and temperat...">
<polygon fill="white" stroke="#666666" points="424,-45.5 272,-45.5 272,-15.5 424,-15.5 424,-45.5"/>
<text text-anchor="start" x="280" y="-33.5" font-family="Helvetica,sans-Serif" font-size="10.00">bmm350_get_compensated</text>
<text text-anchor="middle" x="348" y="-22.5" font-family="Helvetica,sans-Serif" font-size="10.00">_mag_xyz_temp_data</text>
</a>
</g>
</g>
<!-- Node5&#45;&gt;Node6 -->
<g id="edge5_Node000005_Node000006" class="edge">
<title>Node5&#45;&gt;Node6</title>
<g id="a_edge5_Node000005_Node000006"><a xlink:title=" ">
<path fill="none" stroke="#63b8ff" d="M222.73,-32.93C234.07,-32.71 247.69,-32.44 261.7,-32.17"/>
<polygon fill="#63b8ff" stroke="#63b8ff" points="262.01,-35.66 271.94,-31.97 261.87,-28.66 262.01,-35.66"/>
</a>
</g>
</g>
<!-- Node7 -->
<g id="Node000007" class="node">
<title>Node7</title>
<g id="a_Node000007"><a xlink:href="group__sensor__api.html#ga91a3a98a720e9061b94ed3fb0f75a05b" target="_top" xlink:title="This internal function is used to read uncompensated raw magnetic x,y and z axis along with temperatu...">
<polygon fill="white" stroke="#666666" points="570,-40 460,-40 460,-21 570,-21 570,-40"/>
<text text-anchor="middle" x="515" y="-28" font-family="Helvetica,sans-Serif" font-size="10.00">read_out_raw_data</text>
</a>
</g>
</g>
<!-- Node6&#45;&gt;Node7 -->
<g id="edge6_Node000006_Node000007" class="edge">
<title>Node6&#45;&gt;Node7</title>
<g id="a_edge6_Node000006_Node000007"><a xlink:title=" ">
<path fill="none" stroke="#63b8ff" d="M424.26,-30.5C432.62,-30.5 441.09,-30.5 449.31,-30.5"/>
<polygon fill="#63b8ff" stroke="#63b8ff" points="449.56,-34 459.56,-30.5 449.56,-27 449.56,-34"/>
</a>
</g>
</g>
<!-- Node8 -->
<g id="Node000008" class="node">
<title>Node8</title>
<g id="a_Node000008"><a xlink:href="group__sensor__api.html#ga90f5ad40d27ae8036b2475fe285901a1" target="_top" xlink:title="This function is used to read (ADC) mag and temperature data.">
<polygon fill="white" stroke="#666666" points="747,-67.5 616,-67.5 616,-37.5 747,-37.5 747,-67.5"/>
<text text-anchor="start" x="624" y="-55.5" font-family="Helvetica,sans-Serif" font-size="10.00">bmm350_read_uncomp</text>
<text text-anchor="middle" x="681.5" y="-44.5" font-family="Helvetica,sans-Serif" font-size="10.00">_mag_temp_data</text>
</a>
</g>
</g>
<!-- Node7&#45;&gt;Node8 -->
<g id="edge7_Node000007_Node000008" class="edge">
<title>Node7&#45;&gt;Node8</title>
<g id="a_edge7_Node000007_Node000008"><a xlink:title=" ">
<path fill="none" stroke="#63b8ff" d="M570.32,-37.76C581.72,-39.29 593.94,-40.92 605.94,-42.53"/>
<polygon fill="#63b8ff" stroke="#63b8ff" points="605.57,-46.01 615.95,-43.87 606.5,-39.07 605.57,-46.01"/>
</a>
</g>
</g>
<!-- Node10 -->
<g id="Node000010" class="node">
<title>Node10</title>
<g id="a_Node000010"><a xlink:href="group__sensor__api.html#ga805428fdfd31395afb20fced06b8d680" target="_top" xlink:title="This internal function is used to update uncompensated lsb data to uT and degC.">
<polygon fill="white" stroke="#666666" points="757,-19 606,-19 606,0 757,0 757,-19"/>
<text text-anchor="middle" x="681.5" y="-7" font-family="Helvetica,sans-Serif" font-size="10.00">update_default_coefiecents</text>
</a>
</g>
</g>
<!-- Node7&#45;&gt;Node10 -->
<g id="edge9_Node000007_Node000010" class="edge">
<title>Node7&#45;&gt;Node10</title>
<g id="a_edge9_Node000007_Node000010"><a xlink:title=" ">
<path fill="none" stroke="#63b8ff" d="M570.32,-23.57C578.53,-22.52 587.15,-21.42 595.82,-20.31"/>
<polygon fill="#63b8ff" stroke="#63b8ff" points="596.5,-23.75 605.98,-19.01 595.62,-16.81 596.5,-23.75"/>
</a>
</g>
</g>
<!-- Node9 -->
<g id="Node000009" class="node">
<title>Node9</title>
<g id="a_Node000009"><a xlink:href="group__sensor__api.html#gaa33f4de6a84f0a1c8582626cb6c1a28f" target="_top" xlink:title=": This function converts the ADC data from the BMM350 data registers to 32&#45;bit signed integer.">
<polygon fill="white" stroke="#666666" points="847,-62 793,-62 793,-43 847,-43 847,-62"/>
<text text-anchor="middle" x="820" y="-50" font-family="Helvetica,sans-Serif" font-size="10.00">fix_sign</text>
</a>
</g>
</g>
<!-- Node8&#45;&gt;Node9 -->
<g id="edge8_Node000008_Node000009" class="edge">
<title>Node8&#45;&gt;Node9</title>
<g id="a_edge8_Node000008_Node000009"><a xlink:title=" ">
<path fill="none" stroke="#63b8ff" d="M747.15,-52.5C759.37,-52.5 771.75,-52.5 782.7,-52.5"/>
<polygon fill="#63b8ff" stroke="#63b8ff" points="782.72,-56 792.72,-52.5 782.72,-49 782.72,-56"/>
</a>
</g>
</g>
</g>
</svg>
