<?xml version="1.0" encoding="UTF-8" standalone="no"?>
<!DOCTYPE svg PUBLIC "-//W3C//DTD SVG 1.1//EN"
 "http://www.w3.org/Graphics/SVG/1.1/DTD/svg11.dtd">
<!-- Generated by graphviz version 2.43.0 (0)
 -->
<!-- Title: bmm350_get_pmu_cmd_status Pages: 1 -->
<svg width="611pt" height="59pt"
 viewBox="0.00 0.00 611.00 59.00" xmlns="http://www.w3.org/2000/svg" xmlns:xlink="http://www.w3.org/1999/xlink">
<g id="graph0" class="graph" transform="scale(1 1) rotate(0) translate(4 55)">
<title>bmm350_get_pmu_cmd_status</title>
<!-- Node1 -->
<g id="Node000001" class="node">
<title>Node1</title>
<g id="a_Node000001"><a xlink:title="This function gets the PMU command status 0 register (0x07) and PMU command status 1 register (0x08) ...">
<polygon fill="#999999" stroke="#666666" points="603,-51 469,-51 469,-21 603,-21 603,-51"/>
<text text-anchor="start" x="477" y="-39" font-family="Helvetica,sans-Serif" font-size="10.00">bmm350_get_pmu_cmd</text>
<text text-anchor="middle" x="536" y="-28" font-family="Helvetica,sans-Serif" font-size="10.00">_status</text>
</a>
</g>
</g>
<!-- Node2 -->
<g id="Node000002" class="node">
<title>Node2</title>
<g id="a_Node000002"><a xlink:href="group__sensor__api.html#gadc0b3dcb4a399bb38273981b2d47e697" target="_top" xlink:title="This function to initialize the BMM350 registers and enable Normal Mode.">
<polygon fill="white" stroke="#666666" points="256,-45.5 175,-45.5 175,-26.5 256,-26.5 256,-45.5"/>
<text text-anchor="middle" x="215.5" y="-33.5" font-family="Helvetica,sans-Serif" font-size="10.00">bmm350_init</text>
</a>
</g>
</g>
<!-- Node1&#45;&gt;Node2 -->
<g id="edge1_Node000001_Node000002" class="edge">
<title>Node1&#45;&gt;Node2</title>
<g id="a_edge1_Node000001_Node000002"><a xlink:title=" ">
<path fill="none" stroke="#63b8ff" d="M458.74,-38.49C450.06,-38.7 441.34,-38.88 433,-39 370.34,-39.92 354.65,-40.24 292,-39 280.33,-38.77 267.65,-38.33 256.07,-37.87"/>
<polygon fill="#63b8ff" stroke="#63b8ff" points="458.98,-41.98 468.89,-38.23 458.8,-34.99 458.98,-41.98"/>
</a>
</g>
</g>
<!-- Node5 -->
<g id="Node000005" class="node">
<title>Node5</title>
<g id="a_Node000005"><a xlink:href="group__sensor__api.html#gad144c7b4fcd5e9f22b261b1d3ee9b1fa" target="_top" xlink:title="This function is used to perform the magnetic reset of the sensor which is necessary after a field sh...">
<polygon fill="white" stroke="#666666" points="433,-30 292,-30 292,0 433,0 433,-30"/>
<text text-anchor="start" x="300" y="-18" font-family="Helvetica,sans-Serif" font-size="10.00">bmm350_magnetic_reset</text>
<text text-anchor="middle" x="362.5" y="-7" font-family="Helvetica,sans-Serif" font-size="10.00">_and_wait</text>
</a>
</g>
</g>
<!-- Node1&#45;&gt;Node5 -->
<g id="edge4_Node000001_Node000005" class="edge">
<title>Node1&#45;&gt;Node5</title>
<g id="a_edge4_Node000001_Node000005"><a xlink:title=" ">
<path fill="none" stroke="#63b8ff" d="M458.73,-26.66C450.18,-25.61 441.5,-24.55 433.04,-23.51"/>
<polygon fill="#63b8ff" stroke="#63b8ff" points="458.34,-30.14 468.69,-27.88 459.19,-23.19 458.34,-30.14"/>
</a>
</g>
</g>
<!-- Node3 -->
<g id="Node000003" class="node">
<title>Node3</title>
<g id="a_Node000003"><a xlink:href="main_8c.html#a282fee6b81618368a41e8ba4e575f62e" target="_top" xlink:title=" ">
<polygon fill="white" stroke="#666666" points="139,-45.5 77,-45.5 77,-26.5 139,-26.5 139,-45.5"/>
<text text-anchor="middle" x="108" y="-33.5" font-family="Helvetica,sans-Serif" font-size="10.00">MainTask</text>
</a>
</g>
</g>
<!-- Node2&#45;&gt;Node3 -->
<g id="edge2_Node000002_Node000003" class="edge">
<title>Node2&#45;&gt;Node3</title>
<g id="a_edge2_Node000002_Node000003"><a xlink:title=" ">
<path fill="none" stroke="#63b8ff" d="M164.78,-36C156.06,-36 147.23,-36 139.24,-36"/>
<polygon fill="#63b8ff" stroke="#63b8ff" points="164.92,-39.5 174.92,-36 164.92,-32.5 164.92,-39.5"/>
</a>
</g>
</g>
<!-- Node4 -->
<g id="Node000004" class="node">
<title>Node4</title>
<g id="a_Node000004"><a xlink:href="main_8c.html#a840291bc02cba5474a4cb46a9b9566fe" target="_top" xlink:title=" ">
<polygon fill="white" stroke="#666666" points="41,-45.5 0,-45.5 0,-26.5 41,-26.5 41,-45.5"/>
<text text-anchor="middle" x="20.5" y="-33.5" font-family="Helvetica,sans-Serif" font-size="10.00">main</text>
</a>
</g>
</g>
<!-- Node3&#45;&gt;Node4 -->
<g id="edge3_Node000003_Node000004" class="edge">
<title>Node3&#45;&gt;Node4</title>
<g id="a_edge3_Node000003_Node000004"><a xlink:title=" ">
<path fill="none" stroke="#63b8ff" d="M66.42,-36C57.6,-36 48.67,-36 41.11,-36"/>
<polygon fill="#63b8ff" stroke="#63b8ff" points="66.62,-39.5 76.62,-36 66.62,-32.5 66.62,-39.5"/>
</a>
</g>
</g>
<!-- Node5&#45;&gt;Node2 -->
<g id="edge5_Node000005_Node000002" class="edge">
<title>Node5&#45;&gt;Node2</title>
<g id="a_edge5_Node000005_Node000002"><a xlink:title=" ">
<path fill="none" stroke="#63b8ff" d="M281.96,-26.52C273.12,-27.8 264.42,-29.06 256.39,-30.22"/>
<polygon fill="#63b8ff" stroke="#63b8ff" points="282.58,-29.97 291.97,-25.07 281.57,-23.04 282.58,-29.97"/>
</a>
</g>
</g>
</g>
</svg>
