<?xml version="1.0" encoding="UTF-8" standalone="no"?>
<!DOCTYPE svg PUBLIC "-//W3C//DTD SVG 1.1//EN"
 "http://www.w3.org/Graphics/SVG/1.1/DTD/svg11.dtd">
<!-- Generated by graphviz version 2.43.0 (0)
 -->
<!-- Title: bmm350_magnetic_reset_and_wait Pages: 1 -->
<svg width="582pt" height="95pt"
 viewBox="0.00 0.00 582.00 94.70" xmlns="http://www.w3.org/2000/svg" xmlns:xlink="http://www.w3.org/1999/xlink">
<g id="graph0" class="graph" transform="scale(1 1) rotate(0) translate(4 90.7)">
<title>bmm350_magnetic_reset_and_wait</title>
<!-- Node1 -->
<g id="Node000001" class="node">
<title>Node1</title>
<g id="a_Node000001"><a xlink:title="This function is used to perform the magnetic reset of the sensor which is necessary after a field sh...">
<polygon fill="#999999" stroke="#666666" points="141,-43.7 0,-43.7 0,-13.7 141,-13.7 141,-43.7"/>
<text text-anchor="start" x="8" y="-31.7" font-family="Helvetica,sans-Serif" font-size="10.00">bmm350_magnetic_reset</text>
<text text-anchor="middle" x="70.5" y="-20.7" font-family="Helvetica,sans-Serif" font-size="10.00">_and_wait</text>
</a>
</g>
</g>
<!-- Node2 -->
<g id="Node000002" class="node">
<title>Node2</title>
<g id="a_Node000002"><a xlink:href="group__user__internal.html#ga8b94b8f6dfd15fcb4c38f2ea34c79ae4" target="_top" xlink:title="This function gets the PMU command status 0 register (0x07) and PMU command status 1 register (0x08) ...">
<polygon fill="white" stroke="#666666" points="315.5,-86.7 181.5,-86.7 181.5,-56.7 315.5,-56.7 315.5,-86.7"/>
<text text-anchor="start" x="189.5" y="-74.7" font-family="Helvetica,sans-Serif" font-size="10.00">bmm350_get_pmu_cmd</text>
<text text-anchor="middle" x="248.5" y="-63.7" font-family="Helvetica,sans-Serif" font-size="10.00">_status</text>
</a>
</g>
</g>
<!-- Node1&#45;&gt;Node2 -->
<g id="edge1_Node000001_Node000002" class="edge">
<title>Node1&#45;&gt;Node2</title>
<g id="a_edge1_Node000001_Node000002"><a xlink:title=" ">
<path fill="none" stroke="#63b8ff" d="M133.06,-43.74C146.99,-47.14 161.9,-50.78 176.2,-54.28"/>
<polygon fill="#63b8ff" stroke="#63b8ff" points="175.43,-57.69 185.98,-56.67 177.09,-50.89 175.43,-57.69"/>
</a>
</g>
</g>
<!-- Node3 -->
<g id="Node000003" class="node">
<title>Node3</title>
<g id="a_Node000003"><a xlink:href="group__user__internal.html#ga29af58551105e397e6a05e91f3e05aa1" target="_top" xlink:title="This function is used to set the power mode of the sensor.">
<polygon fill="white" stroke="#666666" points="320,-38.2 177,-38.2 177,-19.2 320,-19.2 320,-38.2"/>
<text text-anchor="middle" x="248.5" y="-26.2" font-family="Helvetica,sans-Serif" font-size="10.00">bmm350_set_powermode</text>
</a>
</g>
</g>
<!-- Node1&#45;&gt;Node3 -->
<g id="edge2_Node000001_Node000003" class="edge">
<title>Node1&#45;&gt;Node3</title>
<g id="a_edge2_Node000001_Node000003"><a xlink:title=" ">
<path fill="none" stroke="#63b8ff" d="M141.06,-28.7C149.39,-28.7 157.96,-28.7 166.44,-28.7"/>
<polygon fill="#63b8ff" stroke="#63b8ff" points="166.71,-32.2 176.71,-28.7 166.71,-25.2 166.71,-32.2"/>
</a>
</g>
</g>
<!-- Node4 -->
<g id="Node000004" class="node">
<title>Node4</title>
<g id="a_Node000004"><a xlink:href="group__internal.html#ga3fa3449c50ffe2d91fd5f1c127892356" target="_top" xlink:title=": This internal function* is used to validate the device structure pointer for null conditions.">
<polygon fill="white" stroke="#666666" points="574,-38.2 487,-38.2 487,-19.2 574,-19.2 574,-38.2"/>
<text text-anchor="middle" x="530.5" y="-26.2" font-family="Helvetica,sans-Serif" font-size="10.00">null_ptr_check</text>
</a>
</g>
</g>
<!-- Node1&#45;&gt;Node4 -->
<g id="edge6_Node000001_Node000004" class="edge">
<title>Node1&#45;&gt;Node4</title>
<g id="a_edge6_Node000001_Node000004"><a xlink:title=" ">
<path fill="none" stroke="#63b8ff" d="M141.06,-14.36C153,-12.42 165.32,-10.74 177,-9.7 298.29,1.14 330.08,4.73 451,-9.7 463.06,-11.14 475.95,-13.78 487.72,-16.64"/>
<polygon fill="#63b8ff" stroke="#63b8ff" points="487.18,-20.11 497.73,-19.19 488.9,-13.33 487.18,-20.11"/>
</a>
</g>
</g>
<!-- Node3&#45;&gt;Node4 -->
<g id="edge3_Node000003_Node000004" class="edge">
<title>Node3&#45;&gt;Node4</title>
<g id="a_edge3_Node000003_Node000004"><a xlink:title=" ">
<path fill="none" stroke="#63b8ff" d="M295.68,-38.23C314.32,-41.63 336.1,-45.03 356,-46.7 398.07,-50.23 409.05,-51.45 451,-46.7 462.28,-45.42 474.29,-43.14 485.44,-40.63"/>
<polygon fill="#63b8ff" stroke="#63b8ff" points="486.47,-43.98 495.4,-38.28 484.86,-37.17 486.47,-43.98"/>
</a>
</g>
</g>
<!-- Node5 -->
<g id="Node000005" class="node">
<title>Node5</title>
<g id="a_Node000005"><a xlink:href="group__internal.html#ga26a3e3d11b80083b5f72c060d931728b" target="_top" xlink:title="This function is used to switch from suspend mode to normal mode or forced mode.">
<polygon fill="white" stroke="#666666" points="451,-38.2 356,-38.2 356,-19.2 451,-19.2 451,-38.2"/>
<text text-anchor="middle" x="403.5" y="-26.2" font-family="Helvetica,sans-Serif" font-size="10.00">set_powermode</text>
</a>
</g>
</g>
<!-- Node3&#45;&gt;Node5 -->
<g id="edge4_Node000003_Node000005" class="edge">
<title>Node3&#45;&gt;Node5</title>
<g id="a_edge4_Node000003_Node000005"><a xlink:title=" ">
<path fill="none" stroke="#63b8ff" d="M320.18,-28.7C328.66,-28.7 337.23,-28.7 345.48,-28.7"/>
<polygon fill="#63b8ff" stroke="#63b8ff" points="345.73,-32.2 355.73,-28.7 345.73,-25.2 345.73,-32.2"/>
</a>
</g>
</g>
<!-- Node5&#45;&gt;Node4 -->
<g id="edge5_Node000005_Node000004" class="edge">
<title>Node5&#45;&gt;Node4</title>
<g id="a_edge5_Node000005_Node000004"><a xlink:title=" ">
<path fill="none" stroke="#63b8ff" d="M451.05,-28.7C459.34,-28.7 468.03,-28.7 476.48,-28.7"/>
<polygon fill="#63b8ff" stroke="#63b8ff" points="476.64,-32.2 486.64,-28.7 476.64,-25.2 476.64,-32.2"/>
</a>
</g>
</g>
</g>
</svg>
