<?xml version="1.0" encoding="UTF-8" standalone="no"?>
<!DOCTYPE svg PUBLIC "-//W3C//DTD SVG 1.1//EN"
 "http://www.w3.org/Graphics/SVG/1.1/DTD/svg11.dtd">
<!-- Generated by graphviz version 2.43.0 (0)
 -->
<!-- Title: set_powermode Pages: 1 -->
<svg width="751pt" height="54pt"
 viewBox="0.00 0.00 751.00 53.50" xmlns="http://www.w3.org/2000/svg" xmlns:xlink="http://www.w3.org/1999/xlink">
<g id="graph0" class="graph" transform="scale(1 1) rotate(0) translate(4 49.5)">
<title>set_powermode</title>
<!-- Node1 -->
<g id="Node000001" class="node">
<title>Node1</title>
<g id="a_Node000001"><a xlink:title="This function is used to switch from suspend mode to normal mode or forced mode.">
<polygon fill="#999999" stroke="#666666" points="743,-45.5 648,-45.5 648,-26.5 743,-26.5 743,-45.5"/>
<text text-anchor="middle" x="695.5" y="-33.5" font-family="Helvetica,sans-Serif" font-size="10.00">set_powermode</text>
</a>
</g>
</g>
<!-- Node2 -->
<g id="Node000002" class="node">
<title>Node2</title>
<g id="a_Node000002"><a xlink:href="group__sensor__api.html#ga29af58551105e397e6a05e91f3e05aa1" target="_top" xlink:title="This function is used to set the power mode of the sensor.">
<polygon fill="white" stroke="#666666" points="612,-45.5 469,-45.5 469,-26.5 612,-26.5 612,-45.5"/>
<text text-anchor="middle" x="540.5" y="-33.5" font-family="Helvetica,sans-Serif" font-size="10.00">bmm350_set_powermode</text>
</a>
</g>
</g>
<!-- Node1&#45;&gt;Node2 -->
<g id="edge1_Node000001_Node000002" class="edge">
<title>Node1&#45;&gt;Node2</title>
<g id="a_edge1_Node000001_Node000002"><a xlink:title=" ">
<path fill="none" stroke="#63b8ff" d="M637.51,-36C629.25,-36 620.67,-36 612.18,-36"/>
<polygon fill="#63b8ff" stroke="#63b8ff" points="637.76,-39.5 647.76,-36 637.76,-32.5 637.76,-39.5"/>
</a>
</g>
</g>
<!-- Node3 -->
<g id="Node000003" class="node">
<title>Node3</title>
<g id="a_Node000003"><a xlink:href="group__sensor__api.html#gadc0b3dcb4a399bb38273981b2d47e697" target="_top" xlink:title="This function to initialize the BMM350 registers and enable Normal Mode.">
<polygon fill="white" stroke="#666666" points="256,-45.5 175,-45.5 175,-26.5 256,-26.5 256,-45.5"/>
<text text-anchor="middle" x="215.5" y="-33.5" font-family="Helvetica,sans-Serif" font-size="10.00">bmm350_init</text>
</a>
</g>
</g>
<!-- Node2&#45;&gt;Node3 -->
<g id="edge2_Node000002_Node000003" class="edge">
<title>Node2&#45;&gt;Node3</title>
<g id="a_edge2_Node000002_Node000003"><a xlink:title=" ">
<path fill="none" stroke="#63b8ff" d="M458.63,-38.52C449.98,-38.71 441.31,-38.88 433,-39 370.34,-39.88 354.65,-40.24 292,-39 280.33,-38.77 267.65,-38.33 256.07,-37.87"/>
<polygon fill="#63b8ff" stroke="#63b8ff" points="458.84,-42.01 468.76,-38.27 458.67,-35.01 458.84,-42.01"/>
</a>
</g>
</g>
<!-- Node6 -->
<g id="Node000006" class="node">
<title>Node6</title>
<g id="a_Node000006"><a xlink:href="group__sensor__api.html#gad144c7b4fcd5e9f22b261b1d3ee9b1fa" target="_top" xlink:title="This function is used to perform the magnetic reset of the sensor which is necessary after a field sh...">
<polygon fill="white" stroke="#666666" points="433,-30 292,-30 292,0 433,0 433,-30"/>
<text text-anchor="start" x="300" y="-18" font-family="Helvetica,sans-Serif" font-size="10.00">bmm350_magnetic_reset</text>
<text text-anchor="middle" x="362.5" y="-7" font-family="Helvetica,sans-Serif" font-size="10.00">_and_wait</text>
</a>
</g>
</g>
<!-- Node2&#45;&gt;Node6 -->
<g id="edge5_Node000002_Node000006" class="edge">
<title>Node2&#45;&gt;Node6</title>
<g id="a_edge5_Node000002_Node000006"><a xlink:title=" ">
<path fill="none" stroke="#63b8ff" d="M458.92,-26.39C450.34,-25.36 441.67,-24.33 433.23,-23.32"/>
<polygon fill="#63b8ff" stroke="#63b8ff" points="458.58,-29.87 468.93,-27.58 459.41,-22.92 458.58,-29.87"/>
</a>
</g>
</g>
<!-- Node4 -->
<g id="Node000004" class="node">
<title>Node4</title>
<g id="a_Node000004"><a xlink:href="main_8c.html#a282fee6b81618368a41e8ba4e575f62e" target="_top" xlink:title=" ">
<polygon fill="white" stroke="#666666" points="139,-45.5 77,-45.5 77,-26.5 139,-26.5 139,-45.5"/>
<text text-anchor="middle" x="108" y="-33.5" font-family="Helvetica,sans-Serif" font-size="10.00">MainTask</text>
</a>
</g>
</g>
<!-- Node3&#45;&gt;Node4 -->
<g id="edge3_Node000003_Node000004" class="edge">
<title>Node3&#45;&gt;Node4</title>
<g id="a_edge3_Node000003_Node000004"><a xlink:title=" ">
<path fill="none" stroke="#63b8ff" d="M164.78,-36C156.06,-36 147.23,-36 139.24,-36"/>
<polygon fill="#63b8ff" stroke="#63b8ff" points="164.92,-39.5 174.92,-36 164.92,-32.5 164.92,-39.5"/>
</a>
</g>
</g>
<!-- Node5 -->
<g id="Node000005" class="node">
<title>Node5</title>
<g id="a_Node000005"><a xlink:href="main_8c.html#a840291bc02cba5474a4cb46a9b9566fe" target="_top" xlink:title=" ">
<polygon fill="white" stroke="#666666" points="41,-45.5 0,-45.5 0,-26.5 41,-26.5 41,-45.5"/>
<text text-anchor="middle" x="20.5" y="-33.5" font-family="Helvetica,sans-Serif" font-size="10.00">main</text>
</a>
</g>
</g>
<!-- Node4&#45;&gt;Node5 -->
<g id="edge4_Node000004_Node000005" class="edge">
<title>Node4&#45;&gt;Node5</title>
<g id="a_edge4_Node000004_Node000005"><a xlink:title=" ">
<path fill="none" stroke="#63b8ff" d="M66.42,-36C57.6,-36 48.67,-36 41.11,-36"/>
<polygon fill="#63b8ff" stroke="#63b8ff" points="66.62,-39.5 76.62,-36 66.62,-32.5 66.62,-39.5"/>
</a>
</g>
</g>
<!-- Node6&#45;&gt;Node3 -->
<g id="edge6_Node000006_Node000003" class="edge">
<title>Node6&#45;&gt;Node3</title>
<g id="a_edge6_Node000006_Node000003"><a xlink:title=" ">
<path fill="none" stroke="#63b8ff" d="M281.96,-26.52C273.12,-27.8 264.42,-29.06 256.39,-30.22"/>
<polygon fill="#63b8ff" stroke="#63b8ff" points="282.58,-29.97 291.97,-25.07 281.57,-23.04 282.58,-29.97"/>
</a>
</g>
</g>
</g>
</svg>
