<?xml version="1.0" encoding="UTF-8" standalone="no"?>
<!DOCTYPE svg PUBLIC "-//W3C//DTD SVG 1.1//EN"
 "http://www.w3.org/Graphics/SVG/1.1/DTD/svg11.dtd">
<!-- Generated by graphviz version 2.43.0 (0)
 -->
<!-- Title: OTP_E_handler Pages: 1 -->
<svg width="670pt" height="27pt"
 viewBox="0.00 0.00 670.00 27.00" xmlns="http://www.w3.org/2000/svg" xmlns:xlink="http://www.w3.org/1999/xlink">
<g id="graph0" class="graph" transform="scale(1 1) rotate(0) translate(4 23)">
<title>OTP_E_handler</title>
<!-- Node1 -->
<g id="Node000001" class="node">
<title>Node1</title>
<g id="a_Node000001"><a xlink:title=": This function handles errors when reading OTP register.">
<polygon fill="#999999" stroke="#666666" points="662,-19 573,-19 573,0 662,0 662,-19"/>
<text text-anchor="middle" x="617.5" y="-7" font-family="Helvetica,sans-Serif" font-size="10.00">OTP_E_handler</text>
</a>
</g>
</g>
<!-- Node2 -->
<g id="Node000002" class="node">
<title>Node2</title>
<g id="a_Node000002"><a xlink:href="group__sensor__api.html#gac4725a1159ab828d155ad9d7a9acb577" target="_top" xlink:title="This internal function is used to read OTP word.">
<polygon fill="white" stroke="#666666" points="537,-19 448,-19 448,0 537,0 537,-19"/>
<text text-anchor="middle" x="492.5" y="-7" font-family="Helvetica,sans-Serif" font-size="10.00">read_otp_word</text>
</a>
</g>
</g>
<!-- Node1&#45;&gt;Node2 -->
<g id="edge1_Node000001_Node000002" class="edge">
<title>Node1&#45;&gt;Node2</title>
<g id="a_edge1_Node000001_Node000002"><a xlink:title=" ">
<path fill="none" stroke="#63b8ff" d="M562.54,-9.5C554.03,-9.5 545.31,-9.5 537.07,-9.5"/>
<polygon fill="#63b8ff" stroke="#63b8ff" points="562.79,-13 572.79,-9.5 562.79,-6 562.79,-13"/>
</a>
</g>
</g>
<!-- Node3 -->
<g id="Node000003" class="node">
<title>Node3</title>
<g id="a_Node000003"><a xlink:href="group__sensor__api.html#ga2cf75153d40498769db298ba34a15d0e" target="_top" xlink:title=": This internal function is used to read OTP data after boot in user mode.">
<polygon fill="white" stroke="#666666" points="412,-19 292,-19 292,0 412,0 412,-19"/>
<text text-anchor="middle" x="352" y="-7" font-family="Helvetica,sans-Serif" font-size="10.00">otp_dump_after_boot</text>
</a>
</g>
</g>
<!-- Node2&#45;&gt;Node3 -->
<g id="edge2_Node000002_Node000003" class="edge">
<title>Node2&#45;&gt;Node3</title>
<g id="a_edge2_Node000002_Node000003"><a xlink:title=" ">
<path fill="none" stroke="#63b8ff" d="M437.42,-9.5C429.16,-9.5 420.6,-9.5 412.24,-9.5"/>
<polygon fill="#63b8ff" stroke="#63b8ff" points="437.68,-13 447.68,-9.5 437.68,-6 437.68,-13"/>
</a>
</g>
</g>
<!-- Node4 -->
<g id="Node000004" class="node">
<title>Node4</title>
<g id="a_Node000004"><a xlink:href="group__sensor__api.html#gadc0b3dcb4a399bb38273981b2d47e697" target="_top" xlink:title="This function to initialize the BMM350 registers and enable Normal Mode.">
<polygon fill="white" stroke="#666666" points="256,-19 175,-19 175,0 256,0 256,-19"/>
<text text-anchor="middle" x="215.5" y="-7" font-family="Helvetica,sans-Serif" font-size="10.00">bmm350_init</text>
</a>
</g>
</g>
<!-- Node3&#45;&gt;Node4 -->
<g id="edge3_Node000003_Node000004" class="edge">
<title>Node3&#45;&gt;Node4</title>
<g id="a_edge3_Node000003_Node000004"><a xlink:title=" ">
<path fill="none" stroke="#63b8ff" d="M281.48,-9.5C272.83,-9.5 264.23,-9.5 256.26,-9.5"/>
<polygon fill="#63b8ff" stroke="#63b8ff" points="281.61,-13 291.61,-9.5 281.61,-6 281.61,-13"/>
</a>
</g>
</g>
<!-- Node5 -->
<g id="Node000005" class="node">
<title>Node5</title>
<g id="a_Node000005"><a xlink:href="main_8c.html#a282fee6b81618368a41e8ba4e575f62e" target="_top" xlink:title=" ">
<polygon fill="white" stroke="#666666" points="139,-19 77,-19 77,0 139,0 139,-19"/>
<text text-anchor="middle" x="108" y="-7" font-family="Helvetica,sans-Serif" font-size="10.00">MainTask</text>
</a>
</g>
</g>
<!-- Node4&#45;&gt;Node5 -->
<g id="edge4_Node000004_Node000005" class="edge">
<title>Node4&#45;&gt;Node5</title>
<g id="a_edge4_Node000004_Node000005"><a xlink:title=" ">
<path fill="none" stroke="#63b8ff" d="M164.78,-9.5C156.06,-9.5 147.23,-9.5 139.24,-9.5"/>
<polygon fill="#63b8ff" stroke="#63b8ff" points="164.92,-13 174.92,-9.5 164.92,-6 164.92,-13"/>
</a>
</g>
</g>
<!-- Node6 -->
<g id="Node000006" class="node">
<title>Node6</title>
<g id="a_Node000006"><a xlink:href="main_8c.html#a840291bc02cba5474a4cb46a9b9566fe" target="_top" xlink:title=" ">
<polygon fill="white" stroke="#666666" points="41,-19 0,-19 0,0 41,0 41,-19"/>
<text text-anchor="middle" x="20.5" y="-7" font-family="Helvetica,sans-Serif" font-size="10.00">main</text>
</a>
</g>
</g>
<!-- Node5&#45;&gt;Node6 -->
<g id="edge5_Node000005_Node000006" class="edge">
<title>Node5&#45;&gt;Node6</title>
<g id="a_edge5_Node000005_Node000006"><a xlink:title=" ">
<path fill="none" stroke="#63b8ff" d="M66.42,-9.5C57.6,-9.5 48.67,-9.5 41.11,-9.5"/>
<polygon fill="#63b8ff" stroke="#63b8ff" points="66.62,-13 76.62,-9.5 66.62,-6 66.62,-13"/>
</a>
</g>
</g>
</g>
</svg>
