<?xml version="1.0" encoding="UTF-8" standalone="no"?>
<!DOCTYPE svg PUBLIC "-//W3C//DTD SVG 1.1//EN"
 "http://www.w3.org/Graphics/SVG/1.1/DTD/svg11.dtd">
<!-- Generated by graphviz version 2.43.0 (0)
 -->
<!-- Title: otp_dump_after_boot Pages: 1 -->
<svg width="412pt" height="64pt"
 viewBox="0.00 0.00 412.00 64.00" xmlns="http://www.w3.org/2000/svg" xmlns:xlink="http://www.w3.org/1999/xlink">
<g id="graph0" class="graph" transform="scale(1 1) rotate(0) translate(4 60)">
<title>otp_dump_after_boot</title>
<!-- Node1 -->
<g id="Node000001" class="node">
<title>Node1</title>
<g id="a_Node000001"><a xlink:title=": This internal function is used to read OTP data after boot in user mode.">
<polygon fill="#999999" stroke="#666666" points="120,-37 0,-37 0,-18 120,-18 120,-37"/>
<text text-anchor="middle" x="60" y="-25" font-family="Helvetica,sans-Serif" font-size="10.00">otp_dump_after_boot</text>
</a>
</g>
</g>
<!-- Node2 -->
<g id="Node000002" class="node">
<title>Node2</title>
<g id="a_Node000002"><a xlink:href="group__internal.html#gac4725a1159ab828d155ad9d7a9acb577" target="_top" xlink:title="This internal function is used to read OTP word.">
<polygon fill="white" stroke="#666666" points="262,-56 173,-56 173,-37 262,-37 262,-56"/>
<text text-anchor="middle" x="217.5" y="-44" font-family="Helvetica,sans-Serif" font-size="10.00">read_otp_word</text>
</a>
</g>
</g>
<!-- Node1&#45;&gt;Node2 -->
<g id="edge1_Node000001_Node000002" class="edge">
<title>Node1&#45;&gt;Node2</title>
<g id="a_edge1_Node000001_Node000002"><a xlink:title=" ">
<path fill="none" stroke="#63b8ff" d="M120.23,-34.74C134.18,-36.44 148.98,-38.25 162.68,-39.92"/>
<polygon fill="#63b8ff" stroke="#63b8ff" points="162.56,-43.44 172.91,-41.17 163.41,-36.49 162.56,-43.44"/>
</a>
</g>
</g>
<!-- Node4 -->
<g id="Node000004" class="node">
<title>Node4</title>
<g id="a_Node000004"><a xlink:href="group__internal.html#ga9e55a3f509c447e659b6f1c0b1b3a367" target="_top" xlink:title="This internal function is used to update magnetometer offset and sensitivity data.">
<polygon fill="white" stroke="#666666" points="279,-19 156,-19 156,0 279,0 279,-19"/>
<text text-anchor="middle" x="217.5" y="-7" font-family="Helvetica,sans-Serif" font-size="10.00">update_mag_off_sens</text>
</a>
</g>
</g>
<!-- Node1&#45;&gt;Node4 -->
<g id="edge3_Node000001_Node000004" class="edge">
<title>Node1&#45;&gt;Node4</title>
<g id="a_edge3_Node000001_Node000004"><a xlink:title=" ">
<path fill="none" stroke="#63b8ff" d="M120.23,-20.64C128.62,-19.67 137.32,-18.67 145.89,-17.67"/>
<polygon fill="#63b8ff" stroke="#63b8ff" points="146.35,-21.14 155.89,-16.52 145.55,-14.19 146.35,-21.14"/>
</a>
</g>
</g>
<!-- Node3 -->
<g id="Node000003" class="node">
<title>Node3</title>
<g id="a_Node000003"><a xlink:href="group__internal.html#ga20057caad23a28a66e09535ad5fdf9de" target="_top" xlink:title=": This function handles errors when reading OTP register.">
<polygon fill="white" stroke="#666666" points="404,-56 315,-56 315,-37 404,-37 404,-56"/>
<text text-anchor="middle" x="359.5" y="-44" font-family="Helvetica,sans-Serif" font-size="10.00">OTP_E_handler</text>
</a>
</g>
</g>
<!-- Node2&#45;&gt;Node3 -->
<g id="edge2_Node000002_Node000003" class="edge">
<title>Node2&#45;&gt;Node3</title>
<g id="a_edge2_Node000002_Node000003"><a xlink:title=" ">
<path fill="none" stroke="#63b8ff" d="M262.03,-46.5C275.59,-46.5 290.71,-46.5 304.88,-46.5"/>
<polygon fill="#63b8ff" stroke="#63b8ff" points="305,-50 315,-46.5 305,-43 305,-50"/>
</a>
</g>
</g>
<!-- Node5 -->
<g id="Node000005" class="node">
<title>Node5</title>
<g id="a_Node000005"><a xlink:href="group__internal.html#gaa33f4de6a84f0a1c8582626cb6c1a28f" target="_top" xlink:title=": This function converts the ADC data from the BMM350 data registers to 32&#45;bit signed integer.">
<polygon fill="white" stroke="#666666" points="386.5,-19 332.5,-19 332.5,0 386.5,0 386.5,-19"/>
<text text-anchor="middle" x="359.5" y="-7" font-family="Helvetica,sans-Serif" font-size="10.00">fix_sign</text>
</a>
</g>
</g>
<!-- Node4&#45;&gt;Node5 -->
<g id="edge4_Node000004_Node000005" class="edge">
<title>Node4&#45;&gt;Node5</title>
<g id="a_edge4_Node000004_Node000005"><a xlink:title=" ">
<path fill="none" stroke="#63b8ff" d="M279.09,-9.5C293.79,-9.5 309.04,-9.5 322.21,-9.5"/>
<polygon fill="#63b8ff" stroke="#63b8ff" points="322.27,-13 332.27,-9.5 322.27,-6 322.27,-13"/>
</a>
</g>
</g>
</g>
</svg>
