<?xml version="1.0" encoding="UTF-8" standalone="no"?>
<!DOCTYPE svg PUBLIC "-//W3C//DTD SVG 1.1//EN"
 "http://www.w3.org/Graphics/SVG/1.1/DTD/svg11.dtd">
<!-- Generated by graphviz version 2.43.0 (0)
 -->
<!-- Title: null_ptr_check Pages: 1 -->
<svg width="890pt" height="255pt"
 viewBox="0.00 0.00 890.00 255.00" xmlns="http://www.w3.org/2000/svg" xmlns:xlink="http://www.w3.org/1999/xlink">
<g id="graph0" class="graph" transform="scale(1 1) rotate(0) translate(4 251)">
<title>null_ptr_check</title>
<!-- Node1 -->
<g id="Node000001" class="node">
<title>Node1</title>
<g id="a_Node000001"><a xlink:title=": This internal function* is used to validate the device structure pointer for null conditions.">
<polygon fill="#999999" stroke="#666666" points="882,-133 795,-133 795,-114 882,-114 882,-133"/>
<text text-anchor="middle" x="838.5" y="-121" font-family="Helvetica,sans-Serif" font-size="10.00">null_ptr_check</text>
</a>
</g>
</g>
<!-- Node2 -->
<g id="Node000002" class="node">
<title>Node2</title>
<g id="a_Node000002"><a xlink:href="group__sensor__api.html#ga72d6f07d31b60e050c8aa62086737aab" target="_top" xlink:title="This function is used to read a register from the BMM350 sensor.">
<polygon fill="white" stroke="#666666" points="757.5,-247 649.5,-247 649.5,-228 757.5,-228 757.5,-247"/>
<text text-anchor="middle" x="703.5" y="-235" font-family="Helvetica,sans-Serif" font-size="10.00">bmm350_I2C_read</text>
</a>
</g>
</g>
<!-- Node1&#45;&gt;Node2 -->
<g id="edge1_Node000001_Node000002" class="edge">
<title>Node1&#45;&gt;Node2</title>
<g id="a_edge1_Node000001_Node000002"><a xlink:title=" ">
<path fill="none" stroke="#63b8ff" d="M825.43,-141.58C811.43,-161.41 786.68,-193.14 759,-213.5 751,-219.38 741.34,-224.23 732.39,-227.99"/>
<polygon fill="#63b8ff" stroke="#63b8ff" points="828.45,-143.36 831.25,-133.14 822.69,-139.39 828.45,-143.36"/>
</a>
</g>
</g>
<!-- Node3 -->
<g id="Node000003" class="node">
<title>Node3</title>
<g id="a_Node000003"><a xlink:href="group__sensor__api.html#gaf0d2cb8fdf5e0a70d975e96f2366726e" target="_top" xlink:title="This function initialize the BMM350 device structure and the adaptive filter.">
<polygon fill="white" stroke="#666666" points="597.5,-190 483.5,-190 483.5,-171 597.5,-171 597.5,-190"/>
<text text-anchor="middle" x="540.5" y="-178" font-family="Helvetica,sans-Serif" font-size="10.00">bmm350_init_struct</text>
</a>
</g>
</g>
<!-- Node1&#45;&gt;Node3 -->
<g id="edge9_Node000001_Node000003" class="edge">
<title>Node1&#45;&gt;Node3</title>
<g id="a_edge9_Node000001_Node000003"><a xlink:title=" ">
<path fill="none" stroke="#63b8ff" d="M821.18,-140.2C806.42,-154.01 783.33,-172.6 759,-180.5 706.21,-197.65 642.33,-195.1 597.5,-189.82"/>
<polygon fill="#63b8ff" stroke="#63b8ff" points="823.74,-142.59 828.48,-133.11 818.86,-137.57 823.74,-142.59"/>
</a>
</g>
</g>
<!-- Node4 -->
<g id="Node000004" class="node">
<title>Node4</title>
<g id="a_Node000004"><a xlink:href="group__sensor__api.html#gadc0b3dcb4a399bb38273981b2d47e697" target="_top" xlink:title="This function to initialize the BMM350 registers and enable Normal Mode.">
<polygon fill="white" stroke="#666666" points="256,-111 175,-111 175,-92 256,-92 256,-111"/>
<text text-anchor="middle" x="215.5" y="-99" font-family="Helvetica,sans-Serif" font-size="10.00">bmm350_init</text>
</a>
</g>
</g>
<!-- Node1&#45;&gt;Node4 -->
<g id="edge8_Node000001_Node000004" class="edge">
<title>Node1&#45;&gt;Node4</title>
<g id="a_edge8_Node000001_Node000004"><a xlink:title=" ">
<path fill="none" stroke="#63b8ff" d="M784.53,-121.74C687.05,-118.49 472.68,-111.24 292,-104.5 280.33,-104.07 267.65,-103.57 256.07,-103.11"/>
<polygon fill="#63b8ff" stroke="#63b8ff" points="784.6,-125.25 794.71,-122.08 784.83,-118.25 784.6,-125.25"/>
</a>
</g>
</g>
<!-- Node7 -->
<g id="Node000007" class="node">
<title>Node7</title>
<g id="a_Node000007"><a xlink:href="group__sensor__api.html#ga1de7d1421454a2345f94c9c05846496c" target="_top" xlink:title="This function is used to write data to a register in the BMM350 sensor.">
<polygon fill="white" stroke="#666666" points="759,-171 648,-171 648,-152 759,-152 759,-171"/>
<text text-anchor="middle" x="703.5" y="-159" font-family="Helvetica,sans-Serif" font-size="10.00">bmm350_I2C_write</text>
</a>
</g>
</g>
<!-- Node1&#45;&gt;Node7 -->
<g id="edge6_Node000001_Node000007" class="edge">
<title>Node1&#45;&gt;Node7</title>
<g id="a_edge6_Node000001_Node000007"><a xlink:title=" ">
<path fill="none" stroke="#63b8ff" d="M794.13,-135.89C775.92,-141.09 755.06,-147.05 738.05,-151.91"/>
<polygon fill="#63b8ff" stroke="#63b8ff" points="795.28,-139.2 803.94,-133.09 793.36,-132.47 795.28,-139.2"/>
</a>
</g>
</g>
<!-- Node8 -->
<g id="Node000008" class="node">
<title>Node8</title>
<g id="a_Node000008"><a xlink:href="group__sensor__api.html#gad144c7b4fcd5e9f22b261b1d3ee9b1fa" target="_top" xlink:title="This function is used to perform the magnetic reset of the sensor which is necessary after a field sh...">
<polygon fill="white" stroke="#666666" points="433,-95.5 292,-95.5 292,-65.5 433,-65.5 433,-95.5"/>
<text text-anchor="start" x="300" y="-83.5" font-family="Helvetica,sans-Serif" font-size="10.00">bmm350_magnetic_reset</text>
<text text-anchor="middle" x="362.5" y="-72.5" font-family="Helvetica,sans-Serif" font-size="10.00">_and_wait</text>
</a>
</g>
</g>
<!-- Node1&#45;&gt;Node8 -->
<g id="edge10_Node000001_Node000008" class="edge">
<title>Node1&#45;&gt;Node8</title>
<g id="a_edge10_Node000001_Node000008"><a xlink:title=" ">
<path fill="none" stroke="#63b8ff" d="M784.87,-113.34C776.25,-111.9 767.39,-110.55 759,-109.5 645.26,-95.23 512.17,-87.25 433.02,-83.42"/>
<polygon fill="#63b8ff" stroke="#63b8ff" points="784.39,-116.81 794.84,-115.07 785.59,-109.91 784.39,-116.81"/>
</a>
</g>
</g>
<!-- Node9 -->
<g id="Node000009" class="node">
<title>Node9</title>
<g id="a_Node000009"><a xlink:href="group__sensor__api.html#ga29af58551105e397e6a05e91f3e05aa1" target="_top" xlink:title="This function is used to set the power mode of the sensor.">
<polygon fill="white" stroke="#666666" points="612,-52 469,-52 469,-33 612,-33 612,-52"/>
<text text-anchor="middle" x="540.5" y="-40" font-family="Helvetica,sans-Serif" font-size="10.00">bmm350_set_powermode</text>
</a>
</g>
</g>
<!-- Node1&#45;&gt;Node9 -->
<g id="edge12_Node000001_Node000009" class="edge">
<title>Node1&#45;&gt;Node9</title>
<g id="a_edge12_Node000001_Node000009"><a xlink:title=" ">
<path fill="none" stroke="#63b8ff" d="M818.68,-107.46C803.57,-95.5 781.26,-79.85 759,-71.5 711.92,-53.84 655.56,-46.68 612.01,-43.89"/>
<polygon fill="#63b8ff" stroke="#63b8ff" points="816.73,-110.38 826.69,-113.99 821.16,-104.96 816.73,-110.38"/>
</a>
</g>
</g>
<!-- Node10 -->
<g id="Node000010" class="node">
<title>Node10</title>
<g id="a_Node000010"><a xlink:href="group__sensor__api.html#ga26a3e3d11b80083b5f72c060d931728b" target="_top" xlink:title="This function is used to switch from suspend mode to normal mode or forced mode.">
<polygon fill="white" stroke="#666666" points="751,-19 656,-19 656,0 751,0 751,-19"/>
<text text-anchor="middle" x="703.5" y="-7" font-family="Helvetica,sans-Serif" font-size="10.00">set_powermode</text>
</a>
</g>
</g>
<!-- Node1&#45;&gt;Node10 -->
<g id="edge15_Node000001_Node000010" class="edge">
<title>Node1&#45;&gt;Node10</title>
<g id="a_edge15_Node000001_Node000010"><a xlink:title=" ">
<path fill="none" stroke="#63b8ff" d="M825.43,-105.42C811.43,-85.59 786.68,-53.86 759,-33.5 751,-27.62 741.34,-22.77 732.39,-19.01"/>
<polygon fill="#63b8ff" stroke="#63b8ff" points="822.69,-107.61 831.25,-113.86 828.45,-103.64 822.69,-107.61"/>
</a>
</g>
</g>
<!-- Node2&#45;&gt;Node3 -->
<g id="edge2_Node000002_Node000003" class="edge">
<title>Node2&#45;&gt;Node3</title>
<g id="a_edge2_Node000002_Node000003"><a xlink:title=" ">
<path fill="none" stroke="#63b8ff" d="M665.98,-224.57C636.36,-214.08 595.27,-199.54 568.54,-190.07"/>
<polygon fill="#63b8ff" stroke="#63b8ff" points="664.96,-227.92 675.55,-227.96 667.29,-221.32 664.96,-227.92"/>
</a>
</g>
</g>
<!-- Node3&#45;&gt;Node4 -->
<g id="edge3_Node000003_Node000004" class="edge">
<title>Node3&#45;&gt;Node4</title>
<g id="a_edge3_Node000003_Node000004"><a xlink:title=" ">
<path fill="none" stroke="#63b8ff" d="M473.27,-173.97C422.74,-167.8 351.87,-156.58 292,-137.5 270.83,-130.75 248,-119.21 233.05,-111.02"/>
<polygon fill="#63b8ff" stroke="#63b8ff" points="473.07,-177.47 483.41,-175.17 473.9,-170.52 473.07,-177.47"/>
</a>
</g>
</g>
<!-- Node5 -->
<g id="Node000005" class="node">
<title>Node5</title>
<g id="a_Node000005"><a xlink:href="main_8c.html#a282fee6b81618368a41e8ba4e575f62e" target="_top" xlink:title=" ">
<polygon fill="white" stroke="#666666" points="139,-111 77,-111 77,-92 139,-92 139,-111"/>
<text text-anchor="middle" x="108" y="-99" font-family="Helvetica,sans-Serif" font-size="10.00">MainTask</text>
</a>
</g>
</g>
<!-- Node4&#45;&gt;Node5 -->
<g id="edge4_Node000004_Node000005" class="edge">
<title>Node4&#45;&gt;Node5</title>
<g id="a_edge4_Node000004_Node000005"><a xlink:title=" ">
<path fill="none" stroke="#63b8ff" d="M164.78,-101.5C156.06,-101.5 147.23,-101.5 139.24,-101.5"/>
<polygon fill="#63b8ff" stroke="#63b8ff" points="164.92,-105 174.92,-101.5 164.92,-98 164.92,-105"/>
</a>
</g>
</g>
<!-- Node6 -->
<g id="Node000006" class="node">
<title>Node6</title>
<g id="a_Node000006"><a xlink:href="main_8c.html#a840291bc02cba5474a4cb46a9b9566fe" target="_top" xlink:title=" ">
<polygon fill="white" stroke="#666666" points="41,-111 0,-111 0,-92 41,-92 41,-111"/>
<text text-anchor="middle" x="20.5" y="-99" font-family="Helvetica,sans-Serif" font-size="10.00">main</text>
</a>
</g>
</g>
<!-- Node5&#45;&gt;Node6 -->
<g id="edge5_Node000005_Node000006" class="edge">
<title>Node5&#45;&gt;Node6</title>
<g id="a_edge5_Node000005_Node000006"><a xlink:title=" ">
<path fill="none" stroke="#63b8ff" d="M66.42,-101.5C57.6,-101.5 48.67,-101.5 41.11,-101.5"/>
<polygon fill="#63b8ff" stroke="#63b8ff" points="66.62,-105 76.62,-101.5 66.62,-98 66.62,-105"/>
</a>
</g>
</g>
<!-- Node7&#45;&gt;Node3 -->
<g id="edge7_Node000007_Node000003" class="edge">
<title>Node7&#45;&gt;Node3</title>
<g id="a_edge7_Node000007_Node000003"><a xlink:title=" ">
<path fill="none" stroke="#63b8ff" d="M637.93,-169.12C624.58,-170.7 610.62,-172.34 597.6,-173.88"/>
<polygon fill="#63b8ff" stroke="#63b8ff" points="638.47,-172.58 647.99,-167.93 637.65,-165.63 638.47,-172.58"/>
</a>
</g>
</g>
<!-- Node8&#45;&gt;Node4 -->
<g id="edge11_Node000008_Node000004" class="edge">
<title>Node8&#45;&gt;Node4</title>
<g id="a_edge11_Node000008_Node000004"><a xlink:title=" ">
<path fill="none" stroke="#63b8ff" d="M281.96,-92.02C273.12,-93.3 264.42,-94.56 256.39,-95.72"/>
<polygon fill="#63b8ff" stroke="#63b8ff" points="282.58,-95.47 291.97,-90.57 281.57,-88.54 282.58,-95.47"/>
</a>
</g>
</g>
<!-- Node9&#45;&gt;Node4 -->
<g id="edge13_Node000009_Node000004" class="edge">
<title>Node9&#45;&gt;Node4</title>
<g id="a_edge13_Node000009_Node000004"><a xlink:title=" ">
<path fill="none" stroke="#63b8ff" d="M458.59,-37.45C409.39,-36.72 345.88,-40.01 292,-56.5 267.49,-64 242.63,-81.04 228.44,-91.86"/>
<polygon fill="#63b8ff" stroke="#63b8ff" points="458.79,-40.96 468.86,-37.66 458.93,-33.96 458.79,-40.96"/>
</a>
</g>
</g>
<!-- Node9&#45;&gt;Node8 -->
<g id="edge14_Node000009_Node000008" class="edge">
<title>Node9&#45;&gt;Node8</title>
<g id="a_edge14_Node000009_Node000008"><a xlink:title=" ">
<path fill="none" stroke="#63b8ff" d="M485.14,-54.24C468.74,-57.78 450.5,-61.71 433.25,-65.44"/>
<polygon fill="#63b8ff" stroke="#63b8ff" points="486.05,-57.62 495.09,-52.09 484.57,-50.78 486.05,-57.62"/>
</a>
</g>
</g>
<!-- Node10&#45;&gt;Node9 -->
<g id="edge16_Node000010_Node000009" class="edge">
<title>Node10&#45;&gt;Node9</title>
<g id="a_edge16_Node000010_Node000009"><a xlink:title=" ">
<path fill="none" stroke="#63b8ff" d="M645.93,-21.1C626.97,-24.98 606.06,-29.27 587.96,-32.98"/>
<polygon fill="#63b8ff" stroke="#63b8ff" points="646.84,-24.48 655.93,-19.04 645.43,-17.62 646.84,-24.48"/>
</a>
</g>
</g>
</g>
</svg>
