<?xml version="1.0" encoding="UTF-8" standalone="no"?>
<!DOCTYPE svg PUBLIC "-//W3C//DTD SVG 1.1//EN"
 "http://www.w3.org/Graphics/SVG/1.1/DTD/svg11.dtd">
<!-- Generated by graphviz version 2.43.0 (0)
 -->
<!-- Title: MainTask Pages: 1 -->
<svg width="1008pt" height="457pt"
 viewBox="0.00 0.00 1008.00 457.00" xmlns="http://www.w3.org/2000/svg" xmlns:xlink="http://www.w3.org/1999/xlink">
<g id="graph0" class="graph" transform="scale(1 1) rotate(0) translate(4 453)">
<title>MainTask</title>
<!-- Node1 -->
<g id="Node000001" class="node">
<title>Node1</title>
<g id="a_Node000001"><a xlink:title=" ">
<polygon fill="#999999" stroke="#666666" points="62,-169 0,-169 0,-150 62,-150 62,-169"/>
<text text-anchor="middle" x="31" y="-157" font-family="Helvetica,sans-Serif" font-size="10.00">MainTask</text>
</a>
</g>
</g>
<!-- Node2 -->
<g id="Node000002" class="node">
<title>Node2</title>
<g id="a_Node000002"><a xlink:href="group__user.html#gadc0b3dcb4a399bb38273981b2d47e697" target="_top" xlink:title="This function to initialize the BMM350 registers and enable Normal Mode.">
<polygon fill="white" stroke="#666666" points="195,-263 114,-263 114,-244 195,-244 195,-263"/>
<text text-anchor="middle" x="154.5" y="-251" font-family="Helvetica,sans-Serif" font-size="10.00">bmm350_init</text>
</a>
</g>
</g>
<!-- Node1&#45;&gt;Node2 -->
<g id="edge1_Node000001_Node000002" class="edge">
<title>Node1&#45;&gt;Node2</title>
<g id="a_edge1_Node000001_Node000002"><a xlink:title=" ">
<path fill="none" stroke="#63b8ff" d="M44.55,-169.21C65.48,-185.4 107.73,-218.09 133.03,-237.66"/>
<polygon fill="#63b8ff" stroke="#63b8ff" points="131.15,-240.64 141.2,-243.99 135.44,-235.1 131.15,-240.64"/>
</a>
</g>
</g>
<!-- Node19 -->
<g id="Node000019" class="node">
<title>Node19</title>
<g id="a_Node000019"><a xlink:href="group__user.html#gae1c1a63d4a6fe6c7804473250ac24eee" target="_top" xlink:title="This function is used to get yaw value.">
<polygon fill="white" stroke="#666666" points="211,-94 98,-94 98,-75 211,-75 211,-94"/>
<text text-anchor="middle" x="154.5" y="-82" font-family="Helvetica,sans-Serif" font-size="10.00">bmm350_read_yaw</text>
</a>
</g>
</g>
<!-- Node1&#45;&gt;Node19 -->
<g id="edge26_Node000001_Node000019" class="edge">
<title>Node1&#45;&gt;Node19</title>
<g id="a_edge26_Node000001_Node000019"><a xlink:title=" ">
<path fill="none" stroke="#63b8ff" d="M47.88,-149.7C68.65,-136.88 105.2,-114.31 129.39,-99.38"/>
<polygon fill="#63b8ff" stroke="#63b8ff" points="131.33,-102.3 138,-94.07 127.65,-96.34 131.33,-102.3"/>
</a>
</g>
</g>
<!-- Node3 -->
<g id="Node000003" class="node">
<title>Node3</title>
<g id="a_Node000003"><a xlink:href="group__user__internal.html#ga8b94b8f6dfd15fcb4c38f2ea34c79ae4" target="_top" xlink:title="This function gets the PMU command status 0 register (0x07) and PMU command status 1 register (0x08) ...">
<polygon fill="white" stroke="#666666" points="567,-373.5 433,-373.5 433,-343.5 567,-343.5 567,-373.5"/>
<text text-anchor="start" x="441" y="-361.5" font-family="Helvetica,sans-Serif" font-size="10.00">bmm350_get_pmu_cmd</text>
<text text-anchor="middle" x="500" y="-350.5" font-family="Helvetica,sans-Serif" font-size="10.00">_status</text>
</a>
</g>
</g>
<!-- Node2&#45;&gt;Node3 -->
<g id="edge2_Node000002_Node000003" class="edge">
<title>Node2&#45;&gt;Node3</title>
<g id="a_edge2_Node000002_Node000003"><a xlink:title=" ">
<path fill="none" stroke="#63b8ff" d="M162.19,-263.19C175.71,-281.86 208.29,-322.45 247,-339.5 302.34,-363.87 371.12,-367.51 422.84,-365.67"/>
<polygon fill="#63b8ff" stroke="#63b8ff" points="423.11,-369.16 432.95,-365.24 422.81,-362.17 423.11,-369.16"/>
</a>
</g>
</g>
<!-- Node4 -->
<g id="Node000004" class="node">
<title>Node4</title>
<g id="a_Node000004"><a xlink:href="group__internal.html#gaf0d2cb8fdf5e0a70d975e96f2366726e" target="_top" xlink:title="This function initialize the BMM350 device structure and the adaptive filter.">
<polygon fill="white" stroke="#666666" points="557,-228 443,-228 443,-209 557,-209 557,-228"/>
<text text-anchor="middle" x="500" y="-216" font-family="Helvetica,sans-Serif" font-size="10.00">bmm350_init_struct</text>
</a>
</g>
</g>
<!-- Node2&#45;&gt;Node4 -->
<g id="edge3_Node000002_Node000004" class="edge">
<title>Node2&#45;&gt;Node4</title>
<g id="a_edge3_Node000002_Node000004"><a xlink:title=" ">
<path fill="none" stroke="#63b8ff" d="M195.24,-249.45C253.39,-243.53 362.4,-232.42 432.79,-225.25"/>
<polygon fill="#63b8ff" stroke="#63b8ff" points="433.29,-228.71 442.88,-224.22 432.58,-221.75 433.29,-228.71"/>
</a>
</g>
</g>
<!-- Node6 -->
<g id="Node000006" class="node">
<title>Node6</title>
<g id="a_Node000006"><a xlink:href="group__internal.html#ga3fa3449c50ffe2d91fd5f1c127892356" target="_top" xlink:title=": This internal function* is used to validate the device structure pointer for null conditions.">
<polygon fill="white" stroke="#666666" points="878,-250 791,-250 791,-231 878,-231 878,-250"/>
<text text-anchor="middle" x="834.5" y="-238" font-family="Helvetica,sans-Serif" font-size="10.00">null_ptr_check</text>
</a>
</g>
</g>
<!-- Node2&#45;&gt;Node6 -->
<g id="edge20_Node000002_Node000006" class="edge">
<title>Node2&#45;&gt;Node6</title>
<g id="a_edge20_Node000002_Node000006"><a xlink:title=" ">
<path fill="none" stroke="#63b8ff" d="M183.1,-243.95C282.86,-210.11 624.09,-100.31 723,-146.5 745.58,-157.05 740.54,-172.75 759,-189.5 774.09,-203.2 793.07,-216.14 808.09,-225.55"/>
<polygon fill="#63b8ff" stroke="#63b8ff" points="806.51,-228.69 816.87,-230.94 810.18,-222.72 806.51,-228.69"/>
</a>
</g>
</g>
<!-- Node8 -->
<g id="Node000008" class="node">
<title>Node8</title>
<g id="a_Node000008"><a xlink:href="group__user.html#gad144c7b4fcd5e9f22b261b1d3ee9b1fa" target="_top" xlink:title="Performs a magnetic reset of the BMM350 sensor. This is necessary when: The sensor may have been expo...">
<polygon fill="white" stroke="#666666" points="388,-330.5 247,-330.5 247,-300.5 388,-300.5 388,-330.5"/>
<text text-anchor="start" x="255" y="-318.5" font-family="Helvetica,sans-Serif" font-size="10.00">bmm350_magnetic_reset</text>
<text text-anchor="middle" x="317.5" y="-307.5" font-family="Helvetica,sans-Serif" font-size="10.00">_and_wait</text>
</a>
</g>
</g>
<!-- Node2&#45;&gt;Node8 -->
<g id="edge9_Node000002_Node000008" class="edge">
<title>Node2&#45;&gt;Node8</title>
<g id="a_edge9_Node000002_Node000008"><a xlink:title=" ">
<path fill="none" stroke="#63b8ff" d="M180.3,-263.05C203.52,-271.99 238.87,-285.6 267.73,-296.72"/>
<polygon fill="#63b8ff" stroke="#63b8ff" points="266.66,-300.06 277.25,-300.38 269.17,-293.52 266.66,-300.06"/>
</a>
</g>
</g>
<!-- Node9 -->
<g id="Node000009" class="node">
<title>Node9</title>
<g id="a_Node000009"><a xlink:href="group__user__internal.html#ga29af58551105e397e6a05e91f3e05aa1" target="_top" xlink:title="This function is used to set the power mode of the sensor.">
<polygon fill="white" stroke="#666666" points="571.5,-287 428.5,-287 428.5,-268 571.5,-268 571.5,-287"/>
<text text-anchor="middle" x="500" y="-275" font-family="Helvetica,sans-Serif" font-size="10.00">bmm350_set_powermode</text>
</a>
</g>
</g>
<!-- Node2&#45;&gt;Node9 -->
<g id="edge17_Node000002_Node000009" class="edge">
<title>Node2&#45;&gt;Node9</title>
<g id="a_edge17_Node000002_Node000009"><a xlink:title=" ">
<path fill="none" stroke="#63b8ff" d="M195.24,-256.28C249.52,-260.07 348.11,-266.96 418.24,-271.86"/>
<polygon fill="#63b8ff" stroke="#63b8ff" points="418.15,-275.36 428.37,-272.57 418.64,-268.38 418.15,-275.36"/>
</a>
</g>
</g>
<!-- Node11 -->
<g id="Node000011" class="node">
<title>Node11</title>
<g id="a_Node000011"><a xlink:href="group__internal.html#ga2ab089a6f332be8164468ab654caa077" target="_top" xlink:title="This internal function configures the odr (Output Data Rate) and avg (Measurements Averages) in regis...">
<polygon fill="white" stroke="#666666" points="387,-168 248,-168 248,-149 387,-149 387,-168"/>
<text text-anchor="middle" x="317.5" y="-156" font-family="Helvetica,sans-Serif" font-size="10.00">bmm350_odr_avg_config</text>
</a>
</g>
</g>
<!-- Node2&#45;&gt;Node11 -->
<g id="edge16_Node000002_Node000011" class="edge">
<title>Node2&#45;&gt;Node11</title>
<g id="a_edge16_Node000002_Node000011"><a xlink:title=" ">
<path fill="none" stroke="#63b8ff" d="M165.42,-243.99C181.43,-229.09 214.47,-200.11 247,-182.5 254.83,-178.26 263.55,-174.55 272.1,-171.39"/>
<polygon fill="#63b8ff" stroke="#63b8ff" points="273.33,-174.67 281.62,-168.07 271.02,-168.06 273.33,-174.67"/>
</a>
</g>
</g>
<!-- Node12 -->
<g id="Node000012" class="node">
<title>Node12</title>
<g id="a_Node000012"><a xlink:href="group__user__internal.html#gadcb32b687a9a607733c245838dc1063e" target="_top" xlink:title="This function checks I2C communication status.">
<polygon fill="white" stroke="#666666" points="359,-131 276,-131 276,-112 359,-112 359,-131"/>
<text text-anchor="middle" x="317.5" y="-119" font-family="Helvetica,sans-Serif" font-size="10.00">check_device</text>
</a>
</g>
</g>
<!-- Node2&#45;&gt;Node12 -->
<g id="edge18_Node000002_Node000012" class="edge">
<title>Node2&#45;&gt;Node12</title>
<g id="a_edge18_Node000002_Node000012"><a xlink:title=" ">
<path fill="none" stroke="#63b8ff" d="M160.42,-243.81C172.19,-221.68 204.16,-167.2 247,-139.5 252.77,-135.77 259.27,-132.81 265.93,-130.47"/>
<polygon fill="#63b8ff" stroke="#63b8ff" points="267.19,-133.74 275.72,-127.45 265.13,-127.05 267.19,-133.74"/>
</a>
</g>
</g>
<!-- Node13 -->
<g id="Node000013" class="node">
<title>Node13</title>
<g id="a_Node000013"><a xlink:href="group__internal.html#ga2bbcdef34d88b58cf90bcd1b96caf3b5" target="_top" xlink:title="This function initialize the device structure and configures the INT_CTRL register (0x2E)">
<polygon fill="white" stroke="#666666" points="364,-446 271,-446 271,-427 364,-427 364,-446"/>
<text text-anchor="middle" x="317.5" y="-434" font-family="Helvetica,sans-Serif" font-size="10.00">interrupt_config</text>
</a>
</g>
</g>
<!-- Node2&#45;&gt;Node13 -->
<g id="edge19_Node000002_Node000013" class="edge">
<title>Node2&#45;&gt;Node13</title>
<g id="a_edge19_Node000002_Node000013"><a xlink:title=" ">
<path fill="none" stroke="#63b8ff" d="M157.92,-263.08C165.63,-291.53 192.36,-376.18 247,-418.5 251.31,-421.84 256.18,-424.56 261.29,-426.78"/>
<polygon fill="#63b8ff" stroke="#63b8ff" points="260.08,-430.07 270.67,-430.26 262.51,-423.5 260.08,-430.07"/>
</a>
</g>
</g>
<!-- Node14 -->
<g id="Node000014" class="node">
<title>Node14</title>
<g id="a_Node000014"><a xlink:href="group__internal.html#ga2cf75153d40498769db298ba34a15d0e" target="_top" xlink:title=": This internal function is used to read OTP data after boot in user mode.">
<polygon fill="white" stroke="#666666" points="377.5,-409 257.5,-409 257.5,-390 377.5,-390 377.5,-409"/>
<text text-anchor="middle" x="317.5" y="-397" font-family="Helvetica,sans-Serif" font-size="10.00">otp_dump_after_boot</text>
</a>
</g>
</g>
<!-- Node2&#45;&gt;Node14 -->
<g id="edge21_Node000002_Node000014" class="edge">
<title>Node2&#45;&gt;Node14</title>
<g id="a_edge21_Node000002_Node000014"><a xlink:title=" ">
<path fill="none" stroke="#63b8ff" d="M160.55,-263.27C172.58,-285.65 205.08,-341.09 247,-372.5 254.38,-378.03 263.03,-382.57 271.68,-386.25"/>
<polygon fill="#63b8ff" stroke="#63b8ff" points="270.42,-389.51 281,-389.9 272.97,-382.99 270.42,-389.51"/>
</a>
</g>
</g>
<!-- Node5 -->
<g id="Node000005" class="node">
<title>Node5</title>
<g id="a_Node000005"><a xlink:href="group__user__internal.html#ga72d6f07d31b60e050c8aa62086737aab" target="_top" xlink:title="This function is used to read a register from the BMM350 sensor.">
<polygon fill="white" stroke="#666666" points="721.5,-175 613.5,-175 613.5,-156 721.5,-156 721.5,-175"/>
<text text-anchor="middle" x="667.5" y="-163" font-family="Helvetica,sans-Serif" font-size="10.00">bmm350_I2C_read</text>
</a>
</g>
</g>
<!-- Node4&#45;&gt;Node5 -->
<g id="edge4_Node000004_Node000005" class="edge">
<title>Node4&#45;&gt;Node5</title>
<g id="a_edge4_Node000004_Node000005"><a xlink:title=" ">
<path fill="none" stroke="#63b8ff" d="M530.97,-208.9C557.92,-200.27 597.68,-187.54 627.18,-178.09"/>
<polygon fill="#63b8ff" stroke="#63b8ff" points="628.3,-181.41 636.75,-175.03 626.16,-174.74 628.3,-181.41"/>
</a>
</g>
</g>
<!-- Node4&#45;&gt;Node6 -->
<g id="edge8_Node000004_Node000006" class="edge">
<title>Node4&#45;&gt;Node6</title>
<g id="a_edge8_Node000004_Node000006"><a xlink:title=" ">
<path fill="none" stroke="#63b8ff" d="M557.03,-222.21C619.49,-226.34 719.72,-232.97 780.8,-237.01"/>
<polygon fill="#63b8ff" stroke="#63b8ff" points="780.78,-240.52 790.99,-237.69 781.25,-233.53 780.78,-240.52"/>
</a>
</g>
</g>
<!-- Node7 -->
<g id="Node000007" class="node">
<title>Node7</title>
<g id="a_Node000007"><a xlink:href="group__user__internal.html#ga1de7d1421454a2345f94c9c05846496c" target="_top" xlink:title="This function is used to write data to a register in the BMM350 sensor.">
<polygon fill="white" stroke="#666666" points="723,-212 612,-212 612,-193 723,-193 723,-212"/>
<text text-anchor="middle" x="667.5" y="-200" font-family="Helvetica,sans-Serif" font-size="10.00">bmm350_I2C_write</text>
</a>
</g>
</g>
<!-- Node4&#45;&gt;Node7 -->
<g id="edge6_Node000004_Node000007" class="edge">
<title>Node4&#45;&gt;Node7</title>
<g id="a_edge6_Node000004_Node000007"><a xlink:title=" ">
<path fill="none" stroke="#63b8ff" d="M557.03,-213.08C571.43,-211.69 587.04,-210.18 601.84,-208.75"/>
<polygon fill="#63b8ff" stroke="#63b8ff" points="602.31,-212.22 611.93,-207.78 601.64,-205.25 602.31,-212.22"/>
</a>
</g>
</g>
<!-- Node5&#45;&gt;Node6 -->
<g id="edge5_Node000005_Node000006" class="edge">
<title>Node5&#45;&gt;Node6</title>
<g id="a_edge5_Node000005_Node000006"><a xlink:title=" ">
<path fill="none" stroke="#63b8ff" d="M700.22,-175.04C707.77,-177.57 715.74,-180.45 723,-183.5 753.13,-196.15 786.26,-213.77 808.31,-226.06"/>
<polygon fill="#63b8ff" stroke="#63b8ff" points="806.61,-229.12 817.04,-230.97 810.04,-223.02 806.61,-229.12"/>
</a>
</g>
</g>
<!-- Node7&#45;&gt;Node6 -->
<g id="edge7_Node000007_Node000006" class="edge">
<title>Node7&#45;&gt;Node6</title>
<g id="a_edge7_Node000007_Node000006"><a xlink:title=" ">
<path fill="none" stroke="#63b8ff" d="M710.14,-212.09C732.01,-217.13 759.01,-223.34 782.16,-228.68"/>
<polygon fill="#63b8ff" stroke="#63b8ff" points="781.63,-232.15 792.16,-230.98 783.2,-225.32 781.63,-232.15"/>
</a>
</g>
</g>
<!-- Node8&#45;&gt;Node3 -->
<g id="edge10_Node000008_Node000003" class="edge">
<title>Node8&#45;&gt;Node3</title>
<g id="a_edge10_Node000008_Node000003"><a xlink:title=" ">
<path fill="none" stroke="#63b8ff" d="M381.63,-330.54C395.92,-333.94 411.21,-337.59 425.87,-341.08"/>
<polygon fill="#63b8ff" stroke="#63b8ff" points="425.37,-344.56 435.91,-343.47 426.99,-337.75 425.37,-344.56"/>
</a>
</g>
</g>
<!-- Node8&#45;&gt;Node6 -->
<g id="edge15_Node000008_Node000006" class="edge">
<title>Node8&#45;&gt;Node6</title>
<g id="a_edge15_Node000008_Node000006"><a xlink:title=" ">
<path fill="none" stroke="#63b8ff" d="M388.3,-320.17C487.13,-325.95 662.55,-332.95 723,-314.5 759.88,-303.24 795.66,-275.18 816.09,-257.03"/>
<polygon fill="#63b8ff" stroke="#63b8ff" points="818.59,-259.49 823.62,-250.17 813.87,-254.32 818.59,-259.49"/>
</a>
</g>
</g>
<!-- Node8&#45;&gt;Node9 -->
<g id="edge11_Node000008_Node000009" class="edge">
<title>Node8&#45;&gt;Node9</title>
<g id="a_edge11_Node000008_Node000009"><a xlink:title=" ">
<path fill="none" stroke="#63b8ff" d="M388.03,-300.86C406.46,-296.98 426.11,-292.85 443.67,-289.15"/>
<polygon fill="#63b8ff" stroke="#63b8ff" points="444.68,-292.51 453.74,-287.03 443.24,-285.66 444.68,-292.51"/>
</a>
</g>
</g>
<!-- Node9&#45;&gt;Node6 -->
<g id="edge12_Node000009_Node000006" class="edge">
<title>Node9&#45;&gt;Node6</title>
<g id="a_edge12_Node000009_Node000006"><a xlink:title=" ">
<path fill="none" stroke="#63b8ff" d="M533.85,-287.04C577.61,-298.26 657.19,-313.47 723,-297.5 756.04,-289.48 790.25,-269.75 811.69,-255.76"/>
<polygon fill="#63b8ff" stroke="#63b8ff" points="813.68,-258.63 820.05,-250.17 809.79,-252.82 813.68,-258.63"/>
</a>
</g>
</g>
<!-- Node10 -->
<g id="Node000010" class="node">
<title>Node10</title>
<g id="a_Node000010"><a xlink:href="group__internal.html#ga26a3e3d11b80083b5f72c060d931728b" target="_top" xlink:title="This function is used to switch from suspend mode to normal mode or forced mode.">
<polygon fill="white" stroke="#666666" points="715,-288 620,-288 620,-269 715,-269 715,-288"/>
<text text-anchor="middle" x="667.5" y="-276" font-family="Helvetica,sans-Serif" font-size="10.00">set_powermode</text>
</a>
</g>
</g>
<!-- Node9&#45;&gt;Node10 -->
<g id="edge13_Node000009_Node000010" class="edge">
<title>Node9&#45;&gt;Node10</title>
<g id="a_edge13_Node000009_Node000010"><a xlink:title=" ">
<path fill="none" stroke="#63b8ff" d="M571.67,-277.93C584.43,-278 597.59,-278.08 609.89,-278.16"/>
<polygon fill="#63b8ff" stroke="#63b8ff" points="609.97,-281.66 619.99,-278.22 610.02,-274.66 609.97,-281.66"/>
</a>
</g>
</g>
<!-- Node10&#45;&gt;Node6 -->
<g id="edge14_Node000010_Node000006" class="edge">
<title>Node10&#45;&gt;Node6</title>
<g id="a_edge14_Node000010_Node000006"><a xlink:title=" ">
<path fill="none" stroke="#63b8ff" d="M710.14,-268.91C732.01,-263.87 759.01,-257.66 782.16,-252.32"/>
<polygon fill="#63b8ff" stroke="#63b8ff" points="783.2,-255.68 792.16,-250.02 781.63,-248.85 783.2,-255.68"/>
</a>
</g>
</g>
<!-- Node15 -->
<g id="Node000015" class="node">
<title>Node15</title>
<g id="a_Node000015"><a xlink:href="group__internal.html#gac4725a1159ab828d155ad9d7a9acb577" target="_top" xlink:title="This internal function is used to read OTP word.">
<polygon fill="white" stroke="#666666" points="544.5,-449 455.5,-449 455.5,-430 544.5,-430 544.5,-449"/>
<text text-anchor="middle" x="500" y="-437" font-family="Helvetica,sans-Serif" font-size="10.00">read_otp_word</text>
</a>
</g>
</g>
<!-- Node14&#45;&gt;Node15 -->
<g id="edge22_Node000014_Node000015" class="edge">
<title>Node14&#45;&gt;Node15</title>
<g id="a_edge22_Node000014_Node000015"><a xlink:title=" ">
<path fill="none" stroke="#63b8ff" d="M361.73,-409.08C387.07,-414.7 419.27,-421.83 446.12,-427.78"/>
<polygon fill="#63b8ff" stroke="#63b8ff" points="445.6,-431.25 456.12,-430 447.11,-424.42 445.6,-431.25"/>
</a>
</g>
</g>
<!-- Node17 -->
<g id="Node000017" class="node">
<title>Node17</title>
<g id="a_Node000017"><a xlink:href="group__internal.html#ga9e55a3f509c447e659b6f1c0b1b3a367" target="_top" xlink:title="This internal function is used to update magnetometer offset and sensitivity data.">
<polygon fill="white" stroke="#666666" points="896,-349 773,-349 773,-330 896,-330 896,-349"/>
<text text-anchor="middle" x="834.5" y="-337" font-family="Helvetica,sans-Serif" font-size="10.00">update_mag_off_sens</text>
</a>
</g>
</g>
<!-- Node14&#45;&gt;Node17 -->
<g id="edge24_Node000014_Node000017" class="edge">
<title>Node14&#45;&gt;Node17</title>
<g id="a_edge24_Node000014_Node000017"><a xlink:title=" ">
<path fill="none" stroke="#63b8ff" d="M377.57,-398.64C456.77,-396.65 601.47,-390.09 723,-368.5 746.33,-364.36 771.94,-357.77 792.63,-351.91"/>
<polygon fill="#63b8ff" stroke="#63b8ff" points="793.72,-355.24 802.36,-349.11 791.79,-348.52 793.72,-355.24"/>
</a>
</g>
</g>
<!-- Node16 -->
<g id="Node000016" class="node">
<title>Node16</title>
<g id="a_Node000016"><a xlink:href="group__internal.html#ga20057caad23a28a66e09535ad5fdf9de" target="_top" xlink:title=": This function handles errors when reading OTP register.">
<polygon fill="white" stroke="#666666" points="712,-449 623,-449 623,-430 712,-430 712,-449"/>
<text text-anchor="middle" x="667.5" y="-437" font-family="Helvetica,sans-Serif" font-size="10.00">OTP_E_handler</text>
</a>
</g>
</g>
<!-- Node15&#45;&gt;Node16 -->
<g id="edge23_Node000015_Node000016" class="edge">
<title>Node15&#45;&gt;Node16</title>
<g id="a_edge23_Node000015_Node000016"><a xlink:title=" ">
<path fill="none" stroke="#63b8ff" d="M544.92,-439.5C565.75,-439.5 590.83,-439.5 612.79,-439.5"/>
<polygon fill="#63b8ff" stroke="#63b8ff" points="612.95,-443 622.95,-439.5 612.95,-436 612.95,-443"/>
</a>
</g>
</g>
<!-- Node18 -->
<g id="Node000018" class="node">
<title>Node18</title>
<g id="a_Node000018"><a xlink:href="group__internal.html#gaa33f4de6a84f0a1c8582626cb6c1a28f" target="_top" xlink:title=": This function converts the ADC data from the BMM350 data registers to 32&#45;bit signed integer.">
<polygon fill="white" stroke="#666666" points="1000,-262 946,-262 946,-243 1000,-243 1000,-262"/>
<text text-anchor="middle" x="973" y="-250" font-family="Helvetica,sans-Serif" font-size="10.00">fix_sign</text>
</a>
</g>
</g>
<!-- Node17&#45;&gt;Node18 -->
<g id="edge25_Node000017_Node000018" class="edge">
<title>Node17&#45;&gt;Node18</title>
<g id="a_edge25_Node000017_Node000018"><a xlink:title=" ">
<path fill="none" stroke="#63b8ff" d="M850.63,-329.86C874.2,-314.83 919.9,-285.7 948,-267.79"/>
<polygon fill="#63b8ff" stroke="#63b8ff" points="950.25,-270.51 956.8,-262.19 946.49,-264.61 950.25,-270.51"/>
</a>
</g>
</g>
<!-- Node20 -->
<g id="Node000020" class="node">
<title>Node20</title>
<g id="a_Node000020"><a xlink:href="group__user__internal.html#ga349bf3c57fbed6694ac73f4cbebcf990" target="_top" xlink:title="This function filters the data of angle got from magnetic readings.">
<polygon fill="white" stroke="#666666" points="361,-56 274,-56 274,-37 361,-37 361,-56"/>
<text text-anchor="middle" x="317.5" y="-44" font-family="Helvetica,sans-Serif" font-size="10.00">adaptive_filter</text>
</a>
</g>
</g>
<!-- Node19&#45;&gt;Node20 -->
<g id="edge27_Node000019_Node000020" class="edge">
<title>Node19&#45;&gt;Node20</title>
<g id="a_edge27_Node000019_Node000020"><a xlink:title=" ">
<path fill="none" stroke="#63b8ff" d="M196.13,-74.91C217.47,-69.87 243.81,-63.66 266.41,-58.32"/>
<polygon fill="#63b8ff" stroke="#63b8ff" points="267.24,-61.72 276.17,-56.02 265.63,-54.91 267.24,-61.72"/>
</a>
</g>
</g>
<!-- Node23 -->
<g id="Node000023" class="node">
<title>Node23</title>
<g id="a_Node000023"><a xlink:href="group__user.html#gae42e76e9e743d998bbdb637a03352b7d" target="_top" xlink:title="this function checks the drdy_data_reg (0x30) data ready interrupt then returns the status of the reg...">
<polygon fill="white" stroke="#666666" points="347.5,-94 287.5,-94 287.5,-75 347.5,-75 347.5,-94"/>
<text text-anchor="middle" x="317.5" y="-82" font-family="Helvetica,sans-Serif" font-size="10.00">read_intr</text>
</a>
</g>
</g>
<!-- Node19&#45;&gt;Node23 -->
<g id="edge30_Node000019_Node000023" class="edge">
<title>Node19&#45;&gt;Node23</title>
<g id="a_edge30_Node000019_Node000023"><a xlink:title=" ">
<path fill="none" stroke="#63b8ff" d="M211.36,-84.5C233.07,-84.5 257.42,-84.5 277.22,-84.5"/>
<polygon fill="#63b8ff" stroke="#63b8ff" points="277.42,-88 287.42,-84.5 277.42,-81 277.42,-88"/>
</a>
</g>
</g>
<!-- Node21 -->
<g id="Node000021" class="node">
<title>Node21</title>
<g id="a_Node000021"><a xlink:href="group__internal.html#gab4be8745d812ca6e741eb455f64f3bb7" target="_top" xlink:title="This function smooths the operation of interpolation between angles specially for jumps from 0 to 360...">
<polygon fill="white" stroke="#666666" points="542.5,-19 457.5,-19 457.5,0 542.5,0 542.5,-19"/>
<text text-anchor="middle" x="500" y="-7" font-family="Helvetica,sans-Serif" font-size="10.00">unwrap_angle</text>
</a>
</g>
</g>
<!-- Node20&#45;&gt;Node21 -->
<g id="edge28_Node000020_Node000021" class="edge">
<title>Node20&#45;&gt;Node21</title>
<g id="a_edge28_Node000020_Node000021"><a xlink:title=" ">
<path fill="none" stroke="#63b8ff" d="M361.28,-37.73C387.07,-32.44 420.09,-25.68 447.33,-20.09"/>
<polygon fill="#63b8ff" stroke="#63b8ff" points="448.37,-23.45 457.46,-18.01 446.96,-16.59 448.37,-23.45"/>
</a>
</g>
</g>
<!-- Node22 -->
<g id="Node000022" class="node">
<title>Node22</title>
<g id="a_Node000022"><a xlink:href="group__internal.html#ga9a1cd3e3a0329e310eba39d7df534c55" target="_top" xlink:title="This function wrapes the angle input to make sure it is between 0 and 360 degrees.">
<polygon fill="white" stroke="#666666" points="532,-56 468,-56 468,-37 532,-37 532,-56"/>
<text text-anchor="middle" x="500" y="-44" font-family="Helvetica,sans-Serif" font-size="10.00">wrap_360</text>
</a>
</g>
</g>
<!-- Node20&#45;&gt;Node22 -->
<g id="edge29_Node000020_Node000022" class="edge">
<title>Node20&#45;&gt;Node22</title>
<g id="a_edge29_Node000020_Node000022"><a xlink:title=" ">
<path fill="none" stroke="#63b8ff" d="M361.28,-46.5C390.43,-46.5 428.82,-46.5 457.67,-46.5"/>
<polygon fill="#63b8ff" stroke="#63b8ff" points="457.83,-50 467.83,-46.5 457.83,-43 457.83,-50"/>
</a>
</g>
</g>
<!-- Node24 -->
<g id="Node000024" class="node">
<title>Node24</title>
<g id="a_Node000024"><a xlink:href="group__user__internal.html#ga072f77061f2d28f8b93181aac9890a87" target="_top" xlink:title="This internal function is used to perform compensation calculations for raw magnetometer and temperat...">
<polygon fill="white" stroke="#666666" points="576,-104.5 424,-104.5 424,-74.5 576,-74.5 576,-104.5"/>
<text text-anchor="start" x="432" y="-92.5" font-family="Helvetica,sans-Serif" font-size="10.00">bmm350_get_compensated</text>
<text text-anchor="middle" x="500" y="-81.5" font-family="Helvetica,sans-Serif" font-size="10.00">_mag_xyz_temp_data</text>
</a>
</g>
</g>
<!-- Node23&#45;&gt;Node24 -->
<g id="edge31_Node000023_Node000024" class="edge">
<title>Node23&#45;&gt;Node24</title>
<g id="a_edge31_Node000023_Node000024"><a xlink:title=" ">
<path fill="none" stroke="#63b8ff" d="M347.5,-85.3C365.55,-85.8 389.79,-86.47 413.58,-87.13"/>
<polygon fill="#63b8ff" stroke="#63b8ff" points="413.64,-90.64 423.73,-87.41 413.83,-83.64 413.64,-90.64"/>
</a>
</g>
</g>
<!-- Node25 -->
<g id="Node000025" class="node">
<title>Node25</title>
<g id="a_Node000025"><a xlink:href="group__internal.html#ga91a3a98a720e9061b94ed3fb0f75a05b" target="_top" xlink:title="This internal function is used to read uncompensated raw magnetic x,y and z axis along with temperatu...">
<polygon fill="white" stroke="#666666" points="722.5,-99 612.5,-99 612.5,-80 722.5,-80 722.5,-99"/>
<text text-anchor="middle" x="667.5" y="-87" font-family="Helvetica,sans-Serif" font-size="10.00">read_out_raw_data</text>
</a>
</g>
</g>
<!-- Node24&#45;&gt;Node25 -->
<g id="edge32_Node000024_Node000025" class="edge">
<title>Node24&#45;&gt;Node25</title>
<g id="a_edge32_Node000024_Node000025"><a xlink:title=" ">
<path fill="none" stroke="#63b8ff" d="M576,-89.5C584.64,-89.5 593.38,-89.5 601.86,-89.5"/>
<polygon fill="#63b8ff" stroke="#63b8ff" points="602.05,-93 612.05,-89.5 602.05,-86 602.05,-93"/>
</a>
</g>
</g>
<!-- Node26 -->
<g id="Node000026" class="node">
<title>Node26</title>
<g id="a_Node000026"><a xlink:href="group__internal.html#ga90f5ad40d27ae8036b2475fe285901a1" target="_top" xlink:title="This function is used to read (ADC) mag and temperature data.">
<polygon fill="white" stroke="#666666" points="900,-180.5 769,-180.5 769,-150.5 900,-150.5 900,-180.5"/>
<text text-anchor="start" x="777" y="-168.5" font-family="Helvetica,sans-Serif" font-size="10.00">bmm350_read_uncomp</text>
<text text-anchor="middle" x="834.5" y="-157.5" font-family="Helvetica,sans-Serif" font-size="10.00">_mag_temp_data</text>
</a>
</g>
</g>
<!-- Node25&#45;&gt;Node26 -->
<g id="edge33_Node000025_Node000026" class="edge">
<title>Node25&#45;&gt;Node26</title>
<g id="a_edge33_Node000025_Node000026"><a xlink:title=" ">
<path fill="none" stroke="#63b8ff" d="M690.57,-99.07C700.5,-103.41 712.37,-108.66 723,-113.5 746.26,-124.09 772.11,-136.24 792.96,-146.13"/>
<polygon fill="#63b8ff" stroke="#63b8ff" points="791.63,-149.37 802.16,-150.5 794.63,-143.04 791.63,-149.37"/>
</a>
</g>
</g>
<!-- Node27 -->
<g id="Node000027" class="node">
<title>Node27</title>
<g id="a_Node000027"><a xlink:href="group__internal.html#ga805428fdfd31395afb20fced06b8d680" target="_top" xlink:title="This internal function is used to update uncompensated lsb data to uT and degC.">
<polygon fill="white" stroke="#666666" points="910,-99 759,-99 759,-80 910,-80 910,-99"/>
<text text-anchor="middle" x="834.5" y="-87" font-family="Helvetica,sans-Serif" font-size="10.00">update_default_coefiecents</text>
</a>
</g>
</g>
<!-- Node25&#45;&gt;Node27 -->
<g id="edge35_Node000025_Node000027" class="edge">
<title>Node25&#45;&gt;Node27</title>
<g id="a_edge35_Node000025_Node000027"><a xlink:title=" ">
<path fill="none" stroke="#63b8ff" d="M722.53,-89.5C730.99,-89.5 739.92,-89.5 748.88,-89.5"/>
<polygon fill="#63b8ff" stroke="#63b8ff" points="748.98,-93 758.98,-89.5 748.98,-86 748.98,-93"/>
</a>
</g>
</g>
<!-- Node26&#45;&gt;Node18 -->
<g id="edge34_Node000026_Node000018" class="edge">
<title>Node26&#45;&gt;Node18</title>
<g id="a_edge34_Node000026_Node000018"><a xlink:title=" ">
<path fill="none" stroke="#63b8ff" d="M859.28,-180.65C884.31,-196.61 923.49,-221.58 948.44,-237.48"/>
<polygon fill="#63b8ff" stroke="#63b8ff" points="946.62,-240.48 956.94,-242.9 950.38,-234.57 946.62,-240.48"/>
</a>
</g>
</g>
</g>
</svg>
