<?xml version="1.0" encoding="UTF-8" standalone="no"?>
<!DOCTYPE svg PUBLIC "-//W3C//DTD SVG 1.1//EN"
 "http://www.w3.org/Graphics/SVG/1.1/DTD/svg11.dtd">
<!-- Generated by graphviz version 2.43.0 (0)
 -->
<!-- Title: main Pages: 1 -->
<svg width="1112pt" height="457pt"
 viewBox="0.00 0.00 1112.00 457.00" xmlns="http://www.w3.org/2000/svg" xmlns:xlink="http://www.w3.org/1999/xlink">
<g id="graph0" class="graph" transform="scale(1 1) rotate(0) translate(4 453)">
<title>main</title>
<!-- Node1 -->
<g id="Node000001" class="node">
<title>Node1</title>
<g id="a_Node000001"><a xlink:title=" ">
<polygon fill="#999999" stroke="#666666" points="41,-188 0,-188 0,-169 41,-169 41,-188"/>
<text text-anchor="middle" x="20.5" y="-176" font-family="Helvetica,sans-Serif" font-size="10.00">main</text>
</a>
</g>
</g>
<!-- Node2 -->
<g id="Node000002" class="node">
<title>Node2</title>
<g id="a_Node000002"><a xlink:href="main_8c.html#ad6ae795fcb28c90cd406b136ae703311" target="_top" xlink:title=" ">
<polygon fill="white" stroke="#666666" points="157,-225 86,-225 86,-206 157,-206 157,-225"/>
<text text-anchor="middle" x="121.5" y="-213" font-family="Helvetica,sans-Serif" font-size="10.00">Calculation</text>
</a>
</g>
</g>
<!-- Node1&#45;&gt;Node2 -->
<g id="edge1_Node000001_Node000002" class="edge">
<title>Node1&#45;&gt;Node2</title>
<g id="a_edge1_Node000001_Node000002"><a xlink:title=" ">
<path fill="none" stroke="#63b8ff" d="M41.06,-185.81C53.72,-190.54 70.58,-196.84 85.51,-202.42"/>
<polygon fill="#63b8ff" stroke="#63b8ff" points="84.38,-205.74 94.97,-205.96 86.83,-199.18 84.38,-205.74"/>
</a>
</g>
</g>
<!-- Node3 -->
<g id="Node000003" class="node">
<title>Node3</title>
<g id="a_Node000003"><a xlink:href="main_8c.html#a282fee6b81618368a41e8ba4e575f62e" target="_top" xlink:title=" ">
<polygon fill="white" stroke="#666666" points="152.5,-188 90.5,-188 90.5,-169 152.5,-169 152.5,-188"/>
<text text-anchor="middle" x="121.5" y="-176" font-family="Helvetica,sans-Serif" font-size="10.00">MainTask</text>
</a>
</g>
</g>
<!-- Node1&#45;&gt;Node3 -->
<g id="edge2_Node000001_Node000003" class="edge">
<title>Node1&#45;&gt;Node3</title>
<g id="a_edge2_Node000001_Node000003"><a xlink:title=" ">
<path fill="none" stroke="#63b8ff" d="M41.06,-178.5C52.29,-178.5 66.8,-178.5 80.35,-178.5"/>
<polygon fill="#63b8ff" stroke="#63b8ff" points="80.45,-182 90.45,-178.5 80.45,-175 80.45,-182"/>
</a>
</g>
</g>
<!-- Node30 -->
<g id="Node000030" class="node">
<title>Node30</title>
<g id="a_Node000030"><a xlink:href="main_8c.html#ae663ba1d62a17d0f1d161f157628c972" target="_top" xlink:title=" ">
<polygon fill="white" stroke="#666666" points="166,-151 77,-151 77,-132 166,-132 166,-151"/>
<text text-anchor="middle" x="121.5" y="-139" font-family="Helvetica,sans-Serif" font-size="10.00">SecondaryTask</text>
</a>
</g>
</g>
<!-- Node1&#45;&gt;Node30 -->
<g id="edge38_Node000001_Node000030" class="edge">
<title>Node1&#45;&gt;Node30</title>
<g id="a_edge38_Node000001_Node000030"><a xlink:title=" ">
<path fill="none" stroke="#63b8ff" d="M41.06,-171.19C53.72,-166.46 70.58,-160.16 85.51,-154.58"/>
<polygon fill="#63b8ff" stroke="#63b8ff" points="86.83,-157.82 94.97,-151.04 84.38,-151.26 86.83,-157.82"/>
</a>
</g>
</g>
<!-- Node4 -->
<g id="Node000004" class="node">
<title>Node4</title>
<g id="a_Node000004"><a xlink:href="group__user.html#gadc0b3dcb4a399bb38273981b2d47e697" target="_top" xlink:title="This function to initialize the BMM350 registers and enable Normal Mode.">
<polygon fill="white" stroke="#666666" points="299,-263 218,-263 218,-244 299,-244 299,-263"/>
<text text-anchor="middle" x="258.5" y="-251" font-family="Helvetica,sans-Serif" font-size="10.00">bmm350_init</text>
</a>
</g>
</g>
<!-- Node3&#45;&gt;Node4 -->
<g id="edge3_Node000003_Node000004" class="edge">
<title>Node3&#45;&gt;Node4</title>
<g id="a_edge3_Node000003_Node000004"><a xlink:title=" ">
<path fill="none" stroke="#63b8ff" d="M147.66,-188.09C153.76,-190.63 160.18,-193.51 166,-196.5 190.38,-209.03 216.82,-225.88 234.97,-238.01"/>
<polygon fill="#63b8ff" stroke="#63b8ff" points="233.41,-241.18 243.66,-243.87 237.33,-235.37 233.41,-241.18"/>
</a>
</g>
</g>
<!-- Node21 -->
<g id="Node000021" class="node">
<title>Node21</title>
<g id="a_Node000021"><a xlink:href="group__user.html#gae1c1a63d4a6fe6c7804473250ac24eee" target="_top" xlink:title="This function is used to get yaw value.">
<polygon fill="white" stroke="#666666" points="315,-94 202,-94 202,-75 315,-75 315,-94"/>
<text text-anchor="middle" x="258.5" y="-82" font-family="Helvetica,sans-Serif" font-size="10.00">bmm350_read_yaw</text>
</a>
</g>
</g>
<!-- Node3&#45;&gt;Node21 -->
<g id="edge28_Node000003_Node000021" class="edge">
<title>Node3&#45;&gt;Node21</title>
<g id="a_edge28_Node000003_Node000021"><a xlink:title=" ">
<path fill="none" stroke="#63b8ff" d="M147.48,-168.99C153.7,-166.24 160.24,-163.03 166,-159.5 193.85,-142.45 222.4,-117.65 240.04,-101.31"/>
<polygon fill="#63b8ff" stroke="#63b8ff" points="242.89,-103.43 247.77,-94.03 238.09,-98.33 242.89,-103.43"/>
</a>
</g>
</g>
<!-- Node5 -->
<g id="Node000005" class="node">
<title>Node5</title>
<g id="a_Node000005"><a xlink:href="group__user__internal.html#ga8b94b8f6dfd15fcb4c38f2ea34c79ae4" target="_top" xlink:title="This function gets the PMU command status 0 register (0x07) and PMU command status 1 register (0x08) ...">
<polygon fill="white" stroke="#666666" points="671,-373.5 537,-373.5 537,-343.5 671,-343.5 671,-373.5"/>
<text text-anchor="start" x="545" y="-361.5" font-family="Helvetica,sans-Serif" font-size="10.00">bmm350_get_pmu_cmd</text>
<text text-anchor="middle" x="604" y="-350.5" font-family="Helvetica,sans-Serif" font-size="10.00">_status</text>
</a>
</g>
</g>
<!-- Node4&#45;&gt;Node5 -->
<g id="edge4_Node000004_Node000005" class="edge">
<title>Node4&#45;&gt;Node5</title>
<g id="a_edge4_Node000004_Node000005"><a xlink:title=" ">
<path fill="none" stroke="#63b8ff" d="M266.19,-263.19C279.71,-281.86 312.29,-322.45 351,-339.5 406.34,-363.87 475.12,-367.51 526.84,-365.67"/>
<polygon fill="#63b8ff" stroke="#63b8ff" points="527.11,-369.16 536.95,-365.24 526.81,-362.17 527.11,-369.16"/>
</a>
</g>
</g>
<!-- Node6 -->
<g id="Node000006" class="node">
<title>Node6</title>
<g id="a_Node000006"><a xlink:href="group__internal.html#gaf0d2cb8fdf5e0a70d975e96f2366726e" target="_top" xlink:title="This function initialize the BMM350 device structure and the adaptive filter.">
<polygon fill="white" stroke="#666666" points="661,-228 547,-228 547,-209 661,-209 661,-228"/>
<text text-anchor="middle" x="604" y="-216" font-family="Helvetica,sans-Serif" font-size="10.00">bmm350_init_struct</text>
</a>
</g>
</g>
<!-- Node4&#45;&gt;Node6 -->
<g id="edge5_Node000004_Node000006" class="edge">
<title>Node4&#45;&gt;Node6</title>
<g id="a_edge5_Node000004_Node000006"><a xlink:title=" ">
<path fill="none" stroke="#63b8ff" d="M299.24,-249.45C357.39,-243.53 466.4,-232.42 536.79,-225.25"/>
<polygon fill="#63b8ff" stroke="#63b8ff" points="537.29,-228.71 546.88,-224.22 536.58,-221.75 537.29,-228.71"/>
</a>
</g>
</g>
<!-- Node8 -->
<g id="Node000008" class="node">
<title>Node8</title>
<g id="a_Node000008"><a xlink:href="group__internal.html#ga3fa3449c50ffe2d91fd5f1c127892356" target="_top" xlink:title=": This internal function* is used to validate the device structure pointer for null conditions.">
<polygon fill="white" stroke="#666666" points="982,-250 895,-250 895,-231 982,-231 982,-250"/>
<text text-anchor="middle" x="938.5" y="-238" font-family="Helvetica,sans-Serif" font-size="10.00">null_ptr_check</text>
</a>
</g>
</g>
<!-- Node4&#45;&gt;Node8 -->
<g id="edge22_Node000004_Node000008" class="edge">
<title>Node4&#45;&gt;Node8</title>
<g id="a_edge22_Node000004_Node000008"><a xlink:title=" ">
<path fill="none" stroke="#63b8ff" d="M287.1,-243.95C386.86,-210.11 728.09,-100.31 827,-146.5 849.58,-157.05 844.54,-172.75 863,-189.5 878.09,-203.2 897.07,-216.14 912.09,-225.55"/>
<polygon fill="#63b8ff" stroke="#63b8ff" points="910.51,-228.69 920.87,-230.94 914.18,-222.72 910.51,-228.69"/>
</a>
</g>
</g>
<!-- Node10 -->
<g id="Node000010" class="node">
<title>Node10</title>
<g id="a_Node000010"><a xlink:href="group__user.html#gad144c7b4fcd5e9f22b261b1d3ee9b1fa" target="_top" xlink:title="Performs a magnetic reset of the BMM350 sensor. This is necessary when: The sensor may have been expo...">
<polygon fill="white" stroke="#666666" points="492,-330.5 351,-330.5 351,-300.5 492,-300.5 492,-330.5"/>
<text text-anchor="start" x="359" y="-318.5" font-family="Helvetica,sans-Serif" font-size="10.00">bmm350_magnetic_reset</text>
<text text-anchor="middle" x="421.5" y="-307.5" font-family="Helvetica,sans-Serif" font-size="10.00">_and_wait</text>
</a>
</g>
</g>
<!-- Node4&#45;&gt;Node10 -->
<g id="edge11_Node000004_Node000010" class="edge">
<title>Node4&#45;&gt;Node10</title>
<g id="a_edge11_Node000004_Node000010"><a xlink:title=" ">
<path fill="none" stroke="#63b8ff" d="M284.3,-263.05C307.52,-271.99 342.87,-285.6 371.73,-296.72"/>
<polygon fill="#63b8ff" stroke="#63b8ff" points="370.66,-300.06 381.25,-300.38 373.17,-293.52 370.66,-300.06"/>
</a>
</g>
</g>
<!-- Node11 -->
<g id="Node000011" class="node">
<title>Node11</title>
<g id="a_Node000011"><a xlink:href="group__user__internal.html#ga29af58551105e397e6a05e91f3e05aa1" target="_top" xlink:title="This function is used to set the power mode of the sensor.">
<polygon fill="white" stroke="#666666" points="675.5,-287 532.5,-287 532.5,-268 675.5,-268 675.5,-287"/>
<text text-anchor="middle" x="604" y="-275" font-family="Helvetica,sans-Serif" font-size="10.00">bmm350_set_powermode</text>
</a>
</g>
</g>
<!-- Node4&#45;&gt;Node11 -->
<g id="edge19_Node000004_Node000011" class="edge">
<title>Node4&#45;&gt;Node11</title>
<g id="a_edge19_Node000004_Node000011"><a xlink:title=" ">
<path fill="none" stroke="#63b8ff" d="M299.24,-256.28C353.52,-260.07 452.11,-266.96 522.24,-271.86"/>
<polygon fill="#63b8ff" stroke="#63b8ff" points="522.15,-275.36 532.37,-272.57 522.64,-268.38 522.15,-275.36"/>
</a>
</g>
</g>
<!-- Node13 -->
<g id="Node000013" class="node">
<title>Node13</title>
<g id="a_Node000013"><a xlink:href="group__internal.html#ga2ab089a6f332be8164468ab654caa077" target="_top" xlink:title="This internal function configures the odr (Output Data Rate) and avg (Measurements Averages) in regis...">
<polygon fill="white" stroke="#666666" points="491,-168 352,-168 352,-149 491,-149 491,-168"/>
<text text-anchor="middle" x="421.5" y="-156" font-family="Helvetica,sans-Serif" font-size="10.00">bmm350_odr_avg_config</text>
</a>
</g>
</g>
<!-- Node4&#45;&gt;Node13 -->
<g id="edge18_Node000004_Node000013" class="edge">
<title>Node4&#45;&gt;Node13</title>
<g id="a_edge18_Node000004_Node000013"><a xlink:title=" ">
<path fill="none" stroke="#63b8ff" d="M269.42,-243.99C285.43,-229.09 318.47,-200.11 351,-182.5 358.83,-178.26 367.55,-174.55 376.1,-171.39"/>
<polygon fill="#63b8ff" stroke="#63b8ff" points="377.33,-174.67 385.62,-168.07 375.02,-168.06 377.33,-174.67"/>
</a>
</g>
</g>
<!-- Node14 -->
<g id="Node000014" class="node">
<title>Node14</title>
<g id="a_Node000014"><a xlink:href="group__user__internal.html#gadcb32b687a9a607733c245838dc1063e" target="_top" xlink:title="This function checks I2C communication status.">
<polygon fill="white" stroke="#666666" points="463,-131 380,-131 380,-112 463,-112 463,-131"/>
<text text-anchor="middle" x="421.5" y="-119" font-family="Helvetica,sans-Serif" font-size="10.00">check_device</text>
</a>
</g>
</g>
<!-- Node4&#45;&gt;Node14 -->
<g id="edge20_Node000004_Node000014" class="edge">
<title>Node4&#45;&gt;Node14</title>
<g id="a_edge20_Node000004_Node000014"><a xlink:title=" ">
<path fill="none" stroke="#63b8ff" d="M264.42,-243.81C276.19,-221.68 308.16,-167.2 351,-139.5 356.77,-135.77 363.27,-132.81 369.93,-130.47"/>
<polygon fill="#63b8ff" stroke="#63b8ff" points="371.19,-133.74 379.72,-127.45 369.13,-127.05 371.19,-133.74"/>
</a>
</g>
</g>
<!-- Node15 -->
<g id="Node000015" class="node">
<title>Node15</title>
<g id="a_Node000015"><a xlink:href="group__internal.html#ga2bbcdef34d88b58cf90bcd1b96caf3b5" target="_top" xlink:title="This function initialize the device structure and configures the INT_CTRL register (0x2E)">
<polygon fill="white" stroke="#666666" points="468,-446 375,-446 375,-427 468,-427 468,-446"/>
<text text-anchor="middle" x="421.5" y="-434" font-family="Helvetica,sans-Serif" font-size="10.00">interrupt_config</text>
</a>
</g>
</g>
<!-- Node4&#45;&gt;Node15 -->
<g id="edge21_Node000004_Node000015" class="edge">
<title>Node4&#45;&gt;Node15</title>
<g id="a_edge21_Node000004_Node000015"><a xlink:title=" ">
<path fill="none" stroke="#63b8ff" d="M261.92,-263.08C269.63,-291.53 296.36,-376.18 351,-418.5 355.31,-421.84 360.18,-424.56 365.29,-426.78"/>
<polygon fill="#63b8ff" stroke="#63b8ff" points="364.08,-430.07 374.67,-430.26 366.51,-423.5 364.08,-430.07"/>
</a>
</g>
</g>
<!-- Node16 -->
<g id="Node000016" class="node">
<title>Node16</title>
<g id="a_Node000016"><a xlink:href="group__internal.html#ga2cf75153d40498769db298ba34a15d0e" target="_top" xlink:title=": This internal function is used to read OTP data after boot in user mode.">
<polygon fill="white" stroke="#666666" points="481.5,-409 361.5,-409 361.5,-390 481.5,-390 481.5,-409"/>
<text text-anchor="middle" x="421.5" y="-397" font-family="Helvetica,sans-Serif" font-size="10.00">otp_dump_after_boot</text>
</a>
</g>
</g>
<!-- Node4&#45;&gt;Node16 -->
<g id="edge23_Node000004_Node000016" class="edge">
<title>Node4&#45;&gt;Node16</title>
<g id="a_edge23_Node000004_Node000016"><a xlink:title=" ">
<path fill="none" stroke="#63b8ff" d="M264.55,-263.27C276.58,-285.65 309.08,-341.09 351,-372.5 358.38,-378.03 367.03,-382.57 375.68,-386.25"/>
<polygon fill="#63b8ff" stroke="#63b8ff" points="374.42,-389.51 385,-389.9 376.97,-382.99 374.42,-389.51"/>
</a>
</g>
</g>
<!-- Node7 -->
<g id="Node000007" class="node">
<title>Node7</title>
<g id="a_Node000007"><a xlink:href="group__user__internal.html#ga72d6f07d31b60e050c8aa62086737aab" target="_top" xlink:title="This function is used to read a register from the BMM350 sensor.">
<polygon fill="white" stroke="#666666" points="825.5,-175 717.5,-175 717.5,-156 825.5,-156 825.5,-175"/>
<text text-anchor="middle" x="771.5" y="-163" font-family="Helvetica,sans-Serif" font-size="10.00">bmm350_I2C_read</text>
</a>
</g>
</g>
<!-- Node6&#45;&gt;Node7 -->
<g id="edge6_Node000006_Node000007" class="edge">
<title>Node6&#45;&gt;Node7</title>
<g id="a_edge6_Node000006_Node000007"><a xlink:title=" ">
<path fill="none" stroke="#63b8ff" d="M634.97,-208.9C661.92,-200.27 701.68,-187.54 731.18,-178.09"/>
<polygon fill="#63b8ff" stroke="#63b8ff" points="732.3,-181.41 740.75,-175.03 730.16,-174.74 732.3,-181.41"/>
</a>
</g>
</g>
<!-- Node6&#45;&gt;Node8 -->
<g id="edge10_Node000006_Node000008" class="edge">
<title>Node6&#45;&gt;Node8</title>
<g id="a_edge10_Node000006_Node000008"><a xlink:title=" ">
<path fill="none" stroke="#63b8ff" d="M661.03,-222.21C723.49,-226.34 823.72,-232.97 884.8,-237.01"/>
<polygon fill="#63b8ff" stroke="#63b8ff" points="884.78,-240.52 894.99,-237.69 885.25,-233.53 884.78,-240.52"/>
</a>
</g>
</g>
<!-- Node9 -->
<g id="Node000009" class="node">
<title>Node9</title>
<g id="a_Node000009"><a xlink:href="group__user__internal.html#ga1de7d1421454a2345f94c9c05846496c" target="_top" xlink:title="This function is used to write data to a register in the BMM350 sensor.">
<polygon fill="white" stroke="#666666" points="827,-212 716,-212 716,-193 827,-193 827,-212"/>
<text text-anchor="middle" x="771.5" y="-200" font-family="Helvetica,sans-Serif" font-size="10.00">bmm350_I2C_write</text>
</a>
</g>
</g>
<!-- Node6&#45;&gt;Node9 -->
<g id="edge8_Node000006_Node000009" class="edge">
<title>Node6&#45;&gt;Node9</title>
<g id="a_edge8_Node000006_Node000009"><a xlink:title=" ">
<path fill="none" stroke="#63b8ff" d="M661.03,-213.08C675.43,-211.69 691.04,-210.18 705.84,-208.75"/>
<polygon fill="#63b8ff" stroke="#63b8ff" points="706.31,-212.22 715.93,-207.78 705.64,-205.25 706.31,-212.22"/>
</a>
</g>
</g>
<!-- Node7&#45;&gt;Node8 -->
<g id="edge7_Node000007_Node000008" class="edge">
<title>Node7&#45;&gt;Node8</title>
<g id="a_edge7_Node000007_Node000008"><a xlink:title=" ">
<path fill="none" stroke="#63b8ff" d="M804.22,-175.04C811.77,-177.57 819.74,-180.45 827,-183.5 857.13,-196.15 890.26,-213.77 912.31,-226.06"/>
<polygon fill="#63b8ff" stroke="#63b8ff" points="910.61,-229.12 921.04,-230.97 914.04,-223.02 910.61,-229.12"/>
</a>
</g>
</g>
<!-- Node9&#45;&gt;Node8 -->
<g id="edge9_Node000009_Node000008" class="edge">
<title>Node9&#45;&gt;Node8</title>
<g id="a_edge9_Node000009_Node000008"><a xlink:title=" ">
<path fill="none" stroke="#63b8ff" d="M814.14,-212.09C836.01,-217.13 863.01,-223.34 886.16,-228.68"/>
<polygon fill="#63b8ff" stroke="#63b8ff" points="885.63,-232.15 896.16,-230.98 887.2,-225.32 885.63,-232.15"/>
</a>
</g>
</g>
<!-- Node10&#45;&gt;Node5 -->
<g id="edge12_Node000010_Node000005" class="edge">
<title>Node10&#45;&gt;Node5</title>
<g id="a_edge12_Node000010_Node000005"><a xlink:title=" ">
<path fill="none" stroke="#63b8ff" d="M485.63,-330.54C499.92,-333.94 515.21,-337.59 529.87,-341.08"/>
<polygon fill="#63b8ff" stroke="#63b8ff" points="529.37,-344.56 539.91,-343.47 530.99,-337.75 529.37,-344.56"/>
</a>
</g>
</g>
<!-- Node10&#45;&gt;Node8 -->
<g id="edge17_Node000010_Node000008" class="edge">
<title>Node10&#45;&gt;Node8</title>
<g id="a_edge17_Node000010_Node000008"><a xlink:title=" ">
<path fill="none" stroke="#63b8ff" d="M492.3,-320.17C591.13,-325.95 766.55,-332.95 827,-314.5 863.88,-303.24 899.66,-275.18 920.09,-257.03"/>
<polygon fill="#63b8ff" stroke="#63b8ff" points="922.59,-259.49 927.62,-250.17 917.87,-254.32 922.59,-259.49"/>
</a>
</g>
</g>
<!-- Node10&#45;&gt;Node11 -->
<g id="edge13_Node000010_Node000011" class="edge">
<title>Node10&#45;&gt;Node11</title>
<g id="a_edge13_Node000010_Node000011"><a xlink:title=" ">
<path fill="none" stroke="#63b8ff" d="M492.03,-300.86C510.46,-296.98 530.11,-292.85 547.67,-289.15"/>
<polygon fill="#63b8ff" stroke="#63b8ff" points="548.68,-292.51 557.74,-287.03 547.24,-285.66 548.68,-292.51"/>
</a>
</g>
</g>
<!-- Node11&#45;&gt;Node8 -->
<g id="edge14_Node000011_Node000008" class="edge">
<title>Node11&#45;&gt;Node8</title>
<g id="a_edge14_Node000011_Node000008"><a xlink:title=" ">
<path fill="none" stroke="#63b8ff" d="M637.85,-287.04C681.61,-298.26 761.19,-313.47 827,-297.5 860.04,-289.48 894.25,-269.75 915.69,-255.76"/>
<polygon fill="#63b8ff" stroke="#63b8ff" points="917.68,-258.63 924.05,-250.17 913.79,-252.82 917.68,-258.63"/>
</a>
</g>
</g>
<!-- Node12 -->
<g id="Node000012" class="node">
<title>Node12</title>
<g id="a_Node000012"><a xlink:href="group__internal.html#ga26a3e3d11b80083b5f72c060d931728b" target="_top" xlink:title="This function is used to switch from suspend mode to normal mode or forced mode.">
<polygon fill="white" stroke="#666666" points="819,-288 724,-288 724,-269 819,-269 819,-288"/>
<text text-anchor="middle" x="771.5" y="-276" font-family="Helvetica,sans-Serif" font-size="10.00">set_powermode</text>
</a>
</g>
</g>
<!-- Node11&#45;&gt;Node12 -->
<g id="edge15_Node000011_Node000012" class="edge">
<title>Node11&#45;&gt;Node12</title>
<g id="a_edge15_Node000011_Node000012"><a xlink:title=" ">
<path fill="none" stroke="#63b8ff" d="M675.67,-277.93C688.43,-278 701.59,-278.08 713.89,-278.16"/>
<polygon fill="#63b8ff" stroke="#63b8ff" points="713.97,-281.66 723.99,-278.22 714.02,-274.66 713.97,-281.66"/>
</a>
</g>
</g>
<!-- Node12&#45;&gt;Node8 -->
<g id="edge16_Node000012_Node000008" class="edge">
<title>Node12&#45;&gt;Node8</title>
<g id="a_edge16_Node000012_Node000008"><a xlink:title=" ">
<path fill="none" stroke="#63b8ff" d="M814.14,-268.91C836.01,-263.87 863.01,-257.66 886.16,-252.32"/>
<polygon fill="#63b8ff" stroke="#63b8ff" points="887.2,-255.68 896.16,-250.02 885.63,-248.85 887.2,-255.68"/>
</a>
</g>
</g>
<!-- Node17 -->
<g id="Node000017" class="node">
<title>Node17</title>
<g id="a_Node000017"><a xlink:href="group__internal.html#gac4725a1159ab828d155ad9d7a9acb577" target="_top" xlink:title="This internal function is used to read OTP word.">
<polygon fill="white" stroke="#666666" points="648.5,-449 559.5,-449 559.5,-430 648.5,-430 648.5,-449"/>
<text text-anchor="middle" x="604" y="-437" font-family="Helvetica,sans-Serif" font-size="10.00">read_otp_word</text>
</a>
</g>
</g>
<!-- Node16&#45;&gt;Node17 -->
<g id="edge24_Node000016_Node000017" class="edge">
<title>Node16&#45;&gt;Node17</title>
<g id="a_edge24_Node000016_Node000017"><a xlink:title=" ">
<path fill="none" stroke="#63b8ff" d="M465.73,-409.08C491.07,-414.7 523.27,-421.83 550.12,-427.78"/>
<polygon fill="#63b8ff" stroke="#63b8ff" points="549.6,-431.25 560.12,-430 551.11,-424.42 549.6,-431.25"/>
</a>
</g>
</g>
<!-- Node19 -->
<g id="Node000019" class="node">
<title>Node19</title>
<g id="a_Node000019"><a xlink:href="group__internal.html#ga9e55a3f509c447e659b6f1c0b1b3a367" target="_top" xlink:title="This internal function is used to update magnetometer offset and sensitivity data.">
<polygon fill="white" stroke="#666666" points="1000,-349 877,-349 877,-330 1000,-330 1000,-349"/>
<text text-anchor="middle" x="938.5" y="-337" font-family="Helvetica,sans-Serif" font-size="10.00">update_mag_off_sens</text>
</a>
</g>
</g>
<!-- Node16&#45;&gt;Node19 -->
<g id="edge26_Node000016_Node000019" class="edge">
<title>Node16&#45;&gt;Node19</title>
<g id="a_edge26_Node000016_Node000019"><a xlink:title=" ">
<path fill="none" stroke="#63b8ff" d="M481.57,-398.64C560.77,-396.65 705.47,-390.09 827,-368.5 850.33,-364.36 875.94,-357.77 896.63,-351.91"/>
<polygon fill="#63b8ff" stroke="#63b8ff" points="897.72,-355.24 906.36,-349.11 895.79,-348.52 897.72,-355.24"/>
</a>
</g>
</g>
<!-- Node18 -->
<g id="Node000018" class="node">
<title>Node18</title>
<g id="a_Node000018"><a xlink:href="group__internal.html#ga20057caad23a28a66e09535ad5fdf9de" target="_top" xlink:title=": This function handles errors when reading OTP register.">
<polygon fill="white" stroke="#666666" points="816,-449 727,-449 727,-430 816,-430 816,-449"/>
<text text-anchor="middle" x="771.5" y="-437" font-family="Helvetica,sans-Serif" font-size="10.00">OTP_E_handler</text>
</a>
</g>
</g>
<!-- Node17&#45;&gt;Node18 -->
<g id="edge25_Node000017_Node000018" class="edge">
<title>Node17&#45;&gt;Node18</title>
<g id="a_edge25_Node000017_Node000018"><a xlink:title=" ">
<path fill="none" stroke="#63b8ff" d="M648.92,-439.5C669.75,-439.5 694.83,-439.5 716.79,-439.5"/>
<polygon fill="#63b8ff" stroke="#63b8ff" points="716.95,-443 726.95,-439.5 716.95,-436 716.95,-443"/>
</a>
</g>
</g>
<!-- Node20 -->
<g id="Node000020" class="node">
<title>Node20</title>
<g id="a_Node000020"><a xlink:href="group__internal.html#gaa33f4de6a84f0a1c8582626cb6c1a28f" target="_top" xlink:title=": This function converts the ADC data from the BMM350 data registers to 32&#45;bit signed integer.">
<polygon fill="white" stroke="#666666" points="1104,-262 1050,-262 1050,-243 1104,-243 1104,-262"/>
<text text-anchor="middle" x="1077" y="-250" font-family="Helvetica,sans-Serif" font-size="10.00">fix_sign</text>
</a>
</g>
</g>
<!-- Node19&#45;&gt;Node20 -->
<g id="edge27_Node000019_Node000020" class="edge">
<title>Node19&#45;&gt;Node20</title>
<g id="a_edge27_Node000019_Node000020"><a xlink:title=" ">
<path fill="none" stroke="#63b8ff" d="M954.63,-329.86C978.2,-314.83 1023.9,-285.7 1052,-267.79"/>
<polygon fill="#63b8ff" stroke="#63b8ff" points="1054.25,-270.51 1060.8,-262.19 1050.49,-264.61 1054.25,-270.51"/>
</a>
</g>
</g>
<!-- Node22 -->
<g id="Node000022" class="node">
<title>Node22</title>
<g id="a_Node000022"><a xlink:href="group__user__internal.html#ga349bf3c57fbed6694ac73f4cbebcf990" target="_top" xlink:title="This function filters the data of angle got from magnetic readings.">
<polygon fill="white" stroke="#666666" points="465,-56 378,-56 378,-37 465,-37 465,-56"/>
<text text-anchor="middle" x="421.5" y="-44" font-family="Helvetica,sans-Serif" font-size="10.00">adaptive_filter</text>
</a>
</g>
</g>
<!-- Node21&#45;&gt;Node22 -->
<g id="edge29_Node000021_Node000022" class="edge">
<title>Node21&#45;&gt;Node22</title>
<g id="a_edge29_Node000021_Node000022"><a xlink:title=" ">
<path fill="none" stroke="#63b8ff" d="M300.13,-74.91C321.47,-69.87 347.81,-63.66 370.41,-58.32"/>
<polygon fill="#63b8ff" stroke="#63b8ff" points="371.24,-61.72 380.17,-56.02 369.63,-54.91 371.24,-61.72"/>
</a>
</g>
</g>
<!-- Node25 -->
<g id="Node000025" class="node">
<title>Node25</title>
<g id="a_Node000025"><a xlink:href="group__user.html#gae42e76e9e743d998bbdb637a03352b7d" target="_top" xlink:title="this function checks the drdy_data_reg (0x30) data ready interrupt then returns the status of the reg...">
<polygon fill="white" stroke="#666666" points="451.5,-94 391.5,-94 391.5,-75 451.5,-75 451.5,-94"/>
<text text-anchor="middle" x="421.5" y="-82" font-family="Helvetica,sans-Serif" font-size="10.00">read_intr</text>
</a>
</g>
</g>
<!-- Node21&#45;&gt;Node25 -->
<g id="edge32_Node000021_Node000025" class="edge">
<title>Node21&#45;&gt;Node25</title>
<g id="a_edge32_Node000021_Node000025"><a xlink:title=" ">
<path fill="none" stroke="#63b8ff" d="M315.36,-84.5C337.07,-84.5 361.42,-84.5 381.22,-84.5"/>
<polygon fill="#63b8ff" stroke="#63b8ff" points="381.42,-88 391.42,-84.5 381.42,-81 381.42,-88"/>
</a>
</g>
</g>
<!-- Node23 -->
<g id="Node000023" class="node">
<title>Node23</title>
<g id="a_Node000023"><a xlink:href="group__internal.html#gab4be8745d812ca6e741eb455f64f3bb7" target="_top" xlink:title="This function smooths the operation of interpolation between angles specially for jumps from 0 to 360...">
<polygon fill="white" stroke="#666666" points="646.5,-19 561.5,-19 561.5,0 646.5,0 646.5,-19"/>
<text text-anchor="middle" x="604" y="-7" font-family="Helvetica,sans-Serif" font-size="10.00">unwrap_angle</text>
</a>
</g>
</g>
<!-- Node22&#45;&gt;Node23 -->
<g id="edge30_Node000022_Node000023" class="edge">
<title>Node22&#45;&gt;Node23</title>
<g id="a_edge30_Node000022_Node000023"><a xlink:title=" ">
<path fill="none" stroke="#63b8ff" d="M465.28,-37.73C491.07,-32.44 524.09,-25.68 551.33,-20.09"/>
<polygon fill="#63b8ff" stroke="#63b8ff" points="552.37,-23.45 561.46,-18.01 550.96,-16.59 552.37,-23.45"/>
</a>
</g>
</g>
<!-- Node24 -->
<g id="Node000024" class="node">
<title>Node24</title>
<g id="a_Node000024"><a xlink:href="group__internal.html#ga9a1cd3e3a0329e310eba39d7df534c55" target="_top" xlink:title="This function wrapes the angle input to make sure it is between 0 and 360 degrees.">
<polygon fill="white" stroke="#666666" points="636,-56 572,-56 572,-37 636,-37 636,-56"/>
<text text-anchor="middle" x="604" y="-44" font-family="Helvetica,sans-Serif" font-size="10.00">wrap_360</text>
</a>
</g>
</g>
<!-- Node22&#45;&gt;Node24 -->
<g id="edge31_Node000022_Node000024" class="edge">
<title>Node22&#45;&gt;Node24</title>
<g id="a_edge31_Node000022_Node000024"><a xlink:title=" ">
<path fill="none" stroke="#63b8ff" d="M465.28,-46.5C494.43,-46.5 532.82,-46.5 561.67,-46.5"/>
<polygon fill="#63b8ff" stroke="#63b8ff" points="561.83,-50 571.83,-46.5 561.83,-43 561.83,-50"/>
</a>
</g>
</g>
<!-- Node26 -->
<g id="Node000026" class="node">
<title>Node26</title>
<g id="a_Node000026"><a xlink:href="group__user__internal.html#ga072f77061f2d28f8b93181aac9890a87" target="_top" xlink:title="This internal function is used to perform compensation calculations for raw magnetometer and temperat...">
<polygon fill="white" stroke="#666666" points="680,-104.5 528,-104.5 528,-74.5 680,-74.5 680,-104.5"/>
<text text-anchor="start" x="536" y="-92.5" font-family="Helvetica,sans-Serif" font-size="10.00">bmm350_get_compensated</text>
<text text-anchor="middle" x="604" y="-81.5" font-family="Helvetica,sans-Serif" font-size="10.00">_mag_xyz_temp_data</text>
</a>
</g>
</g>
<!-- Node25&#45;&gt;Node26 -->
<g id="edge33_Node000025_Node000026" class="edge">
<title>Node25&#45;&gt;Node26</title>
<g id="a_edge33_Node000025_Node000026"><a xlink:title=" ">
<path fill="none" stroke="#63b8ff" d="M451.5,-85.3C469.55,-85.8 493.79,-86.47 517.58,-87.13"/>
<polygon fill="#63b8ff" stroke="#63b8ff" points="517.64,-90.64 527.73,-87.41 517.83,-83.64 517.64,-90.64"/>
</a>
</g>
</g>
<!-- Node27 -->
<g id="Node000027" class="node">
<title>Node27</title>
<g id="a_Node000027"><a xlink:href="group__internal.html#ga91a3a98a720e9061b94ed3fb0f75a05b" target="_top" xlink:title="This internal function is used to read uncompensated raw magnetic x,y and z axis along with temperatu...">
<polygon fill="white" stroke="#666666" points="826.5,-99 716.5,-99 716.5,-80 826.5,-80 826.5,-99"/>
<text text-anchor="middle" x="771.5" y="-87" font-family="Helvetica,sans-Serif" font-size="10.00">read_out_raw_data</text>
</a>
</g>
</g>
<!-- Node26&#45;&gt;Node27 -->
<g id="edge34_Node000026_Node000027" class="edge">
<title>Node26&#45;&gt;Node27</title>
<g id="a_edge34_Node000026_Node000027"><a xlink:title=" ">
<path fill="none" stroke="#63b8ff" d="M680,-89.5C688.64,-89.5 697.38,-89.5 705.86,-89.5"/>
<polygon fill="#63b8ff" stroke="#63b8ff" points="706.05,-93 716.05,-89.5 706.05,-86 706.05,-93"/>
</a>
</g>
</g>
<!-- Node28 -->
<g id="Node000028" class="node">
<title>Node28</title>
<g id="a_Node000028"><a xlink:href="group__internal.html#ga90f5ad40d27ae8036b2475fe285901a1" target="_top" xlink:title="This function is used to read (ADC) mag and temperature data.">
<polygon fill="white" stroke="#666666" points="1004,-180.5 873,-180.5 873,-150.5 1004,-150.5 1004,-180.5"/>
<text text-anchor="start" x="881" y="-168.5" font-family="Helvetica,sans-Serif" font-size="10.00">bmm350_read_uncomp</text>
<text text-anchor="middle" x="938.5" y="-157.5" font-family="Helvetica,sans-Serif" font-size="10.00">_mag_temp_data</text>
</a>
</g>
</g>
<!-- Node27&#45;&gt;Node28 -->
<g id="edge35_Node000027_Node000028" class="edge">
<title>Node27&#45;&gt;Node28</title>
<g id="a_edge35_Node000027_Node000028"><a xlink:title=" ">
<path fill="none" stroke="#63b8ff" d="M794.57,-99.07C804.5,-103.41 816.37,-108.66 827,-113.5 850.26,-124.09 876.11,-136.24 896.96,-146.13"/>
<polygon fill="#63b8ff" stroke="#63b8ff" points="895.63,-149.37 906.16,-150.5 898.63,-143.04 895.63,-149.37"/>
</a>
</g>
</g>
<!-- Node29 -->
<g id="Node000029" class="node">
<title>Node29</title>
<g id="a_Node000029"><a xlink:href="group__internal.html#ga805428fdfd31395afb20fced06b8d680" target="_top" xlink:title="This internal function is used to update uncompensated lsb data to uT and degC.">
<polygon fill="white" stroke="#666666" points="1014,-99 863,-99 863,-80 1014,-80 1014,-99"/>
<text text-anchor="middle" x="938.5" y="-87" font-family="Helvetica,sans-Serif" font-size="10.00">update_default_coefiecents</text>
</a>
</g>
</g>
<!-- Node27&#45;&gt;Node29 -->
<g id="edge37_Node000027_Node000029" class="edge">
<title>Node27&#45;&gt;Node29</title>
<g id="a_edge37_Node000027_Node000029"><a xlink:title=" ">
<path fill="none" stroke="#63b8ff" d="M826.53,-89.5C834.99,-89.5 843.92,-89.5 852.88,-89.5"/>
<polygon fill="#63b8ff" stroke="#63b8ff" points="852.98,-93 862.98,-89.5 852.98,-86 852.98,-93"/>
</a>
</g>
</g>
<!-- Node28&#45;&gt;Node20 -->
<g id="edge36_Node000028_Node000020" class="edge">
<title>Node28&#45;&gt;Node20</title>
<g id="a_edge36_Node000028_Node000020"><a xlink:title=" ">
<path fill="none" stroke="#63b8ff" d="M963.28,-180.65C988.31,-196.61 1027.49,-221.58 1052.44,-237.48"/>
<polygon fill="#63b8ff" stroke="#63b8ff" points="1050.62,-240.48 1060.94,-242.9 1054.38,-234.57 1050.62,-240.48"/>
</a>
</g>
</g>
</g>
</svg>
