<?xml version="1.0" encoding="UTF-8" standalone="no"?>
<!DOCTYPE svg PUBLIC "-//W3C//DTD SVG 1.1//EN"
 "http://www.w3.org/Graphics/SVG/1.1/DTD/svg11.dtd">
<!-- Generated by graphviz version 2.43.0 (0)
 -->
<!-- Title: bmm350_pmu_cmd_status_s Pages: 1 -->
<svg width="366pt" height="93pt"
 viewBox="0.00 0.00 366.00 93.00" xmlns="http://www.w3.org/2000/svg" xmlns:xlink="http://www.w3.org/1999/xlink">
<g id="graph0" class="graph" transform="scale(1 1) rotate(0) translate(4 89)">
<title>bmm350_pmu_cmd_status_s</title>
<!-- Node1 -->
<g id="Node000001" class="node">
<title>Node1</title>
<g id="a_Node000001"><a xlink:title="bmm350 structure that holds the contents of register 0x08">
<polygon fill="#999999" stroke="#666666" points="258.5,-19 99.5,-19 99.5,0 258.5,0 258.5,-19"/>
<text text-anchor="middle" x="179" y="-7" font-family="Helvetica,sans-Serif" font-size="10.00">bmm350_pmu_cmd_status_s</text>
</a>
</g>
</g>
<!-- Node2 -->
<g id="Node000002" class="node">
<title>Node2</title>
<g id="a_Node000002"><a xlink:href="structbmm350__pmu__cmd__status__0__s.html" target="_top" xlink:title="bmm350 structure that holds the contents of register 0x07">
<polygon fill="white" stroke="#666666" points="170,-85 0,-85 0,-66 170,-66 170,-85"/>
<text text-anchor="middle" x="85" y="-73" font-family="Helvetica,sans-Serif" font-size="10.00">bmm350_pmu_cmd_status_0_s</text>
</a>
</g>
</g>
<!-- Node2&#45;&gt;Node1 -->
<g id="edge1_Node000001_Node000002" class="edge">
<title>Node2&#45;&gt;Node1</title>
<g id="a_edge1_Node000001_Node000002"><a xlink:title=" ">
<path fill="none" stroke="#9a32cd" stroke-dasharray="5,2" d="M106.03,-60.18C124.5,-47.61 150.76,-29.73 166.22,-19.2"/>
<polygon fill="#9a32cd" stroke="#9a32cd" points="103.97,-57.35 97.68,-65.87 107.91,-63.13 103.97,-57.35"/>
</a>
</g>
<text text-anchor="middle" x="160.5" y="-40" font-family="Helvetica,sans-Serif" font-size="10.00" fill="grey"> status_0</text>
</g>
<!-- Node3 -->
<g id="Node000003" class="node">
<title>Node3</title>
<g id="a_Node000003"><a xlink:href="structbmm350__pmu__cmd__status__1__s.html" target="_top" xlink:title="bmm350 structure that holds the contents of register 0x07">
<polygon fill="white" stroke="#666666" points="358,-85 188,-85 188,-66 358,-66 358,-85"/>
<text text-anchor="middle" x="273" y="-73" font-family="Helvetica,sans-Serif" font-size="10.00">bmm350_pmu_cmd_status_1_s</text>
</a>
</g>
</g>
<!-- Node3&#45;&gt;Node1 -->
<g id="edge2_Node000001_Node000003" class="edge">
<title>Node3&#45;&gt;Node1</title>
<g id="a_edge2_Node000001_Node000003"><a xlink:title=" ">
<path fill="none" stroke="#9a32cd" stroke-dasharray="5,2" d="M251.97,-60.18C233.5,-47.61 207.24,-29.73 191.78,-19.2"/>
<polygon fill="#9a32cd" stroke="#9a32cd" points="250.09,-63.13 260.32,-65.87 254.03,-57.35 250.09,-63.13"/>
</a>
</g>
<text text-anchor="middle" x="253.5" y="-40" font-family="Helvetica,sans-Serif" font-size="10.00" fill="grey"> status_1</text>
</g>
</g>
</svg>
