<?xml version="1.0" encoding="UTF-8" standalone="no"?>
<!DOCTYPE svg PUBLIC "-//W3C//DTD SVG 1.1//EN"
 "http://www.w3.org/Graphics/SVG/1.1/DTD/svg11.dtd">
<!-- Generated by graphviz version 2.43.0 (0)
 -->
<!-- Title: bmm350_mag_compensate_s Pages: 1 -->
<svg width="439pt" height="175pt"
 viewBox="0.00 0.00 439.00 175.00" xmlns="http://www.w3.org/2000/svg" xmlns:xlink="http://www.w3.org/1999/xlink">
<g id="graph0" class="graph" transform="scale(1 1) rotate(0) translate(4 171)">
<title>bmm350_mag_compensate_s</title>
<!-- Node1 -->
<g id="Node000001" class="node">
<title>Node1</title>
<g id="a_Node000001"><a xlink:title="bmm350 compensation parameters for calculation">
<polygon fill="#999999" stroke="#666666" points="431,-93 268,-93 268,-74 431,-74 431,-93"/>
<text text-anchor="middle" x="349.5" y="-81" font-family="Helvetica,sans-Serif" font-size="10.00">bmm350_mag_compensate_s</text>
</a>
</g>
</g>
<!-- Node2 -->
<g id="Node000002" class="node">
<title>Node2</title>
<g id="a_Node000002"><a xlink:href="structbmm350__dut__offset__coef__s.html" target="_top" xlink:title="bmm350 magnetometer offset compensation coefficients for the magnetic axes (X, Y, Z)">
<polygon fill="white" stroke="#666666" points="151.5,-167 0.5,-167 0.5,-148 151.5,-148 151.5,-167"/>
<text text-anchor="middle" x="76" y="-155" font-family="Helvetica,sans-Serif" font-size="10.00">bmm350_dut_offset_coef_s</text>
</a>
</g>
</g>
<!-- Node2&#45;&gt;Node1 -->
<g id="edge1_Node000001_Node000002" class="edge">
<title>Node2&#45;&gt;Node1</title>
<g id="a_edge1_Node000001_Node000002"><a xlink:title=" ">
<path fill="none" stroke="#9a32cd" stroke-dasharray="5,2" d="M150.84,-146.2C181.8,-140.64 217.97,-133.05 250,-123.5 277.77,-115.22 308.52,-102.05 328.16,-93.1"/>
<polygon fill="#9a32cd" stroke="#9a32cd" points="150.22,-142.76 140.98,-147.94 151.43,-149.65 150.22,-142.76"/>
</a>
</g>
<text text-anchor="middle" x="210" y="-145.5" font-family="Helvetica,sans-Serif" font-size="10.00" fill="grey"> dut_offset_coef</text>
</g>
<!-- Node3 -->
<g id="Node000003" class="node">
<title>Node3</title>
<g id="a_Node000003"><a xlink:href="structbmm350__dut__sensit__coef__s.html" target="_top" xlink:title="bmm350 magnetometer sensitivity coefficient structure">
<polygon fill="white" stroke="#666666" points="152,-130 0,-130 0,-111 152,-111 152,-130"/>
<text text-anchor="middle" x="76" y="-118" font-family="Helvetica,sans-Serif" font-size="10.00">bmm350_dut_sensit_coef_s</text>
</a>
</g>
</g>
<!-- Node3&#45;&gt;Node1 -->
<g id="edge2_Node000001_Node000003" class="edge">
<title>Node3&#45;&gt;Node1</title>
<g id="a_edge2_Node000001_Node000003"><a xlink:title=" ">
<path fill="none" stroke="#9a32cd" stroke-dasharray="5,2" d="M162.54,-110.05C190.44,-106.52 221.56,-102.47 250,-98.5 262.16,-96.8 275.16,-94.89 287.58,-93.02"/>
<polygon fill="#9a32cd" stroke="#9a32cd" points="161.9,-106.6 152.42,-111.32 162.78,-113.54 161.9,-106.6"/>
</a>
</g>
<text text-anchor="middle" x="210" y="-111.5" font-family="Helvetica,sans-Serif" font-size="10.00" fill="grey"> dut_sensit_coef</text>
</g>
<!-- Node4 -->
<g id="Node000004" class="node">
<title>Node4</title>
<g id="a_Node000004"><a xlink:href="structbmm350__dut__tco__s.html" target="_top" xlink:title="bmm350 temperature coefficient of offset (TCO). Magnetic offset error changes with temperature....">
<polygon fill="white" stroke="#666666" points="132,-93 20,-93 20,-74 132,-74 132,-93"/>
<text text-anchor="middle" x="76" y="-81" font-family="Helvetica,sans-Serif" font-size="10.00">bmm350_dut_tco_s</text>
</a>
</g>
</g>
<!-- Node4&#45;&gt;Node1 -->
<g id="edge3_Node000001_Node000004" class="edge">
<title>Node4&#45;&gt;Node1</title>
<g id="a_edge3_Node000001_Node000004"><a xlink:title=" ">
<path fill="none" stroke="#9a32cd" stroke-dasharray="5,2" d="M142.61,-83.5C180.28,-83.5 227.88,-83.5 267.82,-83.5"/>
<polygon fill="#9a32cd" stroke="#9a32cd" points="142.27,-80 132.27,-83.5 142.27,-87 142.27,-80"/>
</a>
</g>
<text text-anchor="middle" x="210" y="-86.5" font-family="Helvetica,sans-Serif" font-size="10.00" fill="grey"> dut_tco</text>
</g>
<!-- Node5 -->
<g id="Node000005" class="node">
<title>Node5</title>
<g id="a_Node000005"><a xlink:href="structbmm350__dut__tcs__s.html" target="_top" xlink:title="bmm350 temperature coefficient of sensitivity (TCS). the sensitivity also drifts with temperature....">
<polygon fill="white" stroke="#666666" points="131.5,-56 20.5,-56 20.5,-37 131.5,-37 131.5,-56"/>
<text text-anchor="middle" x="76" y="-44" font-family="Helvetica,sans-Serif" font-size="10.00">bmm350_dut_tcs_s</text>
</a>
</g>
</g>
<!-- Node5&#45;&gt;Node1 -->
<g id="edge4_Node000001_Node000005" class="edge">
<title>Node5&#45;&gt;Node1</title>
<g id="a_edge4_Node000001_Node000005"><a xlink:title=" ">
<path fill="none" stroke="#9a32cd" stroke-dasharray="5,2" d="M141.86,-54.36C174.35,-58.4 214.28,-63.51 250,-68.5 262.16,-70.2 275.16,-72.11 287.58,-73.98"/>
<polygon fill="#9a32cd" stroke="#9a32cd" points="141.94,-50.85 131.59,-53.09 141.08,-57.79 141.94,-50.85"/>
</a>
</g>
<text text-anchor="middle" x="210" y="-71.5" font-family="Helvetica,sans-Serif" font-size="10.00" fill="grey"> dut_tcs</text>
</g>
<!-- Node6 -->
<g id="Node000006" class="node">
<title>Node6</title>
<g id="a_Node000006"><a xlink:href="structbmm350__cross__axis__s.html" target="_top" xlink:title="bmm350 cross&#45;axis sensitivity correction factors. Magnetic sensors are not perfectly aligned to ortho...">
<polygon fill="white" stroke="#666666" points="139.5,-19 12.5,-19 12.5,0 139.5,0 139.5,-19"/>
<text text-anchor="middle" x="76" y="-7" font-family="Helvetica,sans-Serif" font-size="10.00">bmm350_cross_axis_s</text>
</a>
</g>
</g>
<!-- Node6&#45;&gt;Node1 -->
<g id="edge5_Node000001_Node000006" class="edge">
<title>Node6&#45;&gt;Node1</title>
<g id="a_edge5_Node000001_Node000006"><a xlink:title=" ">
<path fill="none" stroke="#9a32cd" stroke-dasharray="5,2" d="M149.74,-19.95C180.96,-25.31 217.63,-32.79 250,-42.5 278.21,-50.96 309.37,-64.73 328.94,-73.95"/>
<polygon fill="#9a32cd" stroke="#9a32cd" points="150.24,-16.49 139.8,-18.28 149.09,-23.39 150.24,-16.49"/>
</a>
</g>
<text text-anchor="middle" x="210" y="-45.5" font-family="Helvetica,sans-Serif" font-size="10.00" fill="grey"> cross_axis</text>
</g>
</g>
</svg>
