<?xml version="1.0" encoding="UTF-8" standalone="no"?>
<!DOCTYPE svg PUBLIC "-//W3C//DTD SVG 1.1//EN"
 "http://www.w3.org/Graphics/SVG/1.1/DTD/svg11.dtd">
<!-- Generated by graphviz version 2.43.0 (0)
 -->
<!-- Title: bmm350_dev_s Pages: 1 -->
<svg width="674pt" height="286pt"
 viewBox="0.00 0.00 674.00 286.00" xmlns="http://www.w3.org/2000/svg" xmlns:xlink="http://www.w3.org/1999/xlink">
<g id="graph0" class="graph" transform="scale(1 1) rotate(0) translate(4 282)">
<title>bmm350_dev_s</title>
<!-- Node1 -->
<g id="Node000001" class="node">
<title>Node1</title>
<g id="a_Node000001"><a xlink:title="bmm350 device main structure">
<polygon fill="#999999" stroke="#666666" points="666,-73 572,-73 572,-54 666,-54 666,-73"/>
<text text-anchor="middle" x="619" y="-61" font-family="Helvetica,sans-Serif" font-size="10.00">bmm350_dev_s</text>
</a>
</g>
</g>
<!-- Node1&#45;&gt;Node1 -->
<g id="edge1_Node000001_Node000001" class="edge">
<title>Node1&#45;&gt;Node1</title>
<g id="a_edge1_Node000001_Node000001"><a xlink:title=" ">
<path fill="none" stroke="#9a32cd" stroke-dasharray="5,2" d="M599,-82.55C600.34,-87.38 607,-91 619,-91 638.2,-91 643.74,-81.73 635.65,-73.08"/>
<polygon fill="#9a32cd" stroke="#9a32cd" points="602.32,-83.68 602.35,-73.08 595.72,-81.34 602.32,-83.68"/>
</a>
</g>
<text text-anchor="middle" x="619" y="-105" font-family="Helvetica,sans-Serif" font-size="10.00" fill="grey"> read</text>
<text text-anchor="middle" x="619" y="-94" font-family="Helvetica,sans-Serif" font-size="10.00" fill="grey">write</text>
</g>
<!-- Node2 -->
<g id="Node000002" class="node">
<title>Node2</title>
<g id="a_Node000002"><a xlink:href="structbmm350__mag__compensate__s.html" target="_top" xlink:title="bmm350 compensation parameters for calculation">
<polygon fill="white" stroke="#666666" points="449,-185 286,-185 286,-166 449,-166 449,-185"/>
<text text-anchor="middle" x="367.5" y="-173" font-family="Helvetica,sans-Serif" font-size="10.00">bmm350_mag_compensate_s</text>
</a>
</g>
</g>
<!-- Node2&#45;&gt;Node1 -->
<g id="edge2_Node000001_Node000002" class="edge">
<title>Node2&#45;&gt;Node1</title>
<g id="a_edge2_Node000001_Node000002"><a xlink:title=" ">
<path fill="none" stroke="#9a32cd" stroke-dasharray="5,2" d="M399.03,-161.8C450.33,-138.77 552.55,-92.88 596.78,-73.02"/>
<polygon fill="#9a32cd" stroke="#9a32cd" points="397.46,-158.66 389.77,-165.95 400.33,-165.05 397.46,-158.66"/>
</a>
</g>
<text text-anchor="middle" x="510.5" y="-132.5" font-family="Helvetica,sans-Serif" font-size="10.00" fill="grey"> mag_comp</text>
</g>
<!-- Node3 -->
<g id="Node000003" class="node">
<title>Node3</title>
<g id="a_Node000003"><a xlink:href="structbmm350__dut__offset__coef__s.html" target="_top" xlink:title="bmm350 magnetometer offset compensation coefficients for the magnetic axes (X, Y, Z)">
<polygon fill="white" stroke="#666666" points="160.5,-278 9.5,-278 9.5,-259 160.5,-259 160.5,-278"/>
<text text-anchor="middle" x="85" y="-266" font-family="Helvetica,sans-Serif" font-size="10.00">bmm350_dut_offset_coef_s</text>
</a>
</g>
</g>
<!-- Node3&#45;&gt;Node2 -->
<g id="edge3_Node000002_Node000003" class="edge">
<title>Node3&#45;&gt;Node2</title>
<g id="a_edge3_Node000002_Node000003"><a xlink:title=" ">
<path fill="none" stroke="#9a32cd" stroke-dasharray="5,2" d="M165.96,-257.22C198.27,-251.27 235.53,-242.63 268,-230.5 299.92,-218.57 333.96,-197.45 352.48,-185.14"/>
<polygon fill="#9a32cd" stroke="#9a32cd" points="165.33,-253.77 156.1,-258.97 166.56,-260.66 165.33,-253.77"/>
</a>
</g>
<text text-anchor="middle" x="228" y="-255.5" font-family="Helvetica,sans-Serif" font-size="10.00" fill="grey"> dut_offset_coef</text>
</g>
<!-- Node4 -->
<g id="Node000004" class="node">
<title>Node4</title>
<g id="a_Node000004"><a xlink:href="structbmm350__dut__sensit__coef__s.html" target="_top" xlink:title="bmm350 magnetometer sensitivity coefficient structure">
<polygon fill="white" stroke="#666666" points="161,-241 9,-241 9,-222 161,-222 161,-241"/>
<text text-anchor="middle" x="85" y="-229" font-family="Helvetica,sans-Serif" font-size="10.00">bmm350_dut_sensit_coef_s</text>
</a>
</g>
</g>
<!-- Node4&#45;&gt;Node2 -->
<g id="edge4_Node000002_Node000004" class="edge">
<title>Node4&#45;&gt;Node2</title>
<g id="a_edge4_Node000002_Node000004"><a xlink:title=" ">
<path fill="none" stroke="#9a32cd" stroke-dasharray="5,2" d="M163.17,-220.44C195.66,-215.35 233.8,-208.81 268,-201.5 289.96,-196.8 314.38,-190.37 333.4,-185.07"/>
<polygon fill="#9a32cd" stroke="#9a32cd" points="162.62,-216.98 153.27,-221.97 163.69,-223.9 162.62,-216.98"/>
</a>
</g>
<text text-anchor="middle" x="228" y="-218.5" font-family="Helvetica,sans-Serif" font-size="10.00" fill="grey"> dut_sensit_coef</text>
</g>
<!-- Node5 -->
<g id="Node000005" class="node">
<title>Node5</title>
<g id="a_Node000005"><a xlink:href="structbmm350__dut__tco__s.html" target="_top" xlink:title="bmm350 temperature coefficient of offset (TCO). Magnetic offset error changes with temperature....">
<polygon fill="white" stroke="#666666" points="141,-204 29,-204 29,-185 141,-185 141,-204"/>
<text text-anchor="middle" x="85" y="-192" font-family="Helvetica,sans-Serif" font-size="10.00">bmm350_dut_tco_s</text>
</a>
</g>
</g>
<!-- Node5&#45;&gt;Node2 -->
<g id="edge5_Node000002_Node000005" class="edge">
<title>Node5&#45;&gt;Node2</title>
<g id="a_edge5_Node000002_Node000005"><a xlink:title=" ">
<path fill="none" stroke="#9a32cd" stroke-dasharray="5,2" d="M151.28,-190.08C191.4,-187.36 243.1,-183.86 285.77,-180.97"/>
<polygon fill="#9a32cd" stroke="#9a32cd" points="150.82,-186.6 141.08,-190.77 151.3,-193.58 150.82,-186.6"/>
</a>
</g>
<text text-anchor="middle" x="228" y="-189.5" font-family="Helvetica,sans-Serif" font-size="10.00" fill="grey"> dut_tco</text>
</g>
<!-- Node6 -->
<g id="Node000006" class="node">
<title>Node6</title>
<g id="a_Node000006"><a xlink:href="structbmm350__dut__tcs__s.html" target="_top" xlink:title="bmm350 temperature coefficient of sensitivity (TCS). the sensitivity also drifts with temperature....">
<polygon fill="white" stroke="#666666" points="140.5,-167 29.5,-167 29.5,-148 140.5,-148 140.5,-167"/>
<text text-anchor="middle" x="85" y="-155" font-family="Helvetica,sans-Serif" font-size="10.00">bmm350_dut_tcs_s</text>
</a>
</g>
</g>
<!-- Node6&#45;&gt;Node2 -->
<g id="edge6_Node000002_Node000006" class="edge">
<title>Node6&#45;&gt;Node2</title>
<g id="a_edge6_Node000002_Node000006"><a xlink:title=" ">
<path fill="none" stroke="#9a32cd" stroke-dasharray="5,2" d="M150.68,-157.05C185.5,-157.28 229.15,-158.32 268,-161.5 280.91,-162.56 294.71,-164.19 307.77,-165.98"/>
<polygon fill="#9a32cd" stroke="#9a32cd" points="150.66,-153.55 140.64,-157 150.63,-160.55 150.66,-153.55"/>
</a>
</g>
<text text-anchor="middle" x="228" y="-164.5" font-family="Helvetica,sans-Serif" font-size="10.00" fill="grey"> dut_tcs</text>
</g>
<!-- Node7 -->
<g id="Node000007" class="node">
<title>Node7</title>
<g id="a_Node000007"><a xlink:href="structbmm350__cross__axis__s.html" target="_top" xlink:title="bmm350 cross&#45;axis sensitivity correction factors. Magnetic sensors are not perfectly aligned to ortho...">
<polygon fill="white" stroke="#666666" points="148.5,-130 21.5,-130 21.5,-111 148.5,-111 148.5,-130"/>
<text text-anchor="middle" x="85" y="-118" font-family="Helvetica,sans-Serif" font-size="10.00">bmm350_cross_axis_s</text>
</a>
</g>
</g>
<!-- Node7&#45;&gt;Node2 -->
<g id="edge7_Node000002_Node000007" class="edge">
<title>Node7&#45;&gt;Node2</title>
<g id="a_edge7_Node000002_Node000007"><a xlink:title=" ">
<path fill="none" stroke="#9a32cd" stroke-dasharray="5,2" d="M159.03,-125.91C192.51,-129.27 232.55,-134.51 268,-142.5 294.04,-148.37 322.89,-158.48 342.6,-165.97"/>
<polygon fill="#9a32cd" stroke="#9a32cd" points="159.16,-122.41 148.87,-124.93 158.49,-129.38 159.16,-122.41"/>
</a>
</g>
<text text-anchor="middle" x="228" y="-145.5" font-family="Helvetica,sans-Serif" font-size="10.00" fill="grey"> cross_axis</text>
</g>
<!-- Node8 -->
<g id="Node000008" class="node">
<title>Node8</title>
<g id="a_Node000008"><a xlink:href="structbmm350__pmu__cmd__status__s.html" target="_top" xlink:title="bmm350 structure that holds the contents of register 0x08">
<polygon fill="white" stroke="#666666" points="447,-93 288,-93 288,-74 447,-74 447,-93"/>
<text text-anchor="middle" x="367.5" y="-81" font-family="Helvetica,sans-Serif" font-size="10.00">bmm350_pmu_cmd_status_s</text>
</a>
</g>
</g>
<!-- Node8&#45;&gt;Node1 -->
<g id="edge8_Node000001_Node000008" class="edge">
<title>Node8&#45;&gt;Node1</title>
<g id="a_edge8_Node000001_Node000008"><a xlink:title=" ">
<path fill="none" stroke="#9a32cd" stroke-dasharray="5,2" d="M457.33,-76.38C496,-73.28 539.69,-69.78 571.75,-67.21"/>
<polygon fill="#9a32cd" stroke="#9a32cd" points="456.79,-72.91 447.1,-77.2 457.35,-79.89 456.79,-72.91"/>
</a>
</g>
<text text-anchor="middle" x="510.5" y="-77.5" font-family="Helvetica,sans-Serif" font-size="10.00" fill="grey"> pmu_cmd_status</text>
</g>
<!-- Node9 -->
<g id="Node000009" class="node">
<title>Node9</title>
<g id="a_Node000009"><a xlink:href="structbmm350__pmu__cmd__status__0__s.html" target="_top" xlink:title="bmm350 structure that holds the contents of register 0x07">
<polygon fill="white" stroke="#666666" points="170,-93 0,-93 0,-74 170,-74 170,-93"/>
<text text-anchor="middle" x="85" y="-81" font-family="Helvetica,sans-Serif" font-size="10.00">bmm350_pmu_cmd_status_0_s</text>
</a>
</g>
</g>
<!-- Node9&#45;&gt;Node8 -->
<g id="edge9_Node000008_Node000009" class="edge">
<title>Node9&#45;&gt;Node8</title>
<g id="a_edge9_Node000008_Node000009"><a xlink:title=" ">
<path fill="none" stroke="#9a32cd" stroke-dasharray="5,2" d="M180.35,-83.5C215.22,-83.5 254.33,-83.5 287.68,-83.5"/>
<polygon fill="#9a32cd" stroke="#9a32cd" points="180.16,-80 170.16,-83.5 180.16,-87 180.16,-80"/>
</a>
</g>
<text text-anchor="middle" x="228" y="-86.5" font-family="Helvetica,sans-Serif" font-size="10.00" fill="grey"> status_0</text>
</g>
<!-- Node10 -->
<g id="Node000010" class="node">
<title>Node10</title>
<g id="a_Node000010"><a xlink:href="structbmm350__pmu__cmd__status__1__s.html" target="_top" xlink:title="bmm350 structure that holds the contents of register 0x07">
<polygon fill="white" stroke="#666666" points="170,-56 0,-56 0,-37 170,-37 170,-56"/>
<text text-anchor="middle" x="85" y="-44" font-family="Helvetica,sans-Serif" font-size="10.00">bmm350_pmu_cmd_status_1_s</text>
</a>
</g>
</g>
<!-- Node10&#45;&gt;Node8 -->
<g id="edge10_Node000008_Node000010" class="edge">
<title>Node10&#45;&gt;Node8</title>
<g id="a_edge10_Node000008_Node000010"><a xlink:title=" ">
<path fill="none" stroke="#9a32cd" stroke-dasharray="5,2" d="M179.37,-57.23C207.84,-60.65 239.23,-64.57 268,-68.5 280.25,-70.17 293.35,-72.08 305.85,-73.96"/>
<polygon fill="#9a32cd" stroke="#9a32cd" points="179.77,-53.75 169.43,-56.04 178.94,-60.7 179.77,-53.75"/>
</a>
</g>
<text text-anchor="middle" x="228" y="-71.5" font-family="Helvetica,sans-Serif" font-size="10.00" fill="grey"> status_1</text>
</g>
<!-- Node11 -->
<g id="Node000011" class="node">
<title>Node11</title>
<g id="a_Node000011"><a xlink:href="structbmm350__mag__temp__data__s.html" target="_top" xlink:title="bmm350 compensated magnetometer data in Microtesla (µT) and Temperature in degrees Celsius (°C)">
<polygon fill="white" stroke="#666666" points="445,-56 290,-56 290,-37 445,-37 445,-56"/>
<text text-anchor="middle" x="367.5" y="-44" font-family="Helvetica,sans-Serif" font-size="10.00">bmm350_mag_temp_data_s</text>
</a>
</g>
</g>
<!-- Node11&#45;&gt;Node1 -->
<g id="edge11_Node000001_Node000011" class="edge">
<title>Node11&#45;&gt;Node1</title>
<g id="a_edge11_Node000001_Node000011"><a xlink:title=" ">
<path fill="none" stroke="#9a32cd" stroke-dasharray="5,2" d="M455.42,-43.51C486.6,-43.47 521.97,-44.62 554,-48.5 563.63,-49.67 573.92,-51.71 583.37,-53.92"/>
<polygon fill="#9a32cd" stroke="#9a32cd" points="454.99,-40.01 445.01,-43.57 455.03,-47.01 454.99,-40.01"/>
</a>
</g>
<text text-anchor="middle" x="510.5" y="-51.5" font-family="Helvetica,sans-Serif" font-size="10.00" fill="grey"> data</text>
</g>
<!-- Node12 -->
<g id="Node000012" class="node">
<title>Node12</title>
<g id="a_Node000012"><a xlink:href="structbmm350__intr__s.html" target="_top" xlink:title="bmm350 interrupt pin (INT) control parameters for register 0x2E">
<polygon fill="white" stroke="#666666" points="413.5,-19 321.5,-19 321.5,0 413.5,0 413.5,-19"/>
<text text-anchor="middle" x="367.5" y="-7" font-family="Helvetica,sans-Serif" font-size="10.00">bmm350_intr_s</text>
</a>
</g>
</g>
<!-- Node12&#45;&gt;Node1 -->
<g id="edge12_Node000001_Node000012" class="edge">
<title>Node12&#45;&gt;Node1</title>
<g id="a_edge12_Node000001_Node000012"><a xlink:title=" ">
<path fill="none" stroke="#9a32cd" stroke-dasharray="5,2" d="M423.94,-9.47C461.42,-10.82 511.61,-15.33 554,-28.5 572.38,-34.21 591.5,-45.48 604,-53.69"/>
<polygon fill="#9a32cd" stroke="#9a32cd" points="423.82,-5.96 413.72,-9.16 423.61,-12.96 423.82,-5.96"/>
</a>
</g>
<text text-anchor="middle" x="510.5" y="-31.5" font-family="Helvetica,sans-Serif" font-size="10.00" fill="grey"> intr_setting</text>
</g>
</g>
</svg>
